<svg xmlns="http://www.w3.org/2000/svg" xmlns:xlink="http://www.w3.org/1999/xlink" width="500" zoomAndPan="magnify" viewBox="0 0 375 374.999991" height="500" preserveAspectRatio="xMidYMid meet" version="1.0"><defs><clipPath id="55bee520e5"><path d="M 141.027344 155.992188 L 259.789062 155.992188 L 259.789062 167.203125 L 141.027344 167.203125 Z M 141.027344 155.992188 " clip-rule="nonzero"/></clipPath><clipPath id="615f96e26e"><path d="M 141.027344 353.109375 L 259.789062 353.109375 L 259.789062 375 L 141.027344 375 Z M 141.027344 353.109375 " clip-rule="nonzero"/></clipPath><clipPath id="4e6be8d294"><path d="M 106 2 L 268.539062 2 L 268.539062 375 L 106 375 Z M 106 2 " clip-rule="nonzero"/></clipPath><clipPath id="9b1de64cd6"><path d="M 169.144531 34.007812 L 233.417969 34.007812 L 233.417969 98.28125 L 169.144531 98.28125 Z M 169.144531 34.007812 " clip-rule="nonzero"/></clipPath><clipPath id="d770bebb3e"><path d="M 201.28125 34.007812 C 183.53125 34.007812 169.144531 48.394531 169.144531 66.144531 C 169.144531 83.894531 183.53125 98.28125 201.28125 98.28125 C 219.03125 98.28125 233.417969 83.894531 233.417969 66.144531 C 233.417969 48.394531 219.03125 34.007812 201.28125 34.007812 Z M 201.28125 34.007812 " clip-rule="nonzero"/></clipPath><clipPath id="26687b1954"><path d="M 169.144531 41.945312 L 217.71875 41.945312 L 217.71875 90.523438 L 169.144531 90.523438 Z M 169.144531 41.945312 " clip-rule="nonzero"/></clipPath><clipPath id="b4e1bd6182"><path d="M 145.582031 167.203125 L 255.234375 167.203125 L 255.234375 353.109375 L 145.582031 353.109375 Z M 145.582031 167.203125 " clip-rule="nonzero"/></clipPath></defs><g clip-path="url(#55bee520e5)"><path fill="#dbd0c2" d="M 141.027344 155.992188 L 259.785156 155.992188 L 259.785156 167.203125 L 141.027344 167.203125 Z M 141.027344 155.992188 " fill-opacity="1" fill-rule="nonzero"/></g><g clip-path="url(#615f96e26e)"><path fill="#dbd0c2" d="M 141.027344 353.109375 L 259.792969 353.109375 L 259.792969 375 L 141.027344 375 Z M 141.027344 353.109375 " fill-opacity="1" fill-rule="nonzero"/></g><g clip-path="url(#4e6be8d294)"><path fill="#080808" d="M 139.363281 374.792969 C 139.257812 374.695312 139.175781 370.144531 139.175781 364.6875 L 139.175781 354.765625 L 139.992188 353.945312 C 140.65625 353.277344 141.046875 353.125 142.089844 353.125 L 143.367188 353.125 L 143.433594 297.851562 C 143.472656 267.453125 143.503906 225.5625 143.503906 204.757812 L 143.503906 166.933594 L 142.386719 167.015625 C 141.773438 167.0625 141.015625 167.125 140.710938 167.152344 C 140.171875 167.203125 140.148438 167.011719 140.074219 161.710938 C 140.011719 157.195312 140.074219 156.15625 140.402344 155.878906 C 140.703125 155.628906 144.675781 155.53125 155.984375 155.488281 L 171.164062 155.433594 L 171.238281 144.144531 C 171.304688 134.203125 171.363281 132.839844 171.75 132.691406 C 171.988281 132.597656 172.398438 132.734375 172.65625 132.992188 C 173.070312 133.40625 173.136719 134.667969 173.261719 144.445312 L 173.402344 155.433594 L 199.445312 155.5 C 213.769531 155.535156 225.679688 155.5 225.917969 155.402344 C 226.296875 155.257812 226.347656 153.917969 226.347656 144.507812 C 226.347656 134.503906 226.382812 133.738281 226.863281 133.144531 C 227.191406 132.738281 227.546875 132.570312 227.839844 132.683594 C 228.253906 132.84375 228.304688 133.972656 228.371094 144.144531 L 228.445312 155.433594 L 252.320312 155.5625 L 253.375 154.414062 C 253.957031 153.785156 255.089844 152.890625 255.898438 152.433594 C 256.703125 151.976562 257.363281 151.414062 257.363281 151.1875 C 257.363281 150.5 256.039062 145.464844 253.871094 137.921875 C 252.742188 133.992188 251.480469 129.136719 251.066406 127.136719 C 250.652344 125.128906 250.1875 123.332031 250.03125 123.140625 C 249.613281 122.621094 247.585938 122.0625 240.179688 120.433594 L 233.472656 118.957031 L 233.152344 118 C 232.976562 117.476562 232.863281 117.015625 232.894531 116.984375 C 233.007812 116.855469 247.175781 119.984375 249.015625 120.542969 C 250.03125 120.851562 250.988281 121.261719 251.144531 121.457031 C 251.296875 121.648438 252.082031 124.265625 252.882812 127.273438 C 253.6875 130.28125 255.128906 135.386719 256.089844 138.621094 C 257.046875 141.859375 258.191406 145.910156 258.628906 147.621094 L 259.425781 150.738281 L 261.878906 150.597656 C 264.765625 150.429688 265.605469 150.699219 266.980469 152.226562 C 268.125 153.492188 268.535156 154.808594 268.539062 157.195312 C 268.539062 160.152344 267.339844 162.222656 264.78125 163.667969 C 263.933594 164.148438 262.859375 164.542969 262.390625 164.542969 C 261.664062 164.542969 261.515625 164.667969 261.367188 165.414062 C 261.152344 166.484375 259.980469 167.0625 258.4375 166.855469 C 257.6875 166.753906 257.332031 166.824219 257.230469 167.097656 C 257.152344 167.3125 257.058594 209.265625 257.015625 260.328125 L 256.945312 353.175781 L 257.976562 353.011719 C 258.542969 352.917969 259.082031 352.96875 259.175781 353.121094 C 259.269531 353.273438 259.339844 357.742188 259.328125 363.050781 C 259.308594 371.691406 259.355469 372.730469 259.761719 372.960938 C 260.390625 373.3125 260.152344 374.199219 259.316406 374.621094 C 258.765625 374.902344 246.414062 374.972656 199.082031 374.980469 C 166.339844 374.980469 139.460938 374.898438 139.359375 374.792969 Z M 257.503906 364.054688 L 257.503906 355.226562 L 199.320312 355.15625 L 141.132812 355.085938 L 141.132812 373.019531 L 199.320312 372.949219 L 257.503906 372.878906 Z M 254.78125 260.023438 L 254.710938 166.925781 L 145.304688 166.925781 L 145.316406 259.777344 C 145.324219 310.847656 145.398438 352.742188 145.480469 352.878906 C 145.570312 353.019531 169.058594 353.125 200.242188 353.125 L 254.851562 353.125 Z M 259.601562 161.179688 L 259.601562 157.257812 L 200.714844 157.328125 L 141.832031 157.398438 L 141.75 161.015625 C 141.691406 163.726562 141.761719 164.695312 142.03125 164.867188 C 142.226562 164.992188 168.761719 165.097656 200.996094 165.097656 L 259.601562 165.097656 L 259.601562 161.175781 Z M 265.609375 161.34375 C 266.660156 159.820312 266.726562 159.609375 266.71875 157.722656 C 266.710938 155.335938 265.988281 153.695312 264.570312 152.828125 C 263.492188 152.171875 259.570312 151.738281 258.484375 152.160156 C 257.722656 152.453125 254.570312 154.964844 254.570312 155.277344 C 254.570312 155.601562 259.816406 155.628906 260.015625 155.308594 C 260.113281 155.148438 260.4375 155.015625 260.734375 155.015625 C 261.246094 155.015625 261.277344 155.242188 261.277344 159.082031 L 261.277344 163.148438 L 262.882812 163.058594 L 264.492188 162.96875 Z M 189.75 153.820312 C 189.75 153.625 190.453125 151.132812 191.308594 148.289062 C 195.320312 134.976562 196.082031 132.125 197 127.015625 C 197.886719 122.050781 197.941406 122.273438 195.304688 119.742188 C 193.207031 117.730469 193.050781 117.5 193.222656 116.714844 C 193.421875 115.804688 197.121094 109.628906 198.109375 108.550781 L 198.710938 107.898438 L 200.359375 109.332031 C 202.480469 111.179688 205.394531 114.472656 205.394531 115.03125 C 205.394531 115.269531 205.105469 115.695312 204.753906 115.976562 C 204.402344 116.253906 203.277344 117.652344 202.257812 119.078125 C 200.574219 121.4375 200.429688 121.746094 200.652344 122.53125 C 201.121094 124.179688 202.035156 130.296875 203.429688 141.144531 C 204.203125 147.15625 204.914062 152.546875 205.011719 153.125 L 205.191406 154.175781 L 197.46875 154.175781 C 191.433594 154.175781 189.75 154.09375 189.75 153.820312 Z M 126.621094 150.082031 C 124.035156 147.613281 123.542969 146.667969 124.9375 146.828125 C 125.773438 146.921875 130.285156 151.320312 130.167969 151.929688 C 129.984375 152.898438 129.070312 152.421875 126.621094 150.082031 Z M 134.210938 148.78125 C 130.59375 145.128906 127.617188 141.507812 125.082031 137.679688 C 122.8125 134.253906 122.480469 133.535156 122.9375 133.082031 C 123.207031 132.8125 123.378906 132.859375 123.753906 133.324219 C 124.015625 133.652344 125.933594 136.046875 128.015625 138.652344 C 130.097656 141.257812 132.492188 144.144531 133.332031 145.066406 C 138.089844 150.300781 138.695312 151.082031 138.335938 151.511719 C 138.144531 151.742188 137.839844 151.933594 137.660156 151.933594 C 137.480469 151.933594 135.925781 150.515625 134.210938 148.78125 Z M 155.941406 151.527344 C 155.941406 150.777344 159.535156 148.445312 161.871094 147.683594 L 163.191406 147.25 L 161.898438 148.398438 C 160.292969 149.824219 159.515625 150.371094 157.835938 151.246094 C 156.316406 152.035156 155.941406 152.09375 155.941406 151.527344 Z M 150.910156 150.0625 C 150.914062 149.125 158.738281 138.96875 160.550781 137.542969 C 162.945312 135.667969 161.636719 137.75 155.75 145.207031 C 152.398438 149.449219 150.90625 150.945312 150.910156 150.0625 Z M 132 132.949219 C 128.652344 128.222656 127.996094 127.117188 126.375 123.46875 C 120.0625 109.257812 115.511719 91.167969 113.585938 72.632812 C 112.59375 63.066406 112.21875 44.984375 113.015625 45.253906 C 113.371094 45.371094 113.808594 50.292969 114.292969 59.65625 C 115.5 83.023438 119.71875 102.527344 127.855469 122.355469 C 130.378906 128.503906 131.21875 130.1875 134.40625 135.46875 C 134.753906 136.046875 134.925781 136.519531 134.785156 136.519531 C 134.644531 136.519531 133.390625 134.910156 132 132.949219 Z M 174.347656 135.46875 C 174.328125 135.355469 174.347656 135.132812 174.382812 134.980469 C 174.867188 132.972656 174.867188 132.847656 174.40625 132.277344 C 174.070312 131.863281 173.503906 131.644531 172.523438 131.550781 C 171.238281 131.425781 171.066406 131.484375 170.5 132.203125 C 170.070312 132.75 169.90625 133.292969 169.964844 133.960938 C 170.070312 135.160156 169.46875 135.464844 169.070312 134.40625 C 168.652344 133.3125 168.621094 129.820312 169.015625 128.675781 C 169.210938 128.105469 169.765625 127.414062 170.332031 127.027344 C 171.152344 126.46875 171.523438 126.386719 172.613281 126.539062 C 173.324219 126.636719 174.476562 127.03125 175.167969 127.421875 C 176.488281 128.160156 176.949219 128.152344 176.324219 127.390625 C 175.027344 125.820312 171.652344 125.3125 169.832031 126.410156 C 168.515625 127.210938 168.234375 127.730469 168.234375 129.382812 C 168.234375 130.464844 168.167969 130.640625 167.851562 130.375 C 167.035156 129.699219 166.769531 127.667969 166.882812 122.996094 C 166.984375 118.664062 167.03125 118.359375 167.726562 117.171875 C 169.34375 114.410156 172.355469 113.441406 175.96875 114.515625 C 177.777344 115.054688 178.792969 115.867188 179.441406 117.296875 C 179.867188 118.238281 179.957031 119.152344 179.964844 122.519531 C 179.972656 127.304688 179.566406 129.125 178.199219 130.460938 L 177.316406 131.328125 L 177.175781 129.949219 C 177.097656 129.191406 176.878906 128.515625 176.6875 128.453125 C 176.339844 128.339844 176.316406 128.578125 176.1875 133.320312 C 176.136719 135.234375 175.933594 135.671875 175.089844 135.671875 C 174.699219 135.671875 174.367188 135.578125 174.347656 135.460938 Z M 174.941406 129.824219 C 174.941406 128.535156 174.886719 128.429688 174.058594 128.140625 C 172.851562 127.71875 171.988281 127.753906 170.996094 128.273438 C 170.347656 128.609375 170.175781 128.863281 170.242188 129.414062 C 170.324219 130.0625 170.453125 130.125 171.917969 130.195312 C 172.816406 130.234375 173.789062 130.460938 174.15625 130.714844 C 174.507812 130.964844 174.832031 131.175781 174.871094 131.183594 C 174.910156 131.183594 174.941406 130.578125 174.941406 129.824219 Z M 223.675781 135.308594 C 223.53125 134.921875 223.417969 133.230469 223.320312 129.84375 C 223.265625 127.921875 222.636719 128.003906 222.441406 129.960938 L 222.300781 131.335938 L 221.417969 130.472656 C 220.050781 129.136719 219.644531 127.3125 219.652344 122.53125 C 219.65625 119.160156 219.75 118.25 220.175781 117.304688 C 220.824219 115.875 221.835938 115.0625 223.648438 114.523438 C 227.261719 113.449219 230.273438 114.417969 231.894531 117.183594 C 232.597656 118.386719 232.636719 118.652344 232.734375 123.238281 C 232.835938 127.789062 232.804688 128.101562 232.191406 129.40625 L 231.542969 130.777344 L 231.457031 129.65625 C 231.304688 127.675781 231.113281 127.289062 229.910156 126.519531 C 228.992188 125.9375 228.402344 125.777344 227.292969 125.796875 C 225.828125 125.828125 223.976562 126.570312 223.289062 127.402344 C 222.667969 128.152344 223.128906 128.160156 224.449219 127.429688 C 225.140625 127.042969 226.289062 126.644531 227.003906 126.546875 C 228.09375 126.394531 228.460938 126.476562 229.28125 127.035156 C 229.851562 127.421875 230.402344 128.113281 230.597656 128.683594 C 230.992188 129.828125 230.960938 133.324219 230.546875 134.417969 C 230.148438 135.472656 229.542969 135.171875 229.648438 133.96875 C 229.707031 133.296875 229.542969 132.757812 229.117188 132.210938 C 228.550781 131.492188 228.375 131.433594 227.09375 131.558594 C 226.113281 131.65625 225.542969 131.871094 225.210938 132.285156 C 224.742188 132.863281 224.746094 133.019531 225.269531 135.128906 C 225.410156 135.703125 223.894531 135.882812 223.675781 135.320312 Z M 227.699219 130.191406 C 229.164062 130.125 229.292969 130.0625 229.371094 129.414062 C 229.527344 128.15625 227.472656 127.472656 225.554688 128.140625 C 224.730469 128.429688 224.675781 128.535156 224.675781 129.828125 L 224.675781 131.210938 L 225.394531 130.738281 C 225.804688 130.46875 226.792969 130.234375 227.699219 130.191406 Z M 135.675781 123.691406 C 135.242188 122.660156 134.171875 120.359375 133.292969 118.585938 C 128.453125 108.816406 123.765625 91.023438 121.738281 74.734375 C 120.761719 66.878906 120.21875 48.816406 120.957031 48.816406 C 121.851562 48.816406 122.195312 50.808594 122.429688 57.359375 C 122.867188 69.609375 123.535156 75.351562 125.941406 87.625 C 127.960938 97.914062 133.320312 116.902344 135.925781 122.992188 C 136.46875 124.257812 136.8125 125.363281 136.6875 125.4375 C 136.5625 125.515625 136.105469 124.730469 135.675781 123.691406 Z M 212.449219 114.054688 C 207.632812 112.867188 206.792969 112.582031 206.792969 112.140625 C 206.792969 111.855469 207.023438 111.546875 207.300781 111.457031 C 207.824219 111.292969 212.511719 112.175781 217.78125 113.441406 L 220.804688 114.164062 L 219.820312 114.835938 C 219.28125 115.203125 218.671875 115.492188 218.472656 115.480469 C 218.273438 115.480469 215.5625 114.828125 212.449219 114.054688 Z M 183.183594 108.527344 C 172.085938 105.578125 170.441406 105.105469 162.367188 102.566406 C 158.910156 101.480469 154.195312 100.027344 151.890625 99.339844 C 149.582031 98.652344 146.660156 97.777344 145.394531 97.402344 C 144.125 97.023438 143.085938 96.589844 143.085938 96.441406 C 143.085938 96.292969 142.921875 96.171875 142.71875 96.171875 C 142.226562 96.171875 141.597656 94.785156 140.863281 92.085938 C 137.085938 78.207031 132.035156 62.964844 124.800781 43.632812 C 123.933594 41.320312 123.117188 39.164062 122.984375 38.839844 C 122.78125 38.347656 122.410156 38.222656 120.703125 38.0625 C 114.007812 37.4375 109.5 35.070312 108.125 31.449219 C 105.992188 25.84375 108.605469 13.910156 112.394531 11.941406 C 112.886719 11.6875 114.175781 11.367188 115.261719 11.230469 C 121.558594 10.441406 127.148438 14.414062 128.277344 20.480469 C 128.625 22.34375 128.648438 26.871094 128.308594 27.078125 C 128.175781 27.164062 127.976562 27.6875 127.871094 28.25 C 127.488281 30.304688 126.261719 34.148438 125.445312 35.863281 C 124.460938 37.9375 124.367188 37.46875 127.089844 44.191406 C 131.304688 54.585938 133.785156 61.660156 139.183594 78.65625 C 141.058594 84.550781 142.808594 91.394531 142.992188 93.542969 L 143.164062 95.535156 L 143.859375 95.175781 C 144.242188 94.976562 144.695312 94.859375 144.867188 94.921875 C 145.042969 94.976562 147.007812 95.546875 149.234375 96.183594 C 151.460938 96.820312 156.742188 98.457031 160.96875 99.820312 C 172.828125 103.648438 187.773438 107.96875 193.476562 109.21875 C 195.382812 109.636719 195.558594 109.765625 195.160156 110.40625 C 194.566406 111.351562 192.699219 111.0625 183.183594 108.527344 Z M 124.027344 34.875 C 125.359375 31.734375 126.675781 26.015625 126.652344 23.453125 C 126.621094 19.867188 124.945312 16.484375 122.328125 14.71875 C 119.953125 13.113281 118.132812 12.597656 115.328125 12.726562 C 112.558594 12.855469 112.4375 12.9375 111.089844 15.523438 C 109.730469 18.128906 109.15625 20.882812 109.148438 24.863281 C 109.140625 28.433594 109.160156 28.550781 110.0625 30.394531 C 111.058594 32.421875 111.984375 33.296875 114.183594 34.292969 C 115.933594 35.082031 120.472656 36.15625 122.167969 36.183594 C 123.449219 36.214844 123.464844 36.183594 124.027344 34.875 Z M 197.292969 106.007812 C 197.292969 104.085938 197.207031 104.015625 194.722656 104.015625 C 188.613281 104.015625 180.363281 101.449219 173.914062 97.542969 C 165.464844 92.425781 160.125 86.429688 157.511719 79.128906 C 155.972656 74.828125 155.800781 73.558594 155.820312 66.609375 C 155.835938 61.039062 155.921875 59.761719 156.464844 57.21875 C 159.378906 43.542969 167.339844 32.421875 176.894531 28.683594 C 177.742188 28.355469 180.820312 27.242188 183.742188 26.214844 L 189.050781 24.351562 L 191.285156 22.210938 C 193.828125 19.78125 195.261719 18.734375 197.851562 17.429688 C 201.277344 15.699219 204.230469 14.988281 204.714844 15.78125 C 204.96875 16.1875 204.511719 16.457031 202.324219 17.183594 C 199.578125 18.09375 196.277344 19.820312 194.351562 21.359375 C 191.546875 23.597656 191.304688 23.460938 197.945312 23.414062 L 203.859375 23.371094 L 205.753906 22.511719 C 208.6875 21.175781 212.035156 20.214844 214.367188 20.039062 C 216.421875 19.882812 217.035156 20.066406 216.625 20.695312 C 216.519531 20.855469 214.671875 21.4375 212.519531 21.984375 C 210.371094 22.53125 208.121094 23.191406 207.519531 23.449219 L 206.433594 23.917969 L 209.324219 24.890625 C 210.917969 25.425781 213.59375 26.578125 215.277344 27.457031 C 227.550781 33.851562 235.074219 43.648438 237.828125 56.824219 C 238.503906 60.050781 238.648438 67.0625 238.105469 70.109375 C 236.714844 77.921875 232.550781 85.96875 226.855469 91.851562 C 223.65625 95.15625 220.796875 97.300781 216.78125 99.402344 C 211.9375 101.941406 204.667969 104.015625 200.625 104.015625 C 199.15625 104.015625 198.96875 104.234375 198.96875 105.945312 C 198.96875 107.085938 198.574219 107.660156 197.796875 107.660156 C 197.367188 107.660156 197.292969 107.410156 197.292969 106.007812 Z M 206.253906 101.097656 C 214.164062 99.445312 221.625 95.359375 226.328125 90.101562 C 228.339844 87.855469 231.421875 83.183594 232.785156 80.328125 C 234.054688 77.660156 235.453125 73.566406 235.71875 71.746094 C 236.078125 69.304688 236.183594 61.816406 235.886719 59.882812 C 234.617188 51.589844 230.988281 44.046875 225.523438 38.339844 C 221.40625 34.042969 217.257812 31.117188 211.3125 28.3125 C 208.773438 27.113281 204.445312 25.832031 202.953125 25.839844 C 202.683594 25.839844 201.28125 26.722656 199.839844 27.800781 C 197.253906 29.734375 196.453125 30.109375 196.453125 29.398438 C 196.453125 29.023438 198.222656 27.226562 199.605469 26.183594 C 200.035156 25.863281 200.269531 25.53125 200.128906 25.445312 C 199.777344 25.222656 191.15625 25.472656 190.359375 25.710938 C 189.96875 25.832031 189.042969 26.921875 188.015625 28.46875 C 186.21875 31.171875 185.328125 32.28125 184.949219 32.28125 C 184.488281 32.28125 184.738281 30.996094 185.410156 29.898438 C 185.789062 29.285156 186.101562 28.683594 186.109375 28.570312 C 186.113281 28.457031 185.382812 28.359375 184.484375 28.359375 C 180.757812 28.359375 175.132812 30.578125 171.355469 33.542969 C 165.605469 38.054688 160.429688 47.191406 158.597656 56.050781 C 157.5625 61.0625 157.429688 68.75 158.300781 73.308594 C 160.007812 82.234375 165.925781 89.847656 175.613281 95.5625 C 181.117188 98.808594 185.996094 100.546875 192.542969 101.585938 C 192.925781 101.648438 195.441406 101.714844 198.132812 101.734375 C 202.308594 101.765625 203.492188 101.667969 206.253906 101.097656 Z M 191.679688 92.933594 C 187.40625 92.160156 183.179688 90.242188 180.589844 87.90625 C 178.105469 85.664062 177.324219 83.007812 178.132812 79.523438 C 178.78125 76.75 180.09375 74.46875 182.34375 72.207031 C 186.453125 68.089844 192.332031 66.234375 198.824219 67 C 201.941406 67.367188 203.90625 68.050781 206.785156 69.773438 C 209.910156 71.644531 211.585938 73.414062 213.125 76.464844 C 214.34375 78.875 214.4375 79.210938 214.453125 81.238281 C 214.464844 83.1875 214.359375 83.652344 213.453125 85.566406 C 212.65625 87.242188 212.117188 87.960938 210.972656 88.867188 C 209.042969 90.398438 205.472656 92.109375 202.75 92.804688 C 200.128906 93.476562 195.003906 93.535156 191.679688 92.933594 Z M 203.859375 90.566406 C 206.429688 89.753906 209.445312 88.160156 210.71875 86.929688 C 211.875 85.816406 212.941406 83.277344 212.941406 81.632812 C 212.941406 77.921875 208.769531 72.515625 204.140625 70.230469 C 199.113281 67.742188 192 67.902344 186.835938 70.617188 C 184.195312 72.003906 182.15625 74.066406 180.972656 76.539062 C 178.507812 81.695312 179.914062 85.371094 185.449219 88.246094 C 187.894531 89.515625 191.519531 90.722656 194.078125 91.113281 C 196.828125 91.539062 201.621094 91.269531 203.859375 90.566406 Z M 200.515625 62.792969 C 199.171875 61.613281 198.554688 59.492188 198.796875 56.882812 L 198.972656 54.972656 L 197.855469 55.148438 C 197 55.285156 196.734375 55.238281 196.738281 54.945312 C 196.746094 54.207031 197.171875 53.910156 200.296875 52.488281 C 202.023438 51.699219 204.820312 50.425781 206.511719 49.65625 C 208.199219 48.886719 209.980469 48.253906 210.472656 48.253906 L 211.367188 48.253906 L 210.597656 49.058594 C 210.175781 49.5 208.824219 50.335938 207.597656 50.914062 C 205.835938 51.742188 205.402344 52.0625 205.550781 52.421875 C 205.9375 53.363281 206.019531 57.945312 205.675781 59.601562 C 205.390625 60.96875 205.105469 61.503906 204.140625 62.476562 C 202.691406 63.929688 201.882812 64 200.515625 62.792969 Z M 185.230469 62.847656 C 184.832031 62.53125 184.226562 61.675781 183.878906 60.941406 C 183.3125 59.730469 183.265625 59.296875 183.386719 56.34375 L 183.519531 53.085938 L 181.605469 52.160156 C 179.277344 51.027344 178.035156 49.847656 178.460938 49.175781 C 179.070312 48.203125 179.570312 48.132812 180.558594 48.878906 C 182.144531 50.074219 184.683594 51.214844 188.414062 52.414062 C 192.617188 53.757812 193.101562 53.992188 193.101562 54.671875 C 193.101562 55.585938 192.351562 55.960938 191.160156 55.640625 L 190.101562 55.359375 L 189.9375 57.53125 C 189.753906 59.914062 188.933594 62.054688 187.960938 62.6875 C 186.855469 63.402344 186 63.453125 185.230469 62.847656 Z M 187.527344 26.523438 C 187.847656 26.132812 187.792969 26.105469 187.074219 26.285156 C 184.964844 26.808594 184.800781 26.910156 186.011719 26.933594 C 186.742188 26.960938 187.300781 26.796875 187.527344 26.523438 Z M 110.617188 38.371094 C 108.097656 37.144531 106.152344 35.308594 106.742188 34.714844 C 107.074219 34.378906 107.777344 34.816406 109.699219 36.546875 C 110.464844 37.242188 111.628906 38.078125 112.28125 38.414062 C 112.933594 38.746094 113.46875 39.140625 113.46875 39.292969 C 113.46875 39.71875 113.222656 39.636719 110.617188 38.371094 Z M 127.597656 10.589844 C 127.003906 8.53125 124.21875 5.480469 121.894531 4.339844 C 120.519531 3.660156 119.992188 3.558594 117.800781 3.566406 C 115.730469 3.566406 114.882812 3.71875 112.996094 4.394531 C 110.792969 5.191406 110.113281 5.226562 110.539062 4.53125 C 110.839844 4.046875 114.003906 2.691406 115.671875 2.332031 C 120.222656 1.355469 124.507812 2.867188 126.488281 6.15625 C 127.589844 7.980469 128.722656 11.496094 128.335938 11.882812 C 128.148438 12.070312 127.902344 11.640625 127.597656 10.589844 Z M 127.597656 10.589844 " fill-opacity="1" fill-rule="nonzero"/></g><g clip-path="url(#9b1de64cd6)"><g clip-path="url(#d770bebb3e)"><path fill="#ffffff" d="M 169.144531 34.007812 L 233.417969 34.007812 L 233.417969 98.28125 L 169.144531 98.28125 Z M 169.144531 34.007812 " fill-opacity="1" fill-rule="nonzero"/></g></g><g clip-path="url(#26687b1954)"><path fill="#0b0b0b" d="M 162.261719 338.25 C 159.46875 337.570312 158.757812 335.863281 160.492188 333.957031 C 161.644531 332.691406 163.109375 332.011719 166.445312 331.214844 C 168.816406 330.648438 169.773438 330.566406 174.59375 330.503906 L 180.058594 330.4375 L 180.386719 327.941406 C 180.570312 326.574219 181.796875 318.792969 183.113281 310.644531 C 186.097656 292.132812 186.964844 286.066406 189.457031 266.230469 C 190.230469 260.105469 191.429688 250.960938 192.132812 245.914062 C 193.957031 232.847656 194.808594 225.769531 195.828125 215.359375 C 196.316406 210.351562 196.890625 205.171875 197.097656 203.847656 C 198.441406 195.367188 199.535156 169.851562 199.476562 148.296875 C 199.441406 132.144531 199.28125 127.675781 198.75 127.398438 C 198.542969 127.289062 197.910156 126.980469 197.351562 126.707031 C 193.835938 124.992188 175.410156 114.199219 167.863281 109.4375 C 159.183594 103.960938 147.738281 95.824219 142.945312 91.71875 C 139.660156 88.910156 137.136719 86.234375 136.402344 84.773438 C 135.613281 83.207031 133.261719 77.15625 129.710938 67.566406 C 127.1875 60.746094 114.167969 22.527344 112.808594 17.945312 L 112.203125 15.898438 L 109.773438 15.921875 C 107.519531 15.949219 107.21875 15.878906 105.648438 15.109375 C 102.789062 13.714844 100.324219 10.515625 99.070312 6.578125 C 98.761719 5.601562 98.242188 4.273438 97.914062 3.621094 C 97.582031 2.964844 97.007812 1.429688 96.632812 0.199219 C 95.996094 -1.902344 95.953125 -2.382812 95.84375 -8.4375 C 95.722656 -15.449219 95.917969 -17.6875 96.9375 -20.660156 C 99.09375 -26.964844 103.898438 -31.78125 110.019531 -33.773438 C 114.144531 -35.113281 109.78125 -35.050781 198.523438 -35.054688 C 287.53125 -35.054688 282.652344 -35.125 286.96875 -33.757812 C 294.300781 -31.441406 299.796875 -24.804688 300.964844 -16.851562 C 301.148438 -15.574219 301.21875 -12.550781 301.144531 -8.4375 C 301.042969 -2.382812 301 -1.902344 300.351562 0.199219 C 299.585938 2.726562 298.777344 4.425781 297.398438 6.453125 C 296.777344 7.367188 296.386719 8.292969 296.265625 9.117188 C 295.765625 12.554688 292.988281 15.785156 288.617188 18.015625 C 287.222656 18.726562 285.589844 19.449219 284.996094 19.625 C 284.398438 19.800781 283.8125 20.066406 283.691406 20.21875 C 283.570312 20.371094 283.007812 21.589844 282.445312 22.925781 C 281.875 24.253906 280.421875 27.503906 279.207031 30.136719 C 276.371094 36.300781 271.433594 47.375 269.558594 51.753906 C 268.761719 53.628906 266.585938 58.585938 264.726562 62.761719 C 259.875 73.652344 258.722656 76.449219 258.902344 76.910156 C 258.996094 77.15625 258.78125 77.675781 258.375 78.207031 C 256.945312 80.078125 244.015625 90.90625 231.945312 100.347656 C 220.046875 109.652344 206.453125 121.113281 202.742188 124.980469 C 200.96875 126.820312 200.769531 127.128906 200.886719 127.800781 C 200.964844 128.222656 201.097656 134.886719 201.191406 142.605469 C 201.414062 161.054688 200.945312 177.484375 199.75 193.351562 L 199.230469 200.183594 L 201.121094 206.765625 C 203.746094 215.902344 207.828125 232.539062 215.40625 264.972656 C 216.992188 271.792969 219.382812 281.824219 220.71875 287.265625 C 224.355469 302.15625 227.972656 318.800781 229.492188 327.621094 C 229.902344 330.007812 230.289062 332.011719 230.351562 332.078125 C 230.421875 332.140625 231.371094 332.011719 232.472656 331.785156 C 233.574219 331.554688 235.851562 331.304688 237.53125 331.222656 C 243.828125 330.925781 248.578125 332.40625 248.578125 334.660156 C 248.578125 336.996094 244.800781 338.238281 237.683594 338.238281 C 234.097656 338.238281 232.210938 337.871094 230.214844 336.789062 C 228.835938 336.039062 228.375 335.421875 228.59375 334.605469 C 228.671875 334.308594 227.875 329.851562 226.824219 324.699219 C 223.324219 307.609375 221.992188 301.671875 217.941406 285.089844 C 216.640625 279.734375 214.746094 271.816406 213.753906 267.503906 C 212.753906 263.183594 211.023438 255.730469 209.902344 250.925781 C 208.78125 246.125 206.617188 236.832031 205.101562 230.269531 C 201.730469 215.757812 200.824219 212.121094 199.066406 206.128906 L 198.65625 204.738281 L 198.460938 205.875 C 198.351562 206.507812 197.921875 210.605469 197.503906 214.988281 C 196.554688 224.945312 195.796875 231.355469 194.023438 244.21875 C 193.257812 249.785156 192.058594 258.953125 191.363281 264.589844 C 188.851562 284.769531 187.738281 292.589844 184.632812 311.917969 C 182.273438 326.621094 181.714844 330.398438 181.714844 331.714844 C 181.714844 333.097656 180.894531 334.132812 178.964844 335.160156 C 174.960938 337.28125 170.164062 338.503906 165.953125 338.464844 C 164.34375 338.4375 162.6875 338.355469 162.261719 338.257812 Z M 170.785156 336.3125 C 173.199219 335.84375 177.3125 334.429688 178.824219 333.546875 C 179.898438 332.917969 179.957031 332.835938 179.578125 332.457031 C 178.898438 331.777344 170.492188 331.898438 166.96875 332.632812 C 160.65625 333.949219 159.453125 336.191406 164.789062 336.6875 C 166.914062 336.894531 168.203125 336.808594 170.785156 336.3125 Z M 244.511719 336.214844 C 246.207031 335.8125 247.085938 335.417969 246.984375 335.101562 C 246.820312 334.605469 245.226562 333.679688 243.761719 333.238281 C 242.050781 332.714844 235.085938 332.640625 232.707031 333.117188 C 231.125 333.4375 229.765625 333.941406 229.765625 334.214844 C 229.765625 334.496094 232.730469 335.945312 234.117188 336.335938 C 235.679688 336.769531 242.492188 336.695312 244.511719 336.214844 Z M 198.902344 120.394531 C 198.726562 115.527344 198.148438 106.09375 197.832031 102.960938 L 197.679688 101.402344 L 194.5625 101.378906 C 187.242188 101.339844 180.394531 99.390625 173.914062 95.496094 C 166.230469 90.875 161.371094 85.460938 158.992188 78.867188 C 157.601562 75.007812 157.4375 73.8125 157.441406 67.683594 C 157.441406 62.695312 157.519531 61.625 158.042969 59.078125 C 160.234375 48.503906 166.335938 38.964844 173.582031 34.800781 C 175.507812 33.6875 176.402344 33.335938 182.859375 31.074219 C 185.597656 30.117188 188.070312 29.097656 188.578125 28.707031 C 191.683594 26.339844 196.664062 24.132812 203.835938 21.96875 C 208.503906 20.558594 209.933594 20.394531 209.933594 21.277344 C 209.933594 21.722656 209.476562 21.910156 205.921875 22.886719 C 201.824219 24.015625 196.667969 25.804688 194.304688 26.925781 C 190.792969 28.585938 190.792969 28.585938 195.632812 28.542969 C 197.972656 28.523438 200.507812 28.605469 201.261719 28.726562 C 202.464844 28.914062 202.980469 28.839844 205.480469 28.082031 C 208.523438 27.167969 213.804688 26.082031 216.605469 25.789062 C 218.246094 25.621094 218.328125 25.640625 218.328125 26.15625 C 218.328125 26.886719 217.867188 27.042969 213.117188 27.945312 C 210.875 28.371094 208.25 28.921875 207.285156 29.164062 L 205.519531 29.621094 L 207.15625 30.203125 C 209.410156 31.011719 213.964844 33.378906 216.191406 34.910156 C 224.691406 40.734375 229.917969 48.566406 232.078125 58.722656 C 232.699219 61.632812 232.828125 67.941406 232.328125 70.71875 C 231.453125 75.5625 229.308594 80.710938 226.28125 85.253906 C 224.25 88.300781 220.371094 92.355469 217.574219 94.359375 C 213.242188 97.46875 206.980469 100.082031 201.824219 100.945312 C 200.503906 101.164062 199.390625 101.378906 199.34375 101.429688 C 199.300781 101.472656 199.425781 103.4375 199.628906 105.792969 C 199.964844 109.683594 200.1875 113.117188 200.671875 121.96875 L 200.84375 125.003906 L 201.515625 124.140625 C 203.179688 121.988281 219.707031 108.042969 231.820312 98.5625 C 239.40625 92.632812 251.828125 82.46875 255.636719 79.09375 C 256.863281 78 257.222656 77.519531 257.222656 76.972656 C 257.222656 75.914062 258.601562 72.445312 262.582031 63.492188 C 264.554688 59.042969 267.246094 52.929688 268.566406 49.894531 C 271.199219 43.855469 274.277344 37.113281 276.921875 31.621094 C 279.105469 27.082031 281.882812 20.9375 281.882812 20.652344 C 281.882812 20.527344 281.089844 20.425781 280.117188 20.417969 C 278.011719 20.394531 276.828125 20.054688 276.035156 19.222656 C 275.523438 18.675781 275.472656 18.429688 275.59375 17.082031 L 275.734375 15.558594 L 194.71875 15.488281 C 150.164062 15.453125 113.675781 15.4375 113.636719 15.453125 C 113.601562 15.46875 113.980469 16.546875 114.484375 17.855469 C 117.226562 24.984375 120.28125 33.613281 125.523438 49.082031 C 128.941406 59.15625 136.960938 81.148438 138.695312 85.195312 C 138.972656 85.84375 144.273438 90.410156 148.15625 93.34375 C 158.175781 100.917969 170.105469 108.734375 183.367188 116.398438 C 185.746094 117.769531 190.199219 120.359375 193.273438 122.140625 C 196.339844 123.929688 198.902344 125.390625 198.964844 125.390625 C 199.023438 125.390625 198.996094 123.136719 198.902344 120.390625 Z M 203.34375 98.714844 C 210.542969 97.222656 217.328125 93.53125 221.609375 88.785156 C 223.4375 86.757812 226.246094 82.539062 227.480469 79.957031 C 228.640625 77.546875 229.910156 73.855469 230.15625 72.207031 C 230.480469 70.007812 230.574219 63.238281 230.308594 61.488281 C 229.980469 59.367188 228.777344 54.921875 228.023438 53.074219 C 224.425781 44.234375 217.582031 37.421875 207.71875 32.863281 C 205.171875 31.683594 202.121094 30.851562 201.21875 31.085938 C 200.914062 31.167969 200.496094 31.0625 200.261719 30.851562 C 199.953125 30.578125 198.871094 30.445312 196.054688 30.324219 C 192.183594 30.167969 188.070312 30.5625 185.113281 31.371094 L 183.878906 31.710938 L 185.023438 31.734375 C 185.648438 31.761719 186.332031 31.867188 186.542969 32 C 187.332031 32.496094 186.308594 32.855469 183.5625 33.042969 C 174.875 33.636719 167.878906 39.050781 163.15625 48.835938 C 160.808594 53.691406 159.757812 57.734375 159.316406 63.597656 C 158.765625 70.828125 159.6875 76.039062 162.390625 81.027344 C 165.515625 86.800781 171.234375 91.820312 178.917969 95.535156 C 184.65625 98.3125 188.945312 99.257812 195.953125 99.292969 C 199.730469 99.320312 200.84375 99.230469 203.34375 98.710938 Z M 179.03125 79.484375 C 176.476562 79.074219 173.769531 78.1875 173.21875 77.589844 C 172.789062 77.109375 172.910156 76.296875 173.414062 76.296875 C 173.574219 76.296875 174.289062 76.519531 174.996094 76.785156 C 179.847656 78.621094 190.566406 78.792969 199.382812 77.167969 C 204.980469 76.140625 211.386719 74.113281 213.773438 72.609375 C 215.292969 71.65625 216.023438 72.058594 215.039062 73.308594 C 213.640625 75.078125 206.207031 77.664062 198.371094 79.121094 C 194.777344 79.78125 182.335938 80.019531 179.03125 79.484375 Z M 184.085938 63.484375 C 182.902344 62.714844 181.828125 61.191406 181.425781 59.726562 C 180.808594 57.453125 181.714844 53.898438 183.207031 52.730469 C 184.277344 51.898438 185.398438 52.097656 186.617188 53.351562 C 187.207031 53.957031 187.972656 55.007812 188.3125 55.695312 C 189.585938 58.234375 189.167969 61.839844 187.425781 63.363281 C 186.3125 64.335938 185.460938 64.367188 184.085938 63.476562 Z M 200.835938 62.847656 C 200.332031 62.710938 199.800781 62.289062 199.488281 61.796875 C 199.039062 61.089844 198.992188 60.667969 199.085938 58.578125 C 199.273438 54.320312 200.503906 52 202.546875 52 C 204.601562 52 205.855469 53.925781 205.859375 57.085938 C 205.867188 58.144531 205.738281 59.398438 205.574219 59.871094 C 205.144531 61.152344 204.125 62.386719 203.171875 62.785156 C 202.214844 63.183594 202.007812 63.1875 200.835938 62.847656 Z M 175.609375 50.632812 C 175.609375 49.089844 182.871094 46.539062 186.691406 46.734375 C 188.035156 46.804688 188.191406 46.867188 188.117188 47.320312 C 187.976562 48.136719 187.71875 48.25 185.484375 48.480469 C 183 48.730469 180.109375 49.4375 177.835938 50.34375 C 175.972656 51.085938 175.609375 51.128906 175.609375 50.632812 Z M 209.554688 47.804688 C 208.714844 47.621094 206.613281 47.328125 204.886719 47.148438 C 201.597656 46.816406 200.9375 46.5 201.949219 45.738281 C 202.335938 45.445312 202.996094 45.398438 205.234375 45.523438 C 209.410156 45.753906 211.710938 46.269531 212.402344 47.117188 C 212.710938 47.496094 212.914062 47.855469 212.855469 47.910156 C 212.601562 48.164062 210.972656 48.113281 209.554688 47.804688 Z M 283.234375 18.152344 C 283.894531 17.527344 284 17.496094 284.246094 17.871094 C 284.488281 18.242188 284.628906 18.246094 285.5 17.945312 C 289.359375 16.585938 293.304688 13.53125 294.199219 11.207031 C 295.089844 8.890625 294.351562 7.875 291.445312 7.429688 C 288.757812 7.011719 286.144531 7.800781 282.453125 10.15625 C 280.441406 11.425781 278.910156 12.9375 277.914062 14.625 C 276.214844 17.515625 277.101562 18.84375 280.722656 18.84375 C 282.304688 18.84375 282.570312 18.777344 283.234375 18.152344 Z M 112.5625 14.105469 C 113.351562 13.707031 113.460938 13.53125 113.53125 12.546875 C 113.738281 9.714844 109.445312 4.363281 105.300781 2.273438 C 104.015625 1.625 102.347656 1.410156 100.308594 1.625 C 99.183594 1.742188 99.601562 4.5625 101.238281 7.871094 C 102.917969 11.25 104.921875 13.296875 107.453125 14.199219 C 108.8125 14.683594 111.5 14.632812 112.5625 14.097656 Z M 277.265625 13.292969 C 277.707031 12.742188 278.066406 12.257812 278.066406 12.222656 C 278.066406 12.175781 241.449219 12.144531 196.6875 12.152344 L 115.300781 12.175781 L 114.984375 13.101562 C 114.707031 13.910156 114.71875 14.035156 115.074219 14.128906 C 115.300781 14.191406 151.707031 14.253906 195.972656 14.273438 L 276.460938 14.300781 L 277.265625 13.304688 Z M 281.078125 9.613281 C 283.671875 7.761719 288.585938 5.683594 290.378906 5.683594 C 291.078125 5.683594 291.394531 5.515625 291.882812 4.867188 C 293.292969 2.996094 294.414062 -0.046875 294.816406 -3.113281 C 295.160156 -5.664062 295.179688 -13.761719 294.847656 -16.203125 C 294.292969 -20.328125 292.832031 -23.628906 290.527344 -25.964844 C 288.902344 -27.605469 287.398438 -28.539062 284.996094 -29.382812 L 283.28125 -29.988281 L 113.707031 -29.988281 L 111.992188 -29.382812 C 106.324219 -27.394531 103.0625 -23.027344 102.144531 -16.203125 C 101.808594 -13.710938 101.835938 -5.699219 102.1875 -3.003906 C 102.5 -0.644531 102.898438 -0.109375 104.675781 0.34375 C 106.027344 0.691406 108.25 2.007812 109.878906 3.429688 C 111.324219 4.683594 113.613281 7.644531 114.320312 9.171875 L 114.941406 10.496094 L 279.851562 10.496094 Z M 113.359375 6.617188 C 113.152344 6.363281 113.574219 4.808594 115.09375 0.292969 L 117.097656 -5.695312 L 112.140625 -9.28125 C 109.40625 -11.253906 107.117188 -13.023438 107.046875 -13.210938 C 106.691406 -14.125 107.34375 -14.246094 113.703125 -14.433594 L 119.90625 -14.621094 L 120.824219 -17.5625 C 123.46875 -26.046875 123.574219 -26.328125 124.226562 -26.328125 C 124.796875 -26.328125 124.960938 -25.949219 126.695312 -20.636719 C 127.710938 -17.5 128.65625 -14.769531 128.78125 -14.558594 C 128.976562 -14.246094 130.070312 -14.15625 135.214844 -14.054688 C 141.191406 -13.929688 141.421875 -13.90625 141.488281 -13.414062 C 141.546875 -13.035156 141.039062 -12.527344 139.460938 -11.359375 C 138.300781 -10.515625 136.019531 -8.84375 134.386719 -7.644531 L 131.417969 -5.472656 L 133.316406 0.03125 C 134.359375 3.058594 135.175781 5.765625 135.140625 6.050781 C 134.972656 7.171875 134.0625 6.722656 129.230469 3.179688 L 124.410156 -0.355469 L 123.253906 0.484375 C 118.023438 4.285156 114.1875 6.949219 113.941406 6.949219 C 113.777344 6.949219 113.519531 6.800781 113.359375 6.617188 Z M 120.34375 0.601562 C 123.941406 -1.964844 124.417969 -2.242188 124.835938 -1.996094 C 125.003906 -1.902344 126.820312 -0.585938 128.871094 0.925781 C 130.914062 2.429688 132.652344 3.664062 132.734375 3.664062 C 132.824219 3.664062 132.199219 1.667969 131.355469 -0.769531 C 130.507812 -3.210938 129.851562 -5.460938 129.894531 -5.769531 C 129.953125 -6.167969 131.25 -7.28125 134.144531 -9.433594 L 138.308594 -12.53125 L 133.335938 -12.53125 C 130.605469 -12.53125 128.1875 -12.601562 127.972656 -12.683594 C 127.726562 -12.777344 126.996094 -14.605469 126.03125 -17.558594 C 125.183594 -20.152344 124.421875 -22.449219 124.347656 -22.65625 C 124.273438 -22.867188 123.550781 -20.894531 122.742188 -18.269531 C 121.929688 -15.648438 121.140625 -13.382812 120.988281 -13.226562 C 120.8125 -13.054688 118.738281 -12.898438 115.453125 -12.804688 L 110.195312 -12.664062 L 114.371094 -9.617188 C 117.320312 -7.464844 118.558594 -6.40625 118.621094 -6.003906 C 118.679688 -5.566406 116.78125 0.621094 115.65625 3.652344 C 115.511719 4.046875 115.511719 4.046875 120.34375 0.601562 Z M 150.445312 6.578125 C 150.195312 6.269531 150.492188 5.167969 152.066406 0.609375 C 153.136719 -2.464844 154.003906 -5.171875 153.996094 -5.402344 C 153.988281 -5.636719 153.710938 -6.027344 153.375 -6.273438 C 146.277344 -11.40625 144.28125 -12.917969 144.164062 -13.207031 C 143.8125 -14.125 144.449219 -14.246094 150.808594 -14.433594 L 157.007812 -14.621094 L 157.773438 -17.058594 C 158.191406 -18.402344 158.960938 -20.917969 159.480469 -22.65625 C 160.523438 -26.144531 160.71875 -26.511719 161.449219 -26.40625 C 161.851562 -26.339844 162.28125 -25.265625 163.871094 -20.378906 C 164.933594 -17.109375 165.925781 -14.351562 166.070312 -14.246094 C 166.21875 -14.144531 169.042969 -14.0625 172.359375 -14.054688 C 176.128906 -14.054688 178.4375 -13.957031 178.539062 -13.796875 C 178.832031 -13.324219 178.40625 -12.664062 177.324219 -11.910156 C 176.738281 -11.492188 174.511719 -9.875 172.378906 -8.308594 L 168.507812 -5.453125 L 170.417969 0.0546875 C 171.46875 3.085938 172.296875 5.785156 172.25 6.070312 C 172.101562 7.140625 171.171875 6.71875 166.96875 3.644531 C 164.660156 1.964844 162.484375 0.375 162.128906 0.117188 L 161.484375 -0.339844 L 156.417969 3.304688 C 153.628906 5.3125 151.21875 6.949219 151.054688 6.949219 C 150.894531 6.949219 150.617188 6.78125 150.445312 6.578125 Z M 157.816406 0.324219 C 160.964844 -1.929688 161.535156 -2.242188 161.953125 -1.992188 C 162.125 -1.890625 163.941406 -0.574219 165.988281 0.929688 C 168.03125 2.433594 169.765625 3.664062 169.839844 3.664062 C 169.917969 3.664062 169.304688 1.71875 168.476562 -0.65625 C 167.648438 -3.03125 166.96875 -5.277344 166.96875 -5.664062 C 166.96875 -6.261719 167.515625 -6.746094 171.125 -9.378906 L 175.289062 -12.40625 L 170.101562 -12.539062 C 165.863281 -12.640625 164.875 -12.726562 164.679688 -13.042969 C 164.546875 -13.25 163.738281 -15.585938 162.878906 -18.230469 C 162.011719 -20.875 161.246094 -22.871094 161.175781 -22.664062 C 161.097656 -22.457031 160.441406 -20.316406 159.707031 -17.898438 C 158.980469 -15.480469 158.253906 -13.375 158.101562 -13.226562 C 157.929688 -13.054688 155.804688 -12.898438 152.546875 -12.808594 L 147.265625 -12.664062 L 151.460938 -9.625 C 154.761719 -7.230469 155.671875 -6.441406 155.730469 -5.945312 C 155.773438 -5.59375 155.117188 -3.308594 154.269531 -0.863281 C 153.425781 1.578125 152.730469 3.664062 152.730469 3.765625 C 152.730469 3.871094 153.273438 3.570312 153.9375 3.089844 C 154.601562 2.617188 156.347656 1.371094 157.816406 0.320312 Z M 187.84375 6.605469 C 187.585938 6.296875 187.890625 5.167969 189.558594 0.289062 L 191.59375 -5.644531 L 186.628906 -9.265625 C 183.898438 -11.253906 181.605469 -13.035156 181.53125 -13.21875 C 181.183594 -14.125 181.839844 -14.246094 188.199219 -14.433594 L 194.402344 -14.621094 L 195.15625 -17.058594 C 195.566406 -18.402344 196.339844 -20.917969 196.863281 -22.65625 C 197.933594 -26.171875 198.105469 -26.511719 198.8125 -26.40625 C 199.210938 -26.339844 199.660156 -25.234375 201.25 -20.378906 C 202.316406 -17.109375 203.3125 -14.351562 203.449219 -14.246094 C 203.589844 -14.144531 206.417969 -14.054688 209.730469 -14.054688 C 213.5 -14.054688 215.808594 -13.957031 215.910156 -13.796875 C 216.226562 -13.289062 215.734375 -12.640625 214.191406 -11.523438 C 213.316406 -10.902344 211.097656 -9.28125 209.25 -7.929688 L 205.890625 -5.46875 L 207.796875 0.0351562 C 208.847656 3.066406 209.667969 5.773438 209.628906 6.054688 C 209.472656 7.164062 208.546875 6.71875 203.714844 3.179688 L 198.890625 -0.347656 L 197.738281 0.484375 C 190.761719 5.507812 188.917969 6.792969 188.570312 6.882812 C 188.34375 6.9375 188.023438 6.816406 187.84375 6.605469 Z M 194.808594 0.609375 C 198.382812 -1.945312 198.90625 -2.25 199.324219 -1.992188 C 199.496094 -1.890625 201.3125 -0.574219 203.363281 0.929688 C 205.40625 2.433594 207.136719 3.664062 207.214844 3.664062 C 207.285156 3.664062 206.652344 1.640625 205.796875 -0.832031 C 204.691406 -4.03125 204.296875 -5.503906 204.425781 -5.953125 C 204.542969 -6.394531 205.855469 -7.496094 208.628906 -9.496094 L 212.660156 -12.40625 L 207.503906 -12.539062 C 204.671875 -12.609375 202.273438 -12.734375 202.183594 -12.828125 C 202.097656 -12.917969 201.300781 -15.171875 200.414062 -17.839844 C 199.527344 -20.511719 198.757812 -22.738281 198.699219 -22.796875 C 198.640625 -22.847656 197.976562 -20.839844 197.21875 -18.324219 C 196.464844 -15.808594 195.714844 -13.570312 195.550781 -13.351562 C 195.308594 -13.015625 194.378906 -12.929688 189.976562 -12.808594 L 184.6875 -12.664062 L 188.863281 -9.625 C 192.082031 -7.269531 193.042969 -6.4375 193.101562 -5.953125 C 193.144531 -5.605469 192.488281 -3.292969 191.640625 -0.8125 C 190.796875 1.667969 190.101562 3.75 190.101562 3.820312 C 190.101562 3.960938 190.394531 3.765625 194.808594 0.609375 Z M 225.183594 6.574219 C 224.925781 6.25 225.210938 5.199219 226.8125 0.558594 C 227.875 -2.539062 228.746094 -5.242188 228.746094 -5.449219 C 228.738281 -5.664062 226.558594 -7.40625 223.894531 -9.339844 C 221.226562 -11.273438 218.984375 -13.011719 218.910156 -13.207031 C 218.554688 -14.125 219.195312 -14.246094 225.558594 -14.433594 C 230.964844 -14.597656 231.769531 -14.671875 231.871094 -15.03125 C 232.828125 -18.371094 235.242188 -25.902344 235.4375 -26.152344 C 235.578125 -26.328125 235.914062 -26.441406 236.183594 -26.40625 C 236.582031 -26.339844 237.027344 -25.226562 238.601562 -20.378906 C 239.664062 -17.109375 240.582031 -14.378906 240.636719 -14.308594 C 240.695312 -14.238281 243.5625 -14.125 247.007812 -14.054688 C 253.070312 -13.929688 253.285156 -13.910156 253.285156 -13.421875 C 253.285156 -13.0625 252.074219 -12.023438 249.089844 -9.8125 C 246.78125 -8.097656 244.527344 -6.417969 244.078125 -6.070312 L 243.265625 -5.441406 L 245.175781 0.144531 C 246.222656 3.214844 247.046875 5.917969 247.003906 6.152344 C 246.820312 7.121094 245.832031 6.65625 241.714844 3.644531 C 239.40625 1.964844 237.230469 0.375 236.882812 0.117188 L 236.234375 -0.339844 L 231.15625 3.304688 C 228.367188 5.308594 225.949219 6.949219 225.792969 6.949219 C 225.632812 6.949219 225.363281 6.78125 225.183594 6.574219 Z M 232.179688 0.585938 C 233.859375 -0.605469 235.496094 -1.714844 235.8125 -1.882812 C 236.449219 -2.21875 236.273438 -2.324219 241.96875 1.855469 C 243.296875 2.824219 244.414062 3.539062 244.453125 3.429688 C 244.492188 3.328125 243.851562 1.257812 243.03125 -1.167969 C 242.195312 -3.621094 241.605469 -5.769531 241.6875 -6.015625 C 241.777344 -6.261719 243.71875 -7.820312 246.003906 -9.496094 L 250.160156 -12.53125 L 245.066406 -12.53125 C 240.898438 -12.53125 239.90625 -12.601562 239.59375 -12.910156 C 239.386719 -13.117188 238.507812 -15.480469 237.632812 -18.160156 C 236.761719 -20.84375 235.988281 -22.867188 235.917969 -22.65625 C 235.84375 -22.449219 235.171875 -20.296875 234.433594 -17.871094 C 233.691406 -15.449219 232.972656 -13.34375 232.832031 -13.207031 C 232.679688 -13.0625 230.300781 -12.886719 227.292969 -12.804688 L 222.007812 -12.664062 L 226.210938 -9.617188 C 229.488281 -7.230469 230.417969 -6.429688 230.480469 -5.933594 C 230.515625 -5.582031 229.859375 -3.3125 229.019531 -0.890625 C 228.171875 1.535156 227.476562 3.625 227.476562 3.746094 C 227.476562 3.871094 227.847656 3.703125 228.304688 3.359375 C 228.757812 3.019531 230.503906 1.773438 232.179688 0.585938 Z M 262.308594 6.574219 C 262.050781 6.265625 262.347656 5.175781 263.9375 0.566406 C 265.003906 -2.53125 265.871094 -5.242188 265.867188 -5.449219 C 265.859375 -5.789062 261.589844 -9.074219 258.90625 -10.808594 C 258.332031 -11.183594 257.402344 -11.890625 256.84375 -12.375 C 255.984375 -13.117188 255.871094 -13.332031 256.105469 -13.714844 C 256.359375 -14.132812 257.003906 -14.199219 262.652344 -14.402344 L 268.914062 -14.628906 L 269.136719 -15.417969 C 270.191406 -19.132812 272.34375 -25.886719 272.550781 -26.152344 C 272.695312 -26.328125 273.039062 -26.449219 273.3125 -26.40625 C 273.714844 -26.339844 274.144531 -25.265625 275.734375 -20.378906 C 276.796875 -17.109375 277.789062 -14.351562 277.933594 -14.246094 C 278.082031 -14.144531 280.90625 -14.0625 284.222656 -14.054688 C 287.992188 -14.054688 290.300781 -13.957031 290.402344 -13.796875 C 290.695312 -13.324219 290.269531 -12.664062 289.1875 -11.910156 C 288.601562 -11.5 286.367188 -9.882812 284.242188 -8.3125 L 280.363281 -5.460938 L 282.28125 0.0507812 C 283.332031 3.078125 284.160156 5.785156 284.113281 6.070312 C 283.964844 7.140625 283.035156 6.71875 278.832031 3.644531 C 276.523438 1.964844 274.347656 0.375 273.992188 0.117188 L 273.347656 -0.339844 L 268.28125 3.304688 C 265.492188 5.3125 263.082031 6.949219 262.917969 6.949219 C 262.757812 6.949219 262.480469 6.78125 262.308594 6.574219 Z M 296.570312 5.308594 C 297.753906 3.507812 298.847656 0.519531 299.320312 -2.207031 C 299.949219 -5.832031 299.71875 -16.421875 298.949219 -19.238281 C 297.960938 -22.859375 296.570312 -25.269531 293.96875 -27.847656 C 291.503906 -30.296875 289.71875 -31.480469 287.074219 -32.4375 C 283.101562 -33.871094 288.214844 -33.789062 198.496094 -33.789062 C 107.75 -33.789062 113.769531 -33.898438 109.558594 -32.273438 C 103.316406 -29.875 98.90625 -24.359375 97.691406 -17.429688 C 97.234375 -14.816406 97.152344 -5.367188 97.566406 -2.785156 C 97.929688 -0.472656 98.355469 1.167969 98.550781 1.074219 C 98.632812 1.039062 99.234375 0.621094 99.878906 0.15625 L 101.054688 -0.695312 L 100.777344 -1.738281 C 100.613281 -2.375 100.5 -5.5625 100.492188 -9.75 C 100.488281 -15.726562 100.554688 -16.960938 100.957031 -18.484375 C 101.605469 -20.933594 103.136719 -24.011719 104.613281 -25.820312 C 106.085938 -27.632812 108.964844 -29.753906 110.980469 -30.515625 C 114.257812 -31.746094 110.957031 -31.707031 199.257812 -31.664062 L 282.269531 -31.625 L 284.363281 -31.039062 C 290.105469 -29.425781 294.304688 -24.910156 296.027344 -18.484375 C 296.4375 -16.960938 296.5 -15.742188 296.5 -9.75 C 296.5 -3.742188 296.4375 -2.550781 296.027344 -1.023438 C 295.46875 1.042969 294.425781 3.449219 293.484375 4.828125 C 292.648438 6.050781 292.648438 6.1875 293.515625 6.195312 C 293.902344 6.199219 294.386719 6.3125 294.597656 6.445312 C 295.25 6.875 295.710938 6.609375 296.570312 5.300781 Z M 290.277344 25.105469 C 290.277344 24.921875 291.058594 24.132812 292.023438 23.355469 C 293.3125 22.300781 293.957031 21.554688 294.476562 20.496094 C 295.050781 19.324219 295.230469 19.136719 295.425781 19.476562 C 295.96875 20.445312 294.671875 22.484375 292.375 24.28125 C 290.882812 25.445312 290.277344 25.683594 290.277344 25.105469 Z M 103.839844 21.734375 C 101.328125 20.457031 98.527344 18.039062 99.011719 17.5625 C 99.347656 17.21875 99.875 17.472656 101.71875 18.871094 C 102.441406 19.417969 103.921875 20.324219 105.015625 20.890625 C 106.433594 21.628906 106.976562 22.042969 106.921875 22.347656 C 106.78125 23.046875 106.179688 22.925781 103.839844 21.734375 Z M 287.222656 22.65625 C 287.222656 22.515625 288.050781 21.796875 289.066406 21.050781 C 291.144531 19.511719 293.324219 17.289062 293.324219 16.71875 C 293.324219 16.382812 294.039062 15.808594 294.449219 15.808594 C 294.933594 15.808594 294.464844 17.320312 293.660156 18.371094 C 291.757812 20.855469 287.222656 23.871094 287.222656 22.65625 Z M 104.300781 19.078125 C 102.296875 18.46875 99.550781 15.527344 99.492188 13.941406 C 99.460938 12.855469 99.886719 12.804688 100.441406 13.828125 C 101.765625 16.21875 105.078125 18.5 107.652344 18.789062 C 108.253906 18.859375 108.75 19.015625 108.75 19.136719 C 108.75 19.417969 105.289062 19.375 104.300781 19.078125 Z M 104.300781 19.078125 " fill-opacity="1" fill-rule="nonzero"/></g><g clip-path="url(#b4e1bd6182)"><path fill="#cdb695" d="M 145.582031 167.203125 L 255.234375 167.203125 L 255.234375 353.101562 L 145.582031 353.101562 Z M 145.582031 167.203125 " fill-opacity="1" fill-rule="nonzero"/></g></svg>