<svg xmlns="http://www.w3.org/2000/svg" xmlns:xlink="http://www.w3.org/1999/xlink" width="700" zoomAndPan="magnify" viewBox="0 0 525 374.999991" height="500" preserveAspectRatio="xMidYMid meet" version="1.0"><defs><clipPath id="e141aa15ac"><path d="M 78.59375 3.59375 L 446.40625 3.59375 L 446.40625 371.40625 L 78.59375 371.40625 Z M 78.59375 3.59375 " clip-rule="nonzero"/></clipPath><clipPath id="123fbd50e0"><path d="M 262.5 3.59375 C 160.929688 3.59375 78.59375 85.929688 78.59375 187.5 C 78.59375 289.070312 160.929688 371.40625 262.5 371.40625 C 364.070312 371.40625 446.40625 289.070312 446.40625 187.5 C 446.40625 85.929688 364.070312 3.59375 262.5 3.59375 Z M 262.5 3.59375 " clip-rule="nonzero"/></clipPath><clipPath id="aca685b3d8"><path d="M 221 74 L 379 74 L 379 231 L 221 231 Z M 221 74 " clip-rule="nonzero"/></clipPath><clipPath id="32d2d286ff"><path d="M 406.980469 127.175781 L 202.273438 331.882812 L 117.953125 247.558594 L 322.660156 42.851562 Z M 406.980469 127.175781 " clip-rule="nonzero"/></clipPath><clipPath id="503f3c354b"><path d="M 322.824219 43.019531 L 118.117188 247.726562 L 202.441406 332.046875 L 407.148438 127.339844 Z M 322.824219 43.019531 " clip-rule="nonzero"/></clipPath><clipPath id="bfecbbbc76"><path d="M 341 86 L 400 86 L 400 145 L 341 145 Z M 341 86 " clip-rule="nonzero"/></clipPath><clipPath id="1080a1549f"><path d="M 406.980469 127.175781 L 202.273438 331.882812 L 117.953125 247.558594 L 322.660156 42.851562 Z M 406.980469 127.175781 " clip-rule="nonzero"/></clipPath><clipPath id="e29dbcce4f"><path d="M 322.824219 43.019531 L 118.117188 247.726562 L 202.441406 332.046875 L 407.148438 127.339844 Z M 322.824219 43.019531 " clip-rule="nonzero"/></clipPath><clipPath id="bec23a054e"><path d="M 305 122 L 364 122 L 364 181 L 305 181 Z M 305 122 " clip-rule="nonzero"/></clipPath><clipPath id="5e2a0d3b18"><path d="M 406.980469 127.175781 L 202.273438 331.882812 L 117.953125 247.558594 L 322.660156 42.851562 Z M 406.980469 127.175781 " clip-rule="nonzero"/></clipPath><clipPath id="6e28c989bd"><path d="M 322.824219 43.019531 L 118.117188 247.726562 L 202.441406 332.046875 L 407.148438 127.339844 Z M 322.824219 43.019531 " clip-rule="nonzero"/></clipPath><clipPath id="2fa306efc2"><path d="M 142 188 L 262 188 L 262 308 L 142 308 Z M 142 188 " clip-rule="nonzero"/></clipPath><clipPath id="ea425a8024"><path d="M 406.980469 127.175781 L 202.273438 331.882812 L 117.953125 247.558594 L 322.660156 42.851562 Z M 406.980469 127.175781 " clip-rule="nonzero"/></clipPath><clipPath id="f069d9be6b"><path d="M 322.824219 43.019531 L 118.117188 247.726562 L 202.441406 332.046875 L 407.148438 127.339844 Z M 322.824219 43.019531 " clip-rule="nonzero"/></clipPath></defs><rect x="-52.5" width="630" fill="#ffffff" y="-37.499999" height="449.999989" fill-opacity="1"/><rect x="-52.5" width="630" fill="#ffffff" y="-37.499999" height="449.999989" fill-opacity="1"/><g clip-path="url(#e141aa15ac)"><g clip-path="url(#123fbd50e0)"><path fill="#dff8d1" d="M 78.59375 3.59375 L 446.40625 3.59375 L 446.40625 371.40625 L 78.59375 371.40625 Z M 78.59375 3.59375 " fill-opacity="1" fill-rule="nonzero"/></g></g><g clip-path="url(#aca685b3d8)"><g clip-path="url(#32d2d286ff)"><g clip-path="url(#503f3c354b)"><path fill="#268108" d="M 353.976562 74.597656 L 221.730469 206.84375 L 245.777344 230.886719 L 378.023438 98.640625 Z M 353.976562 74.597656 " fill-opacity="1" fill-rule="evenodd"/></g></g></g><g clip-path="url(#bfecbbbc76)"><g clip-path="url(#1080a1549f)"><g clip-path="url(#e29dbcce4f)"><path fill="#268108" d="M 366 86.617188 L 341.953125 110.664062 L 375.511719 144.21875 L 399.554688 120.175781 Z M 366 86.617188 " fill-opacity="1" fill-rule="evenodd"/></g></g></g><g clip-path="url(#bec23a054e)"><g clip-path="url(#5e2a0d3b18)"><g clip-path="url(#6e28c989bd)"><path fill="#268108" d="M 329.933594 122.6875 L 305.886719 146.730469 L 339.441406 180.285156 L 363.488281 156.242188 Z M 329.933594 122.6875 " fill-opacity="1" fill-rule="evenodd"/></g></g></g><g clip-path="url(#2fa306efc2)"><g clip-path="url(#ea425a8024)"><g clip-path="url(#f069d9be6b)"><path fill="#268108" d="M 184.253906 229.476562 C 194.210938 219.515625 210.359375 219.515625 220.320312 229.476562 C 230.277344 239.433594 230.277344 255.582031 220.320312 265.542969 C 210.359375 275.503906 194.210938 275.503906 184.253906 265.542969 C 174.292969 255.582031 174.292969 239.433594 184.253906 229.476562 Z M 244.363281 205.429688 C 221.125 182.191406 183.445312 182.191406 160.207031 205.429688 C 136.96875 228.671875 136.96875 266.347656 160.207031 289.589844 C 183.445312 312.828125 221.125 312.828125 244.363281 289.589844 C 267.601562 266.347656 267.601562 228.671875 244.363281 205.429688 Z M 244.363281 205.429688 " fill-opacity="1" fill-rule="evenodd"/></g></g></g></svg>