<svg xmlns="http://www.w3.org/2000/svg" xmlns:xlink="http://www.w3.org/1999/xlink" width="250" zoomAndPan="magnify" viewBox="0 0 187.5 187.499992" height="250" preserveAspectRatio="xMidYMid meet" version="1.0"><defs><filter x="0%" y="0%" width="100%" height="100%" id="c219121f6a"><feColorMatrix values="0 0 0 0 1 0 0 0 0 1 0 0 0 0 1 0 0 0 1 0" color-interpolation-filters="sRGB"/></filter><clipPath id="1b53468efb"><path d="M 168 106 L 181 106 L 181 118.847656 L 168 118.847656 Z M 168 106 " clip-rule="nonzero"/></clipPath><clipPath id="f35122d3d6"><path d="M 131 88 L 186.785156 88 L 186.785156 113 L 131 113 Z M 131 88 " clip-rule="nonzero"/></clipPath><mask id="1c15c671f6"><g filter="url(#c219121f6a)"><rect x="-18.75" width="225" fill="#000000" y="-18.749999" height="224.99999" fill-opacity="0.1"/></g></mask><clipPath id="b79a71e35f"><path d="M 1 0.277344 L 9.460938 0.277344 L 9.460938 6.980469 L 1 6.980469 Z M 1 0.277344 " clip-rule="nonzero"/></clipPath><clipPath id="4b7a360d82"><rect x="0" width="10" y="0" height="7"/></clipPath><mask id="9ed64f5d00"><g filter="url(#c219121f6a)"><rect x="-18.75" width="225" fill="#000000" y="-18.749999" height="224.99999" fill-opacity="0.1"/></g></mask><clipPath id="9ec475bc93"><path d="M 1 0.277344 L 9 0.277344 L 9 6.980469 L 1 6.980469 Z M 1 0.277344 " clip-rule="nonzero"/></clipPath><clipPath id="0a752bf7f8"><rect x="0" width="10" y="0" height="7"/></clipPath><clipPath id="f0d7c723ae"><path d="M 157 88 L 186.785156 88 L 186.785156 113 L 157 113 Z M 157 88 " clip-rule="nonzero"/></clipPath><mask id="c453dfff9f"><g filter="url(#c219121f6a)"><rect x="-18.75" width="225" fill="#000000" y="-18.749999" height="224.99999" fill-opacity="0.1"/></g></mask><clipPath id="9deed5d98b"><path d="M 0.0195312 0.0859375 L 29.460938 0.0859375 L 29.460938 24.980469 L 0.0195312 24.980469 Z M 0.0195312 0.0859375 " clip-rule="nonzero"/></clipPath><clipPath id="c849bbda81"><rect x="0" width="30" y="0" height="25"/></clipPath><clipPath id="037cac8792"><path d="M 130.683594 87 L 186.785156 87 L 186.785156 114 L 130.683594 114 Z M 130.683594 87 " clip-rule="nonzero"/></clipPath><clipPath id="4bb97bba4f"><path d="M 130.683594 102 L 135 102 L 135 110 L 130.683594 110 Z M 130.683594 102 " clip-rule="nonzero"/></clipPath><clipPath id="0790d0314f"><path d="M 183 104 L 186.785156 104 L 186.785156 110 L 183 110 Z M 183 104 " clip-rule="nonzero"/></clipPath><clipPath id="90dc49fe79"><path d="M 182 103 L 186.785156 103 L 186.785156 110 L 182 110 Z M 182 103 " clip-rule="nonzero"/></clipPath><clipPath id="313525e16c"><path d="M 137 106 L 149 106 L 149 118.847656 L 137 118.847656 Z M 137 106 " clip-rule="nonzero"/></clipPath><clipPath id="5656ea8cc9"><path d="M 136 106 L 150 106 L 150 118.847656 L 136 118.847656 Z M 136 106 " clip-rule="nonzero"/></clipPath><clipPath id="dc2617fb8f"><path d="M 130.683594 117 L 134 117 L 134 118.847656 L 130.683594 118.847656 Z M 130.683594 117 " clip-rule="nonzero"/></clipPath><clipPath id="c1788fa39d"><path d="M 134 117 L 183 117 L 183 118.847656 L 134 118.847656 Z M 134 117 " clip-rule="nonzero"/></clipPath><clipPath id="2f1744c2fb"><path d="M 184 117 L 186.785156 117 L 186.785156 118.847656 L 184 118.847656 Z M 184 117 " clip-rule="nonzero"/></clipPath><mask id="e1e06cab41"><g filter="url(#c219121f6a)"><rect x="-18.75" width="225" fill="#000000" y="-18.749999" height="224.99999" fill-opacity="0.1"/></g></mask><clipPath id="cb469d42bf"><path d="M 0.292969 0.21875 L 13 0.21875 L 13 20.804688 L 0.292969 20.804688 Z M 0.292969 0.21875 " clip-rule="nonzero"/></clipPath><clipPath id="aee0be960c"><rect x="0" width="14" y="0" height="21"/></clipPath><clipPath id="c0fc287558"><path d="M 143 67.980469 L 159 67.980469 L 159 89 L 143 89 Z M 143 67.980469 " clip-rule="nonzero"/></clipPath></defs><g clip-path="url(#1b53468efb)"><path fill="#656d78" d="M 180.390625 112.613281 C 180.390625 112.988281 180.351562 113.363281 180.277344 113.734375 C 180.207031 114.105469 180.097656 114.464844 179.953125 114.8125 C 179.808594 115.164062 179.628906 115.496094 179.417969 115.808594 C 179.210938 116.121094 178.972656 116.414062 178.703125 116.679688 C 178.4375 116.949219 178.144531 117.1875 177.832031 117.394531 C 177.519531 117.605469 177.1875 117.785156 176.835938 117.929688 C 176.488281 118.074219 176.128906 118.183594 175.757812 118.253906 C 175.386719 118.328125 175.011719 118.367188 174.636719 118.367188 C 174.257812 118.367188 173.882812 118.328125 173.511719 118.253906 C 173.140625 118.183594 172.78125 118.074219 172.433594 117.929688 C 172.085938 117.785156 171.753906 117.605469 171.4375 117.394531 C 171.125 117.1875 170.832031 116.949219 170.566406 116.679688 C 170.300781 116.414062 170.0625 116.121094 169.851562 115.808594 C 169.640625 115.496094 169.464844 115.164062 169.320312 114.8125 C 169.175781 114.464844 169.066406 114.105469 168.992188 113.734375 C 168.917969 113.363281 168.882812 112.988281 168.882812 112.613281 C 168.882812 112.234375 168.917969 111.859375 168.992188 111.488281 C 169.066406 111.117188 169.175781 110.757812 169.320312 110.410156 C 169.464844 110.0625 169.640625 109.730469 169.851562 109.414062 C 170.0625 109.101562 170.300781 108.808594 170.566406 108.542969 C 170.832031 108.277344 171.125 108.039062 171.4375 107.828125 C 171.753906 107.617188 172.085938 107.441406 172.433594 107.296875 C 172.78125 107.152344 173.140625 107.042969 173.511719 106.96875 C 173.882812 106.894531 174.257812 106.859375 174.636719 106.859375 C 175.011719 106.859375 175.386719 106.894531 175.757812 106.96875 C 176.128906 107.042969 176.488281 107.152344 176.835938 107.296875 C 177.1875 107.441406 177.519531 107.617188 177.832031 107.828125 C 178.144531 108.039062 178.4375 108.277344 178.703125 108.542969 C 178.972656 108.808594 179.210938 109.101562 179.417969 109.414062 C 179.628906 109.730469 179.808594 110.0625 179.953125 110.410156 C 180.097656 110.757812 180.207031 111.117188 180.277344 111.488281 C 180.351562 111.859375 180.390625 112.234375 180.390625 112.613281 Z M 180.390625 112.613281 " fill-opacity="1" fill-rule="nonzero"/><path fill="#000000" d="M 174.636719 118.953125 C 174.21875 118.953125 173.804688 118.914062 173.394531 118.832031 C 172.988281 118.75 172.589844 118.628906 172.207031 118.472656 C 171.820312 118.3125 171.453125 118.117188 171.105469 117.886719 C 170.761719 117.652344 170.4375 117.390625 170.144531 117.097656 C 169.847656 116.800781 169.585938 116.480469 169.355469 116.136719 C 169.121094 115.789062 168.925781 115.421875 168.765625 115.039062 C 168.605469 114.652344 168.488281 114.253906 168.40625 113.847656 C 168.324219 113.4375 168.28125 113.023438 168.28125 112.609375 C 168.28125 112.191406 168.324219 111.777344 168.40625 111.371094 C 168.484375 110.960938 168.605469 110.5625 168.765625 110.179688 C 168.925781 109.792969 169.121094 109.425781 169.351562 109.082031 C 169.582031 108.734375 169.847656 108.414062 170.140625 108.117188 C 170.4375 107.824219 170.757812 107.558594 171.105469 107.328125 C 171.449219 107.097656 171.816406 106.902344 172.203125 106.742188 C 172.585938 106.582031 172.984375 106.460938 173.394531 106.382812 C 173.800781 106.300781 174.214844 106.257812 174.632812 106.257812 C 175.046875 106.257812 175.460938 106.300781 175.871094 106.382812 C 176.277344 106.464844 176.675781 106.582031 177.0625 106.742188 C 177.445312 106.902344 177.8125 107.097656 178.160156 107.332031 C 178.503906 107.5625 178.824219 107.824219 179.121094 108.121094 C 179.414062 108.417969 179.675781 108.738281 179.910156 109.082031 C 180.140625 109.429688 180.335938 109.796875 180.496094 110.183594 C 180.652344 110.566406 180.773438 110.964844 180.855469 111.375 C 180.9375 111.78125 180.976562 112.195312 180.976562 112.613281 C 180.976562 113.027344 180.933594 113.441406 180.851562 113.847656 C 180.773438 114.257812 180.652344 114.652344 180.492188 115.039062 C 180.332031 115.421875 180.136719 115.789062 179.90625 116.132812 C 179.675781 116.480469 179.410156 116.800781 179.117188 117.09375 C 178.824219 117.386719 178.503906 117.652344 178.15625 117.882812 C 177.8125 118.113281 177.445312 118.308594 177.0625 118.46875 C 176.675781 118.628906 176.28125 118.75 175.871094 118.828125 C 175.464844 118.910156 175.050781 118.953125 174.636719 118.953125 Z M 174.636719 107.4375 C 174.296875 107.4375 173.957031 107.472656 173.625 107.535156 C 173.292969 107.601562 172.96875 107.699219 172.65625 107.832031 C 172.339844 107.960938 172.042969 108.117188 171.757812 108.308594 C 171.476562 108.496094 171.214844 108.710938 170.972656 108.949219 C 170.734375 109.191406 170.519531 109.453125 170.332031 109.734375 C 170.140625 110.015625 169.980469 110.3125 169.851562 110.628906 C 169.722656 110.941406 169.621094 111.265625 169.554688 111.597656 C 169.488281 111.933594 169.457031 112.269531 169.457031 112.609375 C 169.457031 112.949219 169.488281 113.285156 169.554688 113.617188 C 169.621094 113.949219 169.71875 114.273438 169.847656 114.589844 C 169.976562 114.902344 170.136719 115.199219 170.324219 115.484375 C 170.515625 115.765625 170.730469 116.027344 170.96875 116.269531 C 171.210938 116.507812 171.46875 116.722656 171.753906 116.914062 C 172.035156 117.101562 172.332031 117.261719 172.648438 117.390625 C 172.960938 117.519531 173.285156 117.621094 173.617188 117.6875 C 173.949219 117.753906 174.289062 117.785156 174.628906 117.785156 C 174.96875 117.785156 175.304688 117.753906 175.636719 117.6875 C 175.96875 117.621094 176.292969 117.523438 176.609375 117.390625 C 176.921875 117.261719 177.21875 117.101562 177.503906 116.914062 C 177.785156 116.726562 178.046875 116.511719 178.285156 116.269531 C 178.527344 116.03125 178.742188 115.769531 178.929688 115.488281 C 179.121094 115.203125 179.277344 114.90625 179.410156 114.59375 C 179.539062 114.277344 179.636719 113.953125 179.703125 113.621094 C 179.769531 113.289062 179.804688 112.953125 179.804688 112.613281 C 179.800781 112.273438 179.769531 111.9375 179.703125 111.605469 C 179.636719 111.269531 179.539062 110.949219 179.40625 110.632812 C 179.277344 110.320312 179.117188 110.023438 178.929688 109.742188 C 178.742188 109.457031 178.527344 109.199219 178.289062 108.957031 C 178.046875 108.71875 177.789062 108.503906 177.503906 108.3125 C 177.222656 108.125 176.925781 107.964844 176.613281 107.835938 C 176.300781 107.707031 175.976562 107.605469 175.644531 107.539062 C 175.3125 107.472656 174.972656 107.4375 174.636719 107.4375 Z M 174.636719 107.4375 " fill-opacity="1" fill-rule="nonzero"/></g><g clip-path="url(#f35122d3d6)"><path fill="#a2d66d" d="M 186.40625 106.289062 L 186.40625 111.398438 C 186.40625 111.558594 186.375 111.714844 186.316406 111.863281 C 186.253906 112.011719 186.164062 112.140625 186.050781 112.257812 C 185.9375 112.371094 185.808594 112.457031 185.65625 112.519531 C 185.507812 112.582031 185.355469 112.613281 185.195312 112.613281 L 180.390625 112.613281 C 180.390625 112.234375 180.351562 111.859375 180.277344 111.488281 C 180.207031 111.117188 180.097656 110.757812 179.953125 110.410156 C 179.808594 110.0625 179.628906 109.730469 179.417969 109.414062 C 179.210938 109.101562 178.972656 108.808594 178.703125 108.542969 C 178.4375 108.277344 178.144531 108.039062 177.832031 107.828125 C 177.519531 107.617188 177.1875 107.441406 176.835938 107.296875 C 176.488281 107.152344 176.128906 107.042969 175.757812 106.96875 C 175.386719 106.894531 175.011719 106.859375 174.636719 106.859375 C 174.257812 106.859375 173.882812 106.894531 173.511719 106.96875 C 173.140625 107.042969 172.78125 107.152344 172.433594 107.296875 C 172.085938 107.441406 171.753906 107.617188 171.4375 107.828125 C 171.125 108.039062 170.832031 108.277344 170.566406 108.542969 C 170.300781 108.808594 170.0625 109.101562 169.851562 109.414062 C 169.640625 109.730469 169.464844 110.0625 169.320312 110.410156 C 169.175781 110.757812 169.066406 111.117188 168.992188 111.488281 C 168.917969 111.859375 168.882812 112.234375 168.882812 112.613281 L 148.796875 112.613281 C 148.796875 112.234375 148.761719 111.859375 148.6875 111.488281 C 148.613281 111.117188 148.503906 110.757812 148.359375 110.410156 C 148.214844 110.058594 148.039062 109.726562 147.828125 109.414062 C 147.617188 109.101562 147.378906 108.808594 147.113281 108.542969 C 146.84375 108.273438 146.554688 108.035156 146.238281 107.824219 C 145.925781 107.617188 145.59375 107.4375 145.246094 107.292969 C 144.894531 107.148438 144.535156 107.039062 144.164062 106.964844 C 143.792969 106.894531 143.421875 106.855469 143.042969 106.855469 C 142.664062 106.855469 142.289062 106.894531 141.917969 106.964844 C 141.550781 107.039062 141.1875 107.148438 140.839844 107.292969 C 140.492188 107.4375 140.160156 107.617188 139.84375 107.824219 C 139.53125 108.035156 139.238281 108.273438 138.972656 108.542969 C 138.707031 108.808594 138.46875 109.101562 138.257812 109.414062 C 138.046875 109.726562 137.871094 110.058594 137.726562 110.410156 C 137.582031 110.757812 137.472656 111.117188 137.398438 111.488281 C 137.324219 111.859375 137.289062 112.234375 137.289062 112.613281 L 133.089844 112.613281 C 132.847656 112.613281 132.617188 112.566406 132.394531 112.472656 C 132.167969 112.382812 131.972656 112.25 131.800781 112.078125 C 131.632812 111.910156 131.5 111.710938 131.410156 111.488281 C 131.316406 111.265625 131.269531 111.035156 131.269531 110.792969 L 131.269531 100.992188 C 131.269531 100.59375 131.351562 100.214844 131.523438 99.855469 L 135.675781 90.792969 C 135.84375 90.421875 136.0625 90.085938 136.328125 89.78125 C 136.59375 89.472656 136.898438 89.210938 137.242188 88.992188 C 137.582031 88.773438 137.949219 88.605469 138.335938 88.492188 C 138.726562 88.378906 139.125 88.320312 139.527344 88.320312 L 161.015625 88.320312 C 162.019531 88.320312 162.910156 88.636719 163.691406 89.273438 L 175.261719 98.710938 L 181.851562 100.421875 C 182.5 100.59375 183.101562 100.863281 183.660156 101.234375 C 184.21875 101.605469 184.707031 102.054688 185.117188 102.585938 C 185.523438 103.113281 185.839844 103.695312 186.054688 104.332031 C 186.273438 104.964844 186.382812 105.617188 186.382812 106.289062 Z M 186.40625 106.289062 " fill-opacity="1" fill-rule="nonzero"/></g><g mask="url(#1c15c671f6)"><g transform="matrix(1, 0, 0, 1, 132, 106)"><g clip-path="url(#4b7a360d82)"><g clip-path="url(#b79a71e35f)"><path fill="#000000" d="M 7.375 0.851562 C 8.003906 0.851562 8.617188 0.949219 9.210938 1.152344 C 8.640625 1.34375 8.109375 1.617188 7.625 1.976562 C 7.140625 2.332031 6.71875 2.757812 6.367188 3.246094 C 6.015625 3.738281 5.746094 4.269531 5.5625 4.84375 C 5.378906 5.417969 5.289062 6.007812 5.289062 6.613281 L 1.617188 6.613281 C 1.617188 6.234375 1.652344 5.859375 1.726562 5.488281 C 1.796875 5.117188 1.90625 4.753906 2.050781 4.40625 C 2.195312 4.054688 2.375 3.722656 2.582031 3.410156 C 2.792969 3.09375 3.03125 2.804688 3.300781 2.535156 C 3.566406 2.269531 3.859375 2.027344 4.171875 1.820312 C 4.488281 1.609375 4.820312 1.429688 5.171875 1.289062 C 5.519531 1.144531 5.878906 1.035156 6.25 0.960938 C 6.625 0.886719 7 0.851562 7.375 0.851562 Z M 7.375 0.851562 " fill-opacity="1" fill-rule="nonzero"/></g></g></g></g><g mask="url(#9ed64f5d00)"><g transform="matrix(1, 0, 0, 1, 164, 106)"><g clip-path="url(#0a752bf7f8)"><g clip-path="url(#9ec475bc93)"><path fill="#000000" d="M 6.96875 0.851562 C 7.59375 0.851562 8.207031 0.949219 8.800781 1.152344 C 8.226562 1.34375 7.699219 1.617188 7.214844 1.976562 C 6.730469 2.335938 6.308594 2.757812 5.957031 3.25 C 5.605469 3.738281 5.339844 4.269531 5.15625 4.847656 C 4.972656 5.421875 4.878906 6.007812 4.882812 6.613281 L 1.214844 6.613281 C 1.214844 6.234375 1.25 5.859375 1.324219 5.488281 C 1.398438 5.117188 1.503906 4.757812 1.648438 4.40625 C 1.792969 4.058594 1.972656 3.726562 2.179688 3.410156 C 2.390625 3.097656 2.628906 2.804688 2.898438 2.539062 C 3.164062 2.269531 3.453125 2.03125 3.769531 1.820312 C 4.082031 1.609375 4.414062 1.433594 4.765625 1.289062 C 5.113281 1.144531 5.472656 1.035156 5.84375 0.960938 C 6.214844 0.886719 6.589844 0.851562 6.96875 0.851562 Z M 6.96875 0.851562 " fill-opacity="1" fill-rule="nonzero"/></g></g></g></g><g clip-path="url(#f0d7c723ae)"><g mask="url(#c453dfff9f)"><g transform="matrix(1, 0, 0, 1, 157, 88)"><g clip-path="url(#c849bbda81)"><g clip-path="url(#9deed5d98b)"><path fill="#000000" d="M 29.40625 18.289062 L 29.40625 23.398438 C 29.40625 23.558594 29.375 23.714844 29.316406 23.863281 C 29.253906 24.011719 29.164062 24.140625 29.050781 24.257812 C 28.9375 24.371094 28.808594 24.457031 28.65625 24.519531 C 28.507812 24.582031 28.355469 24.613281 28.195312 24.613281 L 24.535156 24.613281 C 24.695312 24.609375 24.847656 24.578125 24.996094 24.519531 C 25.144531 24.457031 25.273438 24.367188 25.386719 24.253906 C 25.5 24.140625 25.589844 24.007812 25.648438 23.859375 C 25.710938 23.710938 25.742188 23.558594 25.742188 23.398438 L 25.742188 18.289062 C 25.742188 17.648438 25.644531 17.023438 25.441406 16.417969 C 25.125 15.433594 24.585938 14.582031 23.832031 13.875 C 23.078125 13.164062 22.199219 12.679688 21.195312 12.421875 L 14.625 10.710938 L 3.011719 1.273438 C 2.230469 0.636719 1.339844 0.320312 0.332031 0.320312 L 3.996094 0.320312 C 5.003906 0.320312 5.894531 0.636719 6.671875 1.273438 L 18.261719 10.710938 L 24.851562 12.421875 C 25.5 12.59375 26.101562 12.863281 26.660156 13.234375 C 27.21875 13.605469 27.707031 14.054688 28.117188 14.585938 C 28.523438 15.113281 28.839844 15.695312 29.054688 16.332031 C 29.273438 16.964844 29.382812 17.617188 29.382812 18.289062 Z M 29.40625 18.289062 " fill-opacity="1" fill-rule="nonzero"/></g></g></g></g></g><g clip-path="url(#037cac8792)"><path fill="#000000" d="M 185.195312 113.199219 L 180.390625 113.199219 C 180.226562 113.199219 180.089844 113.140625 179.976562 113.027344 C 179.859375 112.914062 179.804688 112.773438 179.804688 112.613281 C 179.804688 112.273438 179.769531 111.9375 179.703125 111.605469 C 179.636719 111.269531 179.539062 110.949219 179.410156 110.632812 C 179.28125 110.320312 179.121094 110.023438 178.933594 109.742188 C 178.742188 109.457031 178.527344 109.199219 178.289062 108.957031 C 178.050781 108.71875 177.789062 108.503906 177.507812 108.316406 C 177.222656 108.125 176.925781 107.96875 176.613281 107.835938 C 176.300781 107.707031 175.976562 107.609375 175.644531 107.542969 C 175.3125 107.476562 174.972656 107.445312 174.636719 107.445312 C 174.296875 107.445312 173.960938 107.476562 173.628906 107.542969 C 173.292969 107.609375 172.972656 107.707031 172.65625 107.835938 C 172.34375 107.96875 172.046875 108.125 171.765625 108.316406 C 171.480469 108.503906 171.222656 108.71875 170.980469 108.957031 C 170.742188 109.199219 170.527344 109.457031 170.339844 109.742188 C 170.148438 110.023438 169.992188 110.320312 169.859375 110.632812 C 169.730469 110.949219 169.632812 111.269531 169.566406 111.605469 C 169.5 111.9375 169.46875 112.273438 169.46875 112.613281 C 169.46875 112.773438 169.410156 112.914062 169.296875 113.027344 C 169.179688 113.140625 169.042969 113.199219 168.882812 113.199219 L 148.796875 113.199219 C 148.636719 113.199219 148.496094 113.140625 148.382812 113.027344 C 148.265625 112.914062 148.210938 112.773438 148.210938 112.613281 C 148.210938 112.273438 148.175781 111.9375 148.109375 111.605469 C 148.042969 111.269531 147.945312 110.949219 147.816406 110.632812 C 147.6875 110.320312 147.527344 110.023438 147.339844 109.742188 C 147.152344 109.457031 146.9375 109.199219 146.695312 108.957031 C 146.457031 108.71875 146.195312 108.503906 145.914062 108.316406 C 145.632812 108.125 145.332031 107.96875 145.019531 107.835938 C 144.707031 107.707031 144.382812 107.609375 144.050781 107.542969 C 143.71875 107.476562 143.382812 107.445312 143.042969 107.445312 C 142.703125 107.445312 142.367188 107.476562 142.035156 107.542969 C 141.703125 107.609375 141.378906 107.707031 141.066406 107.835938 C 140.75 107.96875 140.453125 108.125 140.171875 108.316406 C 139.890625 108.503906 139.628906 108.71875 139.386719 108.957031 C 139.148438 109.199219 138.933594 109.457031 138.746094 109.742188 C 138.558594 110.023438 138.398438 110.320312 138.269531 110.632812 C 138.136719 110.949219 138.039062 111.269531 137.972656 111.605469 C 137.90625 111.9375 137.875 112.273438 137.875 112.613281 C 137.875 112.773438 137.816406 112.914062 137.703125 113.027344 C 137.589844 113.140625 137.449219 113.199219 137.289062 113.199219 L 133.089844 113.199219 C 132.769531 113.199219 132.464844 113.136719 132.167969 113.015625 C 131.875 112.890625 131.613281 112.71875 131.390625 112.492188 C 131.164062 112.265625 130.992188 112.007812 130.867188 111.714844 C 130.746094 111.417969 130.683594 111.113281 130.683594 110.792969 L 130.683594 100.992188 C 130.683594 100.503906 130.785156 100.042969 130.996094 99.601562 L 135.140625 90.535156 C 135.335938 90.113281 135.582031 89.730469 135.886719 89.382812 C 136.191406 89.035156 136.535156 88.738281 136.925781 88.488281 C 137.3125 88.238281 137.730469 88.050781 138.171875 87.917969 C 138.613281 87.789062 139.066406 87.722656 139.527344 87.722656 L 161.015625 87.722656 C 162.160156 87.722656 163.175781 88.082031 164.066406 88.804688 L 175.5625 98.1875 L 182.015625 99.871094 C 183.113281 100.152344 184.074219 100.683594 184.902344 101.460938 C 185.726562 102.238281 186.3125 103.167969 186.660156 104.246094 C 186.875 104.914062 186.980469 105.597656 186.984375 106.300781 L 186.984375 111.410156 C 186.980469 111.644531 186.933594 111.875 186.839844 112.089844 C 186.75 112.308594 186.621094 112.503906 186.453125 112.667969 C 186.285156 112.835938 186.09375 112.964844 185.875 113.058594 C 185.65625 113.148438 185.429688 113.195312 185.195312 113.199219 Z M 180.953125 112.027344 L 185.195312 112.027344 C 185.367188 112.027344 185.515625 111.964844 185.636719 111.839844 C 185.761719 111.71875 185.820312 111.570312 185.820312 111.398438 L 185.820312 106.289062 C 185.824219 105.710938 185.734375 105.148438 185.550781 104.597656 C 185.265625 103.707031 184.78125 102.941406 184.101562 102.300781 C 183.417969 101.660156 182.621094 101.222656 181.714844 100.992188 L 175.140625 99.277344 C 175.058594 99.257812 174.984375 99.222656 174.917969 99.167969 L 163.320312 89.722656 C 162.648438 89.179688 161.878906 88.90625 161.015625 88.910156 L 139.527344 88.910156 C 138.816406 88.910156 138.15625 89.101562 137.558594 89.488281 C 136.957031 89.871094 136.507812 90.390625 136.210938 91.039062 L 132.054688 100.101562 C 131.921875 100.382812 131.855469 100.679688 131.855469 100.992188 L 131.855469 110.792969 C 131.855469 110.957031 131.886719 111.113281 131.949219 111.265625 C 132.011719 111.414062 132.101562 111.550781 132.21875 111.664062 C 132.332031 111.78125 132.464844 111.867188 132.617188 111.929688 C 132.769531 111.996094 132.925781 112.027344 133.089844 112.027344 L 136.726562 112.027344 C 136.761719 111.636719 136.835938 111.253906 136.945312 110.878906 C 137.050781 110.503906 137.195312 110.140625 137.371094 109.789062 C 137.542969 109.441406 137.75 109.109375 137.988281 108.796875 C 138.222656 108.488281 138.484375 108.199219 138.777344 107.9375 C 139.066406 107.671875 139.375 107.441406 139.710938 107.234375 C 140.042969 107.027344 140.390625 106.855469 140.753906 106.714844 C 141.121094 106.574219 141.496094 106.46875 141.878906 106.394531 C 142.265625 106.324219 142.652344 106.289062 143.042969 106.289062 C 143.433594 106.289062 143.820312 106.324219 144.207031 106.394531 C 144.589844 106.46875 144.964844 106.574219 145.328125 106.714844 C 145.695312 106.855469 146.042969 107.027344 146.375 107.234375 C 146.707031 107.441406 147.019531 107.671875 147.308594 107.9375 C 147.597656 108.199219 147.863281 108.488281 148.097656 108.796875 C 148.335938 109.109375 148.539062 109.441406 148.714844 109.789062 C 148.890625 110.140625 149.03125 110.503906 149.140625 110.878906 C 149.25 111.253906 149.324219 111.636719 149.359375 112.027344 L 168.316406 112.027344 C 168.355469 111.636719 168.429688 111.253906 168.535156 110.878906 C 168.644531 110.503906 168.785156 110.140625 168.960938 109.789062 C 169.136719 109.441406 169.34375 109.109375 169.578125 108.796875 C 169.816406 108.488281 170.078125 108.199219 170.367188 107.9375 C 170.65625 107.671875 170.96875 107.441406 171.300781 107.234375 C 171.632812 107.027344 171.984375 106.855469 172.347656 106.714844 C 172.714844 106.574219 173.085938 106.46875 173.472656 106.394531 C 173.855469 106.324219 174.246094 106.289062 174.636719 106.289062 C 175.027344 106.289062 175.414062 106.324219 175.796875 106.394531 C 176.183594 106.46875 176.558594 106.574219 176.921875 106.714844 C 177.289062 106.855469 177.636719 107.027344 177.96875 107.234375 C 178.300781 107.441406 178.613281 107.671875 178.902344 107.9375 C 179.191406 108.199219 179.453125 108.488281 179.691406 108.796875 C 179.925781 109.109375 180.132812 109.441406 180.308594 109.789062 C 180.484375 110.140625 180.625 110.503906 180.734375 110.878906 C 180.84375 111.253906 180.914062 111.636719 180.953125 112.027344 Z M 180.953125 112.027344 " fill-opacity="1" fill-rule="nonzero"/></g><path fill="#65a225" d="M 134.0625 103.765625 L 134.0625 107.542969 C 134.0625 107.679688 134.039062 107.8125 133.984375 107.9375 C 133.933594 108.066406 133.859375 108.175781 133.761719 108.273438 C 133.664062 108.367188 133.550781 108.441406 133.425781 108.492188 C 133.296875 108.542969 133.167969 108.566406 133.03125 108.566406 L 131.269531 108.566406 L 131.269531 102.746094 L 133.03125 102.746094 C 133.167969 102.746094 133.296875 102.769531 133.425781 102.820312 C 133.550781 102.871094 133.664062 102.945312 133.757812 103.039062 C 133.855469 103.136719 133.929688 103.246094 133.984375 103.375 C 134.035156 103.5 134.0625 103.628906 134.0625 103.765625 Z M 134.0625 103.765625 " fill-opacity="1" fill-rule="nonzero"/><g clip-path="url(#4bb97bba4f)"><path fill="#000000" d="M 133.03125 109.152344 L 131.269531 109.152344 C 131.109375 109.152344 130.96875 109.09375 130.855469 108.980469 C 130.742188 108.863281 130.683594 108.726562 130.683594 108.566406 L 130.683594 102.746094 C 130.683594 102.582031 130.742188 102.445312 130.855469 102.332031 C 130.96875 102.214844 131.109375 102.160156 131.269531 102.160156 L 133.03125 102.160156 C 133.242188 102.160156 133.449219 102.199219 133.644531 102.28125 C 133.839844 102.363281 134.015625 102.480469 134.167969 102.628906 C 134.316406 102.78125 134.433594 102.953125 134.515625 103.152344 C 134.597656 103.347656 134.636719 103.554688 134.636719 103.765625 L 134.636719 107.542969 C 134.636719 107.757812 134.597656 107.960938 134.515625 108.160156 C 134.433594 108.355469 134.316406 108.53125 134.167969 108.679688 C 134.015625 108.832031 133.839844 108.949219 133.644531 109.027344 C 133.449219 109.109375 133.242188 109.152344 133.03125 109.152344 Z M 131.855469 107.976562 L 133.03125 107.976562 C 133.148438 107.976562 133.253906 107.9375 133.335938 107.851562 C 133.421875 107.765625 133.464844 107.664062 133.464844 107.542969 L 133.464844 103.765625 C 133.464844 103.648438 133.421875 103.542969 133.335938 103.460938 C 133.253906 103.375 133.148438 103.332031 133.03125 103.332031 L 131.855469 103.332031 Z M 131.855469 107.976562 " fill-opacity="1" fill-rule="nonzero"/></g><g clip-path="url(#0790d0314f)"><path fill="#65a225" d="M 186.40625 106.289062 L 186.40625 109.074219 L 184.308594 109.074219 C 184.183594 109.074219 184.0625 109.050781 183.949219 109.003906 C 183.835938 108.953125 183.734375 108.886719 183.648438 108.796875 C 183.5625 108.707031 183.496094 108.605469 183.449219 108.488281 C 183.40625 108.375 183.382812 108.253906 183.386719 108.128906 L 183.386719 105.332031 C 183.386719 105.078125 183.476562 104.863281 183.65625 104.683594 C 183.835938 104.503906 184.054688 104.414062 184.308594 104.417969 L 186.109375 104.417969 C 186.308594 105.027344 186.40625 105.648438 186.40625 106.289062 Z M 186.40625 106.289062 " fill-opacity="1" fill-rule="nonzero"/></g><g clip-path="url(#90dc49fe79)"><path fill="#000000" d="M 186.40625 109.660156 L 184.308594 109.660156 C 184.105469 109.660156 183.910156 109.621094 183.726562 109.542969 C 183.539062 109.464844 183.375 109.355469 183.234375 109.210938 C 183.089844 109.066406 182.984375 108.902344 182.910156 108.714844 C 182.832031 108.527344 182.796875 108.332031 182.800781 108.128906 L 182.800781 105.332031 C 182.800781 105.132812 182.839844 104.941406 182.917969 104.757812 C 182.992188 104.574219 183.101562 104.410156 183.242188 104.269531 C 183.386719 104.128906 183.546875 104.019531 183.730469 103.945312 C 183.917969 103.867188 184.109375 103.832031 184.308594 103.832031 L 186.109375 103.832031 C 186.242188 103.824219 186.363281 103.859375 186.46875 103.933594 C 186.578125 104.007812 186.652344 104.109375 186.695312 104.234375 C 186.910156 104.902344 187.015625 105.585938 187.019531 106.289062 L 187.019531 109.074219 C 187.019531 109.242188 186.957031 109.382812 186.835938 109.5 C 186.71875 109.613281 186.574219 109.667969 186.40625 109.660156 Z M 184.308594 105.003906 C 184.214844 105.003906 184.136719 105.035156 184.070312 105.097656 C 184.007812 105.164062 183.972656 105.242188 183.972656 105.332031 L 183.972656 108.128906 C 183.972656 108.222656 184.003906 108.304688 184.070312 108.367188 C 184.136719 108.433594 184.214844 108.464844 184.308594 108.464844 L 185.820312 108.464844 L 185.820312 106.289062 C 185.820312 105.855469 185.769531 105.425781 185.667969 105.003906 Z M 184.308594 105.003906 " fill-opacity="1" fill-rule="nonzero"/></g><path fill="#d8ebc6" d="M 140.320312 91.871094 L 148.132812 91.871094 C 148.347656 91.871094 148.527344 91.945312 148.675781 92.097656 C 148.828125 92.246094 148.902344 92.425781 148.902344 92.640625 L 148.902344 99.472656 C 148.902344 99.683594 148.824219 99.863281 148.675781 100.011719 C 148.527344 100.160156 148.34375 100.234375 148.132812 100.234375 L 137.1875 100.234375 C 137.058594 100.234375 136.9375 100.203125 136.820312 100.140625 C 136.707031 100.078125 136.613281 99.992188 136.542969 99.882812 C 136.472656 99.773438 136.433594 99.652344 136.425781 99.523438 C 136.414062 99.394531 136.4375 99.269531 136.492188 99.148438 L 139.621094 92.292969 C 139.765625 92.007812 140 91.867188 140.320312 91.871094 Z M 140.320312 91.871094 " fill-opacity="1" fill-rule="nonzero"/><path fill="#000000" d="M 148.132812 100.820312 L 137.1875 100.820312 C 137.074219 100.820312 136.964844 100.808594 136.855469 100.78125 C 136.746094 100.75 136.640625 100.710938 136.542969 100.65625 C 136.441406 100.601562 136.351562 100.535156 136.269531 100.460938 C 136.1875 100.382812 136.113281 100.296875 136.054688 100.199219 C 135.992188 100.105469 135.945312 100.003906 135.90625 99.898438 C 135.871094 99.789062 135.851562 99.679688 135.84375 99.566406 C 135.835938 99.453125 135.839844 99.34375 135.863281 99.230469 C 135.882812 99.121094 135.914062 99.011719 135.960938 98.910156 L 139.089844 92.074219 C 139.199219 91.835938 139.367188 91.644531 139.589844 91.5 C 139.8125 91.355469 140.054688 91.285156 140.320312 91.285156 L 148.132812 91.285156 C 148.3125 91.285156 148.484375 91.320312 148.652344 91.386719 C 148.816406 91.457031 148.964844 91.554688 149.089844 91.679688 C 149.214844 91.808594 149.3125 91.957031 149.382812 92.121094 C 149.449219 92.289062 149.484375 92.460938 149.484375 92.640625 L 149.484375 99.472656 C 149.484375 99.652344 149.449219 99.824219 149.378906 99.988281 C 149.3125 100.15625 149.214844 100.300781 149.089844 100.425781 C 148.960938 100.554688 148.816406 100.652344 148.648438 100.71875 C 148.484375 100.789062 148.3125 100.820312 148.132812 100.820312 Z M 140.320312 92.457031 C 140.242188 92.457031 140.1875 92.492188 140.15625 92.5625 L 137.023438 99.398438 C 136.992188 99.453125 136.992188 99.511719 137.023438 99.566406 C 137.0625 99.621094 137.113281 99.648438 137.175781 99.648438 L 148.132812 99.648438 C 148.25 99.648438 148.308594 99.589844 148.308594 99.472656 L 148.308594 92.640625 C 148.3125 92.519531 148.253906 92.457031 148.132812 92.457031 Z M 140.320312 92.457031 " fill-opacity="1" fill-rule="nonzero"/><path fill="#d8ebc6" d="M 169 100.234375 L 153.816406 100.234375 C 153.605469 100.234375 153.425781 100.160156 153.277344 100.011719 C 153.125 99.863281 153.050781 99.683594 153.050781 99.472656 L 153.050781 92.640625 C 153.050781 92.425781 153.125 92.246094 153.273438 92.097656 C 153.425781 91.945312 153.605469 91.871094 153.816406 91.871094 L 160.546875 91.871094 C 160.765625 91.867188 160.960938 91.933594 161.132812 92.070312 L 169.492188 98.875 C 169.617188 98.976562 169.699219 99.109375 169.742188 99.265625 C 169.785156 99.421875 169.78125 99.574219 169.722656 99.730469 C 169.667969 99.882812 169.574219 100.003906 169.441406 100.097656 C 169.308594 100.191406 169.160156 100.234375 169 100.234375 Z M 169 100.234375 " fill-opacity="1" fill-rule="nonzero"/><path fill="#000000" d="M 169 100.820312 L 153.816406 100.820312 C 153.640625 100.820312 153.464844 100.789062 153.300781 100.71875 C 153.136719 100.652344 152.988281 100.554688 152.863281 100.425781 C 152.734375 100.300781 152.636719 100.15625 152.566406 99.988281 C 152.5 99.824219 152.464844 99.652344 152.460938 99.472656 L 152.460938 92.640625 C 152.460938 92.460938 152.496094 92.285156 152.566406 92.121094 C 152.636719 91.953125 152.734375 91.808594 152.859375 91.679688 C 152.988281 91.554688 153.132812 91.457031 153.300781 91.386719 C 153.464844 91.320312 153.636719 91.285156 153.816406 91.285156 L 160.546875 91.285156 C 160.898438 91.28125 161.210938 91.390625 161.484375 91.613281 L 169.847656 98.421875 C 170.070312 98.601562 170.222656 98.832031 170.300781 99.105469 C 170.378906 99.382812 170.367188 99.652344 170.273438 99.921875 C 170.175781 100.195312 170.011719 100.410156 169.777344 100.574219 C 169.542969 100.742188 169.285156 100.824219 169 100.820312 Z M 153.816406 92.457031 C 153.695312 92.457031 153.636719 92.519531 153.636719 92.640625 L 153.636719 99.472656 C 153.640625 99.589844 153.699219 99.648438 153.816406 99.648438 L 169 99.648438 C 169.085938 99.652344 169.140625 99.613281 169.167969 99.53125 C 169.199219 99.449219 169.179688 99.382812 169.109375 99.332031 L 160.75 92.523438 C 160.691406 92.476562 160.621094 92.457031 160.546875 92.457031 Z M 153.816406 92.457031 " fill-opacity="1" fill-rule="nonzero"/><g clip-path="url(#313525e16c)"><path fill="#656d78" d="M 148.796875 112.613281 C 148.796875 112.988281 148.761719 113.363281 148.6875 113.734375 C 148.613281 114.105469 148.503906 114.464844 148.359375 114.8125 C 148.214844 115.164062 148.035156 115.496094 147.828125 115.808594 C 147.617188 116.121094 147.378906 116.414062 147.113281 116.679688 C 146.84375 116.949219 146.554688 117.1875 146.238281 117.394531 C 145.925781 117.605469 145.59375 117.785156 145.246094 117.929688 C 144.894531 118.074219 144.535156 118.183594 144.164062 118.253906 C 143.792969 118.328125 143.421875 118.367188 143.042969 118.367188 C 142.664062 118.367188 142.289062 118.328125 141.921875 118.253906 C 141.550781 118.183594 141.191406 118.074219 140.839844 117.929688 C 140.492188 117.785156 140.160156 117.605469 139.84375 117.394531 C 139.53125 117.1875 139.242188 116.949219 138.972656 116.679688 C 138.707031 116.414062 138.46875 116.121094 138.257812 115.808594 C 138.046875 115.496094 137.871094 115.164062 137.726562 114.8125 C 137.582031 114.464844 137.472656 114.105469 137.398438 113.734375 C 137.324219 113.363281 137.289062 112.988281 137.289062 112.613281 C 137.289062 112.234375 137.324219 111.859375 137.398438 111.488281 C 137.472656 111.117188 137.582031 110.757812 137.726562 110.410156 C 137.871094 110.0625 138.046875 109.730469 138.257812 109.414062 C 138.46875 109.101562 138.707031 108.808594 138.972656 108.542969 C 139.242188 108.277344 139.53125 108.039062 139.84375 107.828125 C 140.160156 107.617188 140.492188 107.441406 140.839844 107.296875 C 141.191406 107.152344 141.550781 107.042969 141.921875 106.96875 C 142.289062 106.894531 142.664062 106.859375 143.042969 106.859375 C 143.421875 106.859375 143.792969 106.894531 144.164062 106.96875 C 144.535156 107.042969 144.894531 107.152344 145.246094 107.296875 C 145.59375 107.441406 145.925781 107.617188 146.238281 107.828125 C 146.554688 108.039062 146.84375 108.277344 147.113281 108.542969 C 147.378906 108.808594 147.617188 109.101562 147.828125 109.414062 C 148.035156 109.730469 148.214844 110.0625 148.359375 110.410156 C 148.503906 110.757812 148.613281 111.117188 148.6875 111.488281 C 148.761719 111.859375 148.796875 112.234375 148.796875 112.613281 Z M 148.796875 112.613281 " fill-opacity="1" fill-rule="nonzero"/></g><g clip-path="url(#5656ea8cc9)"><path fill="#000000" d="M 143.042969 118.953125 C 142.625 118.953125 142.210938 118.914062 141.804688 118.832031 C 141.394531 118.75 140.996094 118.628906 140.613281 118.472656 C 140.226562 118.3125 139.859375 118.117188 139.515625 117.886719 C 139.167969 117.652344 138.847656 117.390625 138.550781 117.097656 C 138.257812 116.800781 137.992188 116.480469 137.761719 116.136719 C 137.53125 115.789062 137.332031 115.421875 137.175781 115.039062 C 137.015625 114.652344 136.894531 114.253906 136.8125 113.847656 C 136.730469 113.4375 136.691406 113.023438 136.691406 112.609375 C 136.691406 112.191406 136.730469 111.777344 136.8125 111.371094 C 136.894531 110.960938 137.011719 110.5625 137.171875 110.179688 C 137.332031 109.792969 137.527344 109.425781 137.757812 109.082031 C 137.992188 108.734375 138.253906 108.414062 138.550781 108.117188 C 138.84375 107.824219 139.164062 107.558594 139.511719 107.328125 C 139.859375 107.097656 140.222656 106.902344 140.609375 106.742188 C 140.992188 106.582031 141.390625 106.460938 141.800781 106.382812 C 142.207031 106.300781 142.621094 106.257812 143.039062 106.257812 C 143.457031 106.257812 143.867188 106.300781 144.277344 106.382812 C 144.6875 106.464844 145.082031 106.582031 145.46875 106.742188 C 145.851562 106.902344 146.21875 107.097656 146.566406 107.332031 C 146.910156 107.5625 147.234375 107.824219 147.527344 108.121094 C 147.820312 108.417969 148.085938 108.738281 148.316406 109.082031 C 148.546875 109.429688 148.742188 109.796875 148.902344 110.183594 C 149.0625 110.566406 149.179688 110.964844 149.261719 111.375 C 149.34375 111.78125 149.382812 112.195312 149.382812 112.613281 C 149.382812 113.027344 149.34375 113.441406 149.261719 113.847656 C 149.179688 114.257812 149.058594 114.652344 148.898438 115.039062 C 148.738281 115.421875 148.542969 115.789062 148.3125 116.132812 C 148.082031 116.480469 147.820312 116.800781 147.523438 117.09375 C 147.230469 117.386719 146.910156 117.652344 146.5625 117.882812 C 146.21875 118.113281 145.851562 118.308594 145.46875 118.46875 C 145.082031 118.628906 144.6875 118.75 144.277344 118.828125 C 143.871094 118.910156 143.457031 118.953125 143.042969 118.953125 Z M 143.042969 107.4375 C 142.703125 107.4375 142.367188 107.472656 142.03125 107.535156 C 141.699219 107.601562 141.375 107.699219 141.0625 107.832031 C 140.746094 107.960938 140.449219 108.117188 140.167969 108.308594 C 139.882812 108.496094 139.621094 108.710938 139.382812 108.949219 C 139.140625 109.191406 138.925781 109.453125 138.738281 109.734375 C 138.546875 110.015625 138.390625 110.3125 138.257812 110.628906 C 138.128906 110.941406 138.03125 111.265625 137.964844 111.597656 C 137.898438 111.933594 137.863281 112.269531 137.863281 112.609375 C 137.863281 112.949219 137.894531 113.285156 137.960938 113.617188 C 138.027344 113.949219 138.125 114.273438 138.253906 114.589844 C 138.386719 114.902344 138.542969 115.199219 138.734375 115.484375 C 138.921875 115.765625 139.136719 116.027344 139.375 116.269531 C 139.617188 116.507812 139.878906 116.722656 140.160156 116.914062 C 140.441406 117.101562 140.742188 117.261719 141.054688 117.390625 C 141.367188 117.519531 141.691406 117.621094 142.023438 117.6875 C 142.359375 117.753906 142.695312 117.785156 143.035156 117.785156 C 143.375 117.785156 143.710938 117.753906 144.042969 117.6875 C 144.378906 117.621094 144.703125 117.523438 145.015625 117.390625 C 145.328125 117.261719 145.628906 117.101562 145.910156 116.914062 C 146.191406 116.726562 146.453125 116.511719 146.695312 116.269531 C 146.933594 116.03125 147.148438 115.769531 147.339844 115.488281 C 147.527344 115.203125 147.6875 114.90625 147.816406 114.59375 C 147.945312 114.277344 148.042969 113.953125 148.109375 113.621094 C 148.175781 113.289062 148.210938 112.953125 148.210938 112.613281 C 148.210938 112.273438 148.175781 111.9375 148.109375 111.605469 C 148.042969 111.269531 147.945312 110.949219 147.816406 110.632812 C 147.683594 110.320312 147.527344 110.023438 147.335938 109.742188 C 147.148438 109.457031 146.933594 109.199219 146.695312 108.957031 C 146.457031 108.71875 146.195312 108.503906 145.914062 108.3125 C 145.628906 108.125 145.332031 107.964844 145.019531 107.835938 C 144.707031 107.707031 144.382812 107.605469 144.050781 107.539062 C 143.71875 107.472656 143.382812 107.4375 143.042969 107.4375 Z M 143.042969 107.4375 " fill-opacity="1" fill-rule="nonzero"/></g><path fill="#d8ebc6" d="M 176.921875 112.613281 C 176.921875 112.917969 176.863281 113.210938 176.75 113.488281 C 176.632812 113.769531 176.464844 114.019531 176.25 114.234375 C 176.035156 114.449219 175.785156 114.613281 175.503906 114.730469 C 175.222656 114.847656 174.933594 114.90625 174.628906 114.90625 C 174.324219 114.90625 174.03125 114.847656 173.75 114.730469 C 173.46875 114.613281 173.21875 114.445312 173.003906 114.230469 C 172.789062 114.015625 172.625 113.769531 172.507812 113.488281 C 172.394531 113.207031 172.335938 112.914062 172.335938 112.609375 C 172.335938 112.304688 172.394531 112.011719 172.511719 111.730469 C 172.628906 111.449219 172.796875 111.203125 173.011719 110.988281 C 173.226562 110.773438 173.476562 110.605469 173.757812 110.492188 C 174.039062 110.375 174.332031 110.316406 174.636719 110.320312 C 174.9375 110.320312 175.230469 110.375 175.511719 110.492188 C 175.792969 110.609375 176.039062 110.777344 176.253906 110.992188 C 176.46875 111.207031 176.632812 111.453125 176.75 111.734375 C 176.867188 112.015625 176.921875 112.308594 176.921875 112.613281 Z M 176.921875 112.613281 " fill-opacity="1" fill-rule="nonzero"/><path fill="#000000" d="M 174.636719 115.492188 C 174.253906 115.492188 173.886719 115.421875 173.53125 115.273438 C 173.179688 115.128906 172.867188 114.921875 172.597656 114.652344 C 172.324219 114.382812 172.117188 114.070312 171.96875 113.71875 C 171.824219 113.367188 171.75 112.996094 171.75 112.617188 C 171.75 112.234375 171.820312 111.867188 171.96875 111.511719 C 172.113281 111.160156 172.320312 110.847656 172.589844 110.578125 C 172.859375 110.308594 173.171875 110.097656 173.523438 109.953125 C 173.878906 109.804688 174.246094 109.730469 174.628906 109.730469 C 175.007812 109.730469 175.378906 109.804688 175.730469 109.949219 C 176.082031 110.097656 176.394531 110.304688 176.664062 110.574219 C 176.933594 110.84375 177.144531 111.15625 177.289062 111.507812 C 177.4375 111.863281 177.507812 112.230469 177.507812 112.613281 C 177.507812 112.992188 177.433594 113.359375 177.289062 113.710938 C 177.144531 114.0625 176.933594 114.375 176.667969 114.644531 C 176.398438 114.914062 176.085938 115.121094 175.734375 115.269531 C 175.382812 115.417969 175.015625 115.492188 174.636719 115.492188 Z M 174.636719 110.90625 C 174.410156 110.902344 174.191406 110.945312 173.980469 111.03125 C 173.773438 111.117188 173.585938 111.242188 173.425781 111.402344 C 173.265625 111.5625 173.140625 111.746094 173.054688 111.953125 C 172.96875 112.164062 172.921875 112.382812 172.921875 112.609375 C 172.921875 112.835938 172.964844 113.050781 173.050781 113.261719 C 173.136719 113.472656 173.261719 113.65625 173.421875 113.816406 C 173.582031 113.976562 173.765625 114.101562 173.972656 114.1875 C 174.183594 114.273438 174.402344 114.320312 174.628906 114.320312 C 174.855469 114.320312 175.070312 114.277344 175.28125 114.191406 C 175.492188 114.101562 175.675781 113.980469 175.835938 113.820312 C 175.996094 113.660156 176.121094 113.476562 176.207031 113.265625 C 176.292969 113.054688 176.335938 112.839844 176.335938 112.613281 C 176.335938 112.386719 176.292969 112.167969 176.207031 111.960938 C 176.121094 111.75 175.996094 111.566406 175.839844 111.40625 C 175.679688 111.246094 175.496094 111.125 175.285156 111.035156 C 175.078125 110.949219 174.859375 110.90625 174.636719 110.90625 Z M 174.636719 110.90625 " fill-opacity="1" fill-rule="nonzero"/><path fill="#d8ebc6" d="M 145.347656 112.613281 C 145.347656 112.917969 145.289062 113.207031 145.171875 113.488281 C 145.058594 113.769531 144.890625 114.019531 144.675781 114.234375 C 144.460938 114.449219 144.214844 114.613281 143.933594 114.730469 C 143.652344 114.847656 143.359375 114.90625 143.054688 114.90625 C 142.75 114.90625 142.457031 114.847656 142.175781 114.730469 C 141.894531 114.613281 141.648438 114.449219 141.433594 114.234375 C 141.21875 114.019531 141.050781 113.769531 140.933594 113.488281 C 140.820312 113.207031 140.761719 112.917969 140.761719 112.613281 C 140.761719 112.308594 140.820312 112.015625 140.933594 111.734375 C 141.050781 111.453125 141.21875 111.207031 141.433594 110.988281 C 141.648438 110.773438 141.894531 110.609375 142.175781 110.492188 C 142.457031 110.375 142.75 110.320312 143.054688 110.320312 C 143.359375 110.316406 143.652344 110.375 143.933594 110.492188 C 144.214844 110.609375 144.460938 110.773438 144.679688 110.988281 C 144.894531 111.203125 145.058594 111.453125 145.175781 111.734375 C 145.289062 112.015625 145.347656 112.308594 145.347656 112.613281 Z M 145.347656 112.613281 " fill-opacity="1" fill-rule="nonzero"/><path fill="#000000" d="M 143.042969 115.492188 C 142.660156 115.492188 142.292969 115.417969 141.941406 115.269531 C 141.589844 115.121094 141.28125 114.914062 141.011719 114.640625 C 140.742188 114.371094 140.535156 114.058594 140.390625 113.707031 C 140.246094 113.351562 140.171875 112.984375 140.175781 112.605469 C 140.175781 112.222656 140.25 111.855469 140.394531 111.503906 C 140.542969 111.152344 140.75 110.839844 141.023438 110.570312 C 141.292969 110.300781 141.605469 110.09375 141.957031 109.949219 C 142.308594 109.804688 142.675781 109.730469 143.058594 109.730469 C 143.441406 109.734375 143.808594 109.804688 144.160156 109.953125 C 144.511719 110.097656 144.824219 110.308594 145.09375 110.578125 C 145.363281 110.847656 145.570312 111.15625 145.714844 111.511719 C 145.863281 111.863281 145.933594 112.230469 145.933594 112.613281 C 145.933594 112.996094 145.859375 113.363281 145.710938 113.714844 C 145.566406 114.070312 145.355469 114.382812 145.085938 114.652344 C 144.8125 114.921875 144.5 115.128906 144.148438 115.273438 C 143.792969 115.421875 143.425781 115.492188 143.042969 115.492188 Z M 143.042969 110.90625 C 142.816406 110.90625 142.597656 110.953125 142.390625 111.039062 C 142.183594 111.125 142 111.25 141.839844 111.410156 C 141.679688 111.574219 141.558594 111.757812 141.472656 111.96875 C 141.386719 112.175781 141.347656 112.394531 141.347656 112.621094 C 141.347656 112.847656 141.394531 113.0625 141.480469 113.269531 C 141.566406 113.480469 141.691406 113.664062 141.851562 113.824219 C 142.011719 113.980469 142.195312 114.105469 142.40625 114.191406 C 142.613281 114.277344 142.832031 114.320312 143.058594 114.320312 C 143.285156 114.316406 143.5 114.273438 143.710938 114.1875 C 143.917969 114.101562 144.101562 113.976562 144.261719 113.816406 C 144.421875 113.65625 144.546875 113.472656 144.632812 113.265625 C 144.71875 113.054688 144.761719 112.839844 144.761719 112.613281 C 144.761719 112.382812 144.71875 112.164062 144.632812 111.957031 C 144.542969 111.746094 144.421875 111.558594 144.257812 111.398438 C 144.097656 111.238281 143.910156 111.117188 143.699219 111.03125 C 143.488281 110.945312 143.269531 110.902344 143.042969 110.90625 Z M 143.042969 110.90625 " fill-opacity="1" fill-rule="nonzero"/><path fill="#000000" d="M 156.371094 103.753906 L 153.050781 103.753906 C 152.886719 103.753906 152.75 103.699219 152.632812 103.582031 C 152.519531 103.46875 152.460938 103.332031 152.460938 103.167969 C 152.460938 103.007812 152.519531 102.867188 152.632812 102.753906 C 152.75 102.640625 152.886719 102.582031 153.050781 102.582031 L 156.371094 102.582031 C 156.53125 102.582031 156.667969 102.640625 156.785156 102.753906 C 156.898438 102.867188 156.957031 103.007812 156.957031 103.167969 C 156.957031 103.332031 156.898438 103.46875 156.785156 103.582031 C 156.667969 103.699219 156.53125 103.753906 156.371094 103.753906 Z M 156.371094 103.753906 " fill-opacity="1" fill-rule="nonzero"/><path fill="#000000" d="M 148.972656 103.753906 L 145.660156 103.753906 C 145.496094 103.753906 145.359375 103.699219 145.242188 103.582031 C 145.128906 103.46875 145.070312 103.332031 145.070312 103.167969 C 145.070312 103.007812 145.128906 102.867188 145.242188 102.753906 C 145.359375 102.640625 145.496094 102.582031 145.660156 102.582031 L 148.972656 102.582031 C 149.136719 102.582031 149.273438 102.640625 149.386719 102.753906 C 149.503906 102.867188 149.558594 103.007812 149.558594 103.167969 C 149.558594 103.332031 149.503906 103.46875 149.386719 103.582031 C 149.273438 103.699219 149.136719 103.753906 148.972656 103.753906 Z M 148.972656 103.753906 " fill-opacity="1" fill-rule="nonzero"/><g clip-path="url(#dc2617fb8f)"><path fill="#000000" d="M 133.03125 118.953125 L 131.269531 118.953125 C 131.109375 118.953125 130.96875 118.894531 130.855469 118.78125 C 130.742188 118.667969 130.683594 118.527344 130.683594 118.367188 C 130.683594 118.203125 130.742188 118.066406 130.855469 117.953125 C 130.96875 117.835938 131.109375 117.78125 131.269531 117.78125 L 133.03125 117.78125 C 133.191406 117.78125 133.328125 117.835938 133.445312 117.953125 C 133.558594 118.066406 133.617188 118.203125 133.617188 118.367188 C 133.617188 118.527344 133.558594 118.667969 133.445312 118.78125 C 133.328125 118.894531 133.191406 118.953125 133.03125 118.953125 Z M 133.03125 118.953125 " fill-opacity="1" fill-rule="nonzero"/></g><g clip-path="url(#c1788fa39d)"><path fill="#000000" d="M 181.960938 118.953125 L 135.265625 118.953125 C 135.101562 118.953125 134.964844 118.894531 134.851562 118.78125 C 134.734375 118.667969 134.679688 118.527344 134.679688 118.367188 C 134.679688 118.203125 134.734375 118.066406 134.851562 117.953125 C 134.964844 117.835938 135.101562 117.78125 135.265625 117.78125 L 181.960938 117.78125 C 182.125 117.78125 182.261719 117.835938 182.375 117.953125 C 182.492188 118.066406 182.546875 118.203125 182.546875 118.367188 C 182.546875 118.527344 182.492188 118.667969 182.375 118.78125 C 182.261719 118.894531 182.125 118.953125 181.960938 118.953125 Z M 181.960938 118.953125 " fill-opacity="1" fill-rule="nonzero"/></g><g clip-path="url(#2f1744c2fb)"><path fill="#000000" d="M 186.40625 118.953125 L 184.648438 118.953125 C 184.484375 118.953125 184.347656 118.894531 184.234375 118.78125 C 184.117188 118.667969 184.0625 118.527344 184.0625 118.367188 C 184.0625 118.203125 184.117188 118.066406 184.234375 117.953125 C 184.347656 117.835938 184.484375 117.78125 184.648438 117.78125 L 186.40625 117.78125 C 186.570312 117.78125 186.707031 117.835938 186.824219 117.953125 C 186.9375 118.066406 186.996094 118.203125 186.996094 118.367188 C 186.996094 118.527344 186.9375 118.667969 186.824219 118.78125 C 186.707031 118.894531 186.570312 118.953125 186.40625 118.953125 Z M 186.40625 118.953125 " fill-opacity="1" fill-rule="nonzero"/></g><path fill="#65a225" d="M 150.980469 68.566406 C 150.53125 68.566406 150.089844 68.609375 149.652344 68.695312 C 149.214844 68.78125 148.789062 68.90625 148.375 69.078125 C 147.964844 69.246094 147.570312 69.457031 147.199219 69.703125 C 146.828125 69.953125 146.484375 70.234375 146.167969 70.546875 C 145.851562 70.863281 145.570312 71.207031 145.320312 71.578125 C 145.074219 71.949219 144.863281 72.339844 144.691406 72.75 C 144.523438 73.164062 144.394531 73.589844 144.304688 74.027344 C 144.21875 74.464844 144.175781 74.90625 144.175781 75.351562 C 144.175781 77.359375 146.121094 80.9375 147.929688 83.824219 C 148.398438 84.574219 148.855469 85.273438 149.265625 85.886719 C 150.238281 87.335938 150.960938 88.320312 150.960938 88.320312 C 150.960938 88.320312 151.683594 87.335938 152.65625 85.886719 C 153.066406 85.300781 153.523438 84.574219 153.992188 83.824219 C 155.800781 80.9375 157.746094 77.371094 157.746094 75.351562 C 157.746094 74.90625 157.703125 74.46875 157.617188 74.03125 C 157.53125 73.59375 157.402344 73.171875 157.234375 72.761719 C 157.0625 72.347656 156.855469 71.957031 156.609375 71.589844 C 156.359375 71.21875 156.082031 70.875 155.765625 70.558594 C 155.453125 70.246094 155.109375 69.964844 154.742188 69.714844 C 154.371094 69.46875 153.980469 69.257812 153.570312 69.089844 C 153.160156 68.917969 152.738281 68.789062 152.300781 68.699219 C 151.863281 68.613281 151.421875 68.566406 150.980469 68.566406 Z M 150.980469 78.984375 C 150.503906 78.984375 150.046875 78.894531 149.605469 78.710938 C 149.167969 78.527344 148.78125 78.269531 148.445312 77.933594 C 148.109375 77.597656 147.847656 77.210938 147.667969 76.769531 C 147.484375 76.332031 147.394531 75.875 147.394531 75.398438 C 147.394531 74.925781 147.484375 74.46875 147.667969 74.027344 C 147.847656 73.589844 148.109375 73.203125 148.445312 72.867188 C 148.78125 72.53125 149.167969 72.269531 149.605469 72.089844 C 150.046875 71.90625 150.503906 71.816406 150.980469 71.816406 C 151.453125 71.816406 151.910156 71.90625 152.351562 72.089844 C 152.789062 72.269531 153.175781 72.53125 153.511719 72.867188 C 153.847656 73.203125 154.109375 73.589844 154.289062 74.027344 C 154.472656 74.46875 154.5625 74.925781 154.5625 75.398438 C 154.5625 75.875 154.46875 76.332031 154.289062 76.769531 C 154.105469 77.210938 153.847656 77.597656 153.511719 77.933594 C 153.175781 78.269531 152.789062 78.527344 152.347656 78.710938 C 151.910156 78.890625 151.453125 78.984375 150.980469 78.984375 Z M 150.980469 78.984375 " fill-opacity="1" fill-rule="nonzero"/><g mask="url(#e1e06cab41)"><g transform="matrix(1, 0, 0, 1, 145, 68)"><g clip-path="url(#aee0be960c)"><g clip-path="url(#cb469d42bf)"><path fill="#000000" d="M 2.394531 7.398438 C 2.394531 7 2.460938 6.609375 2.589844 6.230469 C 2.722656 5.851562 2.910156 5.503906 3.15625 5.1875 C 3.40625 4.871094 3.695312 4.605469 4.035156 4.386719 C 4.371094 4.167969 4.734375 4.011719 5.121094 3.914062 C 4.839844 3.847656 4.554688 3.816406 4.265625 3.816406 C 3.789062 3.816406 3.332031 3.90625 2.894531 4.089844 C 2.457031 4.269531 2.070312 4.53125 1.734375 4.867188 C 1.398438 5.203125 1.136719 5.589844 0.957031 6.027344 C 0.773438 6.46875 0.683594 6.925781 0.683594 7.398438 C 0.683594 7.875 0.773438 8.332031 0.957031 8.769531 C 1.136719 9.210938 1.398438 9.597656 1.734375 9.933594 C 2.070312 10.269531 2.457031 10.527344 2.894531 10.710938 C 3.332031 10.890625 3.789062 10.984375 4.265625 10.984375 C 4.554688 10.984375 4.839844 10.949219 5.121094 10.878906 C 4.734375 10.78125 4.371094 10.625 4.035156 10.40625 C 3.699219 10.191406 3.40625 9.925781 3.160156 9.609375 C 2.914062 9.292969 2.722656 8.945312 2.59375 8.566406 C 2.460938 8.191406 2.394531 7.800781 2.394531 7.398438 Z M 5.980469 0.566406 C 5.691406 0.566406 5.40625 0.585938 5.121094 0.625 C 5.527344 0.675781 5.925781 0.761719 6.316406 0.886719 C 6.707031 1.011719 7.085938 1.167969 7.445312 1.359375 C 7.808594 1.550781 8.148438 1.773438 8.472656 2.027344 C 8.792969 2.28125 9.089844 2.558594 9.359375 2.867188 C 9.632812 3.175781 9.871094 3.503906 10.082031 3.855469 C 10.292969 4.207031 10.472656 4.574219 10.617188 4.957031 C 10.761719 5.339844 10.871094 5.730469 10.941406 6.132812 C 11.015625 6.539062 11.054688 6.945312 11.050781 7.351562 C 11.050781 9.359375 9.105469 12.9375 7.296875 15.824219 C 6.828125 16.574219 6.371094 17.273438 5.960938 17.886719 C 5.648438 18.351562 5.375 18.769531 5.121094 19.113281 C 5.636719 19.863281 5.980469 20.320312 5.980469 20.320312 C 5.980469 20.320312 6.699219 19.335938 7.675781 17.886719 C 8.085938 17.300781 8.542969 16.574219 9.011719 15.824219 C 10.816406 12.9375 12.765625 9.371094 12.765625 7.351562 C 12.765625 6.90625 12.722656 6.464844 12.636719 6.027344 C 12.546875 5.59375 12.417969 5.167969 12.25 4.757812 C 12.078125 4.34375 11.871094 3.953125 11.621094 3.582031 C 11.375 3.210938 11.09375 2.871094 10.777344 2.554688 C 10.460938 2.238281 10.121094 1.957031 9.75 1.710938 C 9.378906 1.460938 8.988281 1.253906 8.574219 1.082031 C 8.164062 0.914062 7.738281 0.785156 7.304688 0.695312 C 6.867188 0.609375 6.425781 0.566406 5.980469 0.566406 Z M 2.394531 7.398438 C 2.394531 7 2.460938 6.609375 2.589844 6.230469 C 2.722656 5.851562 2.910156 5.503906 3.15625 5.1875 C 3.40625 4.871094 3.695312 4.605469 4.035156 4.386719 C 4.371094 4.167969 4.734375 4.011719 5.121094 3.914062 C 4.839844 3.847656 4.554688 3.816406 4.265625 3.816406 C 3.789062 3.816406 3.332031 3.90625 2.894531 4.089844 C 2.457031 4.269531 2.070312 4.53125 1.734375 4.867188 C 1.398438 5.203125 1.136719 5.589844 0.957031 6.027344 C 0.773438 6.46875 0.683594 6.925781 0.683594 7.398438 C 0.683594 7.875 0.773438 8.332031 0.957031 8.769531 C 1.136719 9.210938 1.398438 9.597656 1.734375 9.933594 C 2.070312 10.269531 2.457031 10.527344 2.894531 10.710938 C 3.332031 10.890625 3.789062 10.984375 4.265625 10.984375 C 4.554688 10.984375 4.839844 10.949219 5.121094 10.878906 C 4.734375 10.78125 4.371094 10.625 4.035156 10.40625 C 3.699219 10.191406 3.40625 9.925781 3.160156 9.609375 C 2.914062 9.292969 2.722656 8.945312 2.59375 8.566406 C 2.460938 8.191406 2.394531 7.800781 2.394531 7.398438 Z M 2.394531 7.398438 " fill-opacity="1" fill-rule="nonzero"/></g></g></g></g><g clip-path="url(#c0fc287558)"><path fill="#000000" d="M 150.980469 88.910156 C 150.78125 88.910156 150.621094 88.828125 150.503906 88.667969 C 150.503906 88.667969 149.765625 87.660156 148.796875 86.214844 C 148.378906 85.59375 147.921875 84.890625 147.449219 84.132812 C 144.894531 80.070312 143.605469 77.09375 143.605469 75.335938 C 143.605469 74.851562 143.652344 74.371094 143.746094 73.898438 C 143.84375 73.421875 143.984375 72.960938 144.167969 72.515625 C 144.351562 72.066406 144.582031 71.644531 144.847656 71.242188 C 145.117188 70.839844 145.425781 70.464844 145.765625 70.125 C 146.109375 69.78125 146.480469 69.476562 146.882812 69.207031 C 147.285156 68.9375 147.710938 68.710938 148.15625 68.527344 C 148.605469 68.339844 149.066406 68.203125 149.539062 68.105469 C 150.015625 68.011719 150.496094 67.964844 150.980469 67.964844 C 151.460938 67.964844 151.941406 68.011719 152.417969 68.105469 C 152.890625 68.203125 153.351562 68.339844 153.800781 68.527344 C 154.246094 68.710938 154.671875 68.9375 155.074219 69.207031 C 155.476562 69.476562 155.847656 69.78125 156.191406 70.125 C 156.535156 70.464844 156.839844 70.839844 157.109375 71.242188 C 157.378906 71.644531 157.605469 72.066406 157.789062 72.515625 C 157.976562 72.960938 158.113281 73.421875 158.210938 73.898438 C 158.304688 74.371094 158.351562 74.851562 158.351562 75.335938 C 158.351562 77.09375 157.054688 80.027344 154.511719 84.132812 C 154.035156 84.890625 153.570312 85.589844 153.160156 86.210938 C 152.1875 87.660156 151.460938 88.65625 151.449219 88.667969 C 151.332031 88.828125 151.175781 88.90625 150.980469 88.910156 Z M 150.980469 69.152344 C 150.570312 69.152344 150.167969 69.191406 149.765625 69.269531 C 149.367188 69.347656 148.980469 69.464844 148.601562 69.621094 C 148.226562 69.777344 147.867188 69.96875 147.527344 70.195312 C 147.1875 70.417969 146.875 70.675781 146.585938 70.964844 C 146.296875 71.253906 146.039062 71.566406 145.8125 71.90625 C 145.585938 72.242188 145.394531 72.601562 145.238281 72.976562 C 145.078125 73.355469 144.960938 73.742188 144.882812 74.140625 C 144.800781 74.542969 144.761719 74.945312 144.761719 75.351562 C 144.761719 76.84375 146.0625 79.742188 148.425781 83.511719 C 148.890625 84.257812 149.34375 84.949219 149.753906 85.558594 C 150.234375 86.28125 150.65625 86.890625 150.960938 87.320312 C 151.261719 86.898438 151.683594 86.285156 152.167969 85.558594 C 152.574219 84.972656 153.03125 84.257812 153.496094 83.511719 C 155.839844 79.734375 157.160156 76.835938 157.160156 75.351562 C 157.160156 74.945312 157.121094 74.542969 157.042969 74.144531 C 156.960938 73.746094 156.84375 73.359375 156.691406 72.984375 C 156.535156 72.609375 156.34375 72.253906 156.117188 71.914062 C 155.894531 71.578125 155.636719 71.265625 155.351562 70.976562 C 155.0625 70.6875 154.75 70.433594 154.414062 70.207031 C 154.078125 69.980469 153.71875 69.789062 153.34375 69.632812 C 152.96875 69.476562 152.582031 69.355469 152.183594 69.277344 C 151.789062 69.195312 151.386719 69.15625 150.980469 69.152344 Z M 150.980469 79.570312 C 150.703125 79.570312 150.433594 79.542969 150.164062 79.492188 C 149.898438 79.4375 149.636719 79.359375 149.382812 79.253906 C 149.128906 79.148438 148.890625 79.019531 148.660156 78.867188 C 148.433594 78.714844 148.222656 78.542969 148.03125 78.347656 C 147.835938 78.15625 147.664062 77.945312 147.511719 77.71875 C 147.359375 77.488281 147.230469 77.25 147.125 76.996094 C 147.019531 76.742188 146.941406 76.480469 146.886719 76.214844 C 146.835938 75.945312 146.808594 75.671875 146.808594 75.398438 C 146.808594 75.125 146.835938 74.855469 146.886719 74.585938 C 146.941406 74.316406 147.019531 74.058594 147.125 73.804688 C 147.230469 73.550781 147.359375 73.3125 147.511719 73.082031 C 147.664062 72.855469 147.835938 72.644531 148.03125 72.449219 C 148.222656 72.257812 148.433594 72.085938 148.660156 71.933594 C 148.890625 71.78125 149.128906 71.652344 149.382812 71.546875 C 149.636719 71.441406 149.898438 71.363281 150.164062 71.308594 C 150.433594 71.257812 150.703125 71.230469 150.980469 71.230469 C 151.253906 71.230469 151.523438 71.257812 151.792969 71.308594 C 152.0625 71.363281 152.320312 71.441406 152.574219 71.546875 C 152.828125 71.652344 153.066406 71.78125 153.296875 71.933594 C 153.523438 72.085938 153.734375 72.257812 153.929688 72.449219 C 154.121094 72.644531 154.292969 72.855469 154.445312 73.082031 C 154.597656 73.3125 154.726562 73.550781 154.832031 73.804688 C 154.9375 74.058594 155.015625 74.316406 155.070312 74.585938 C 155.121094 74.855469 155.148438 75.125 155.148438 75.398438 C 155.148438 75.671875 155.121094 75.945312 155.066406 76.214844 C 155.015625 76.480469 154.933594 76.742188 154.832031 76.996094 C 154.726562 77.246094 154.597656 77.488281 154.445312 77.714844 C 154.292969 77.941406 154.121094 78.152344 153.925781 78.347656 C 153.734375 78.539062 153.523438 78.714844 153.292969 78.867188 C 153.066406 79.019531 152.828125 79.148438 152.574219 79.25 C 152.320312 79.355469 152.058594 79.4375 151.792969 79.488281 C 151.523438 79.542969 151.253906 79.570312 150.980469 79.570312 Z M 150.980469 72.402344 C 150.582031 72.402344 150.199219 72.480469 149.832031 72.628906 C 149.464844 72.78125 149.140625 73 148.859375 73.28125 C 148.578125 73.5625 148.363281 73.886719 148.210938 74.253906 C 148.058594 74.621094 147.980469 75.003906 147.980469 75.398438 C 147.980469 75.796875 148.058594 76.179688 148.210938 76.546875 C 148.363281 76.914062 148.578125 77.238281 148.859375 77.519531 C 149.140625 77.800781 149.464844 78.015625 149.832031 78.167969 C 150.199219 78.320312 150.582031 78.398438 150.980469 78.398438 C 151.375 78.398438 151.757812 78.320312 152.125 78.167969 C 152.492188 78.015625 152.816406 77.800781 153.097656 77.519531 C 153.378906 77.238281 153.597656 76.914062 153.75 76.546875 C 153.898438 76.179688 153.976562 75.796875 153.976562 75.398438 C 153.976562 75.003906 153.898438 74.621094 153.75 74.253906 C 153.597656 73.886719 153.378906 73.5625 153.097656 73.28125 C 152.816406 73 152.492188 72.78125 152.125 72.628906 C 151.757812 72.480469 151.375 72.402344 150.980469 72.402344 Z M 150.980469 72.402344 " fill-opacity="1" fill-rule="nonzero"/></g></svg>