<svg xmlns="http://www.w3.org/2000/svg" xmlns:xlink="http://www.w3.org/1999/xlink" width="250" zoomAndPan="magnify" viewBox="0 0 187.5 187.499992" height="250" preserveAspectRatio="xMidYMid meet" version="1.0"><defs><clipPath id="d8ba177e59"><path d="M 2 71 L 41 71 L 41 118.109375 L 2 118.109375 Z M 2 71 " clip-rule="nonzero"/></clipPath><clipPath id="009a77e369"><path d="M 14 68.742188 L 29 68.742188 L 29 74 L 14 74 Z M 14 68.742188 " clip-rule="nonzero"/></clipPath><clipPath id="0d597ee8e9"><path d="M 0 68.742188 L 44 68.742188 L 44 118.109375 L 0 118.109375 Z M 0 68.742188 " clip-rule="nonzero"/></clipPath></defs><g clip-path="url(#d8ba177e59)"><path fill="#78a24c" d="M 26.976562 71.003906 L 26.976562 72.125 L 15.730469 72.125 L 15.730469 71.003906 L 2.234375 71.003906 L 2.234375 118.234375 L 40.472656 118.234375 L 40.472656 71.003906 Z M 26.976562 71.003906 " fill-opacity="1" fill-rule="nonzero"/></g><path fill="#d8ebc6" d="M 5.613281 75.503906 L 5.613281 109.796875 C 5.613281 111.96875 7.375 113.730469 9.546875 113.730469 L 37.09375 113.730469 L 37.09375 75.503906 Z M 5.613281 75.503906 " fill-opacity="1" fill-rule="nonzero"/><path fill="#ffffff" d="M 33.621094 89 L 31.585938 89 C 31.519531 89 31.480469 88.957031 31.480469 88.894531 L 31.480469 78.976562 C 31.480469 78.914062 31.519531 78.871094 31.585938 78.871094 L 33.621094 78.871094 C 33.683594 78.871094 33.726562 78.914062 33.726562 78.976562 L 33.726562 88.882812 C 33.726562 88.945312 33.671875 89 33.621094 89 Z M 33.621094 89 " fill-opacity="1" fill-rule="nonzero"/><path fill="#ffffff" d="M 33.621094 94.613281 L 31.585938 94.613281 C 31.519531 94.613281 31.480469 94.570312 31.480469 94.507812 L 31.480469 91.347656 C 31.480469 91.285156 31.519531 91.246094 31.585938 91.246094 L 33.621094 91.246094 C 33.683594 91.246094 33.726562 91.285156 33.726562 91.347656 L 33.726562 94.507812 C 33.726562 94.570312 33.671875 94.613281 33.621094 94.613281 Z M 33.621094 94.613281 " fill-opacity="1" fill-rule="nonzero"/><g clip-path="url(#009a77e369)"><path fill="#d8ebc6" d="M 14.605469 68.757812 L 28.101562 68.757812 L 28.101562 73.257812 L 14.605469 73.257812 Z M 14.605469 68.757812 " fill-opacity="1" fill-rule="nonzero"/></g><path fill="#d8ebc6" d="M 13.484375 106.984375 L 13.484375 109.796875 C 13.484375 111.347656 12.222656 112.609375 10.671875 112.609375 L 9.546875 112.609375 L 9.546875 113.730469 L 39.90625 113.730469 C 42.078125 113.730469 43.839844 111.96875 43.839844 109.796875 L 43.839844 106.984375 Z M 13.484375 106.984375 " fill-opacity="1" fill-rule="nonzero"/><path fill="#f7ebd5" d="M 11.761719 82.242188 C 10.851562 82.230469 10.105469 81.476562 10.105469 80.5625 L 10.105469 79.996094 L 2.234375 79.996094 L 2.234375 80.5625 C 2.234375 81.476562 1.488281 82.230469 0.578125 82.242188 L 0 82.25 L 0.03125 82.828125 C 0.230469 86.742188 2.089844 90.375 5.121094 92.796875 C 5.433594 93.050781 5.800781 93.175781 6.171875 93.175781 C 6.539062 93.175781 6.914062 93.050781 7.21875 92.808594 C 10.25 90.382812 12.109375 86.742188 12.308594 82.839844 L 12.339844 82.261719 Z M 11.761719 82.242188 " fill-opacity="1" fill-rule="nonzero"/><path fill="#78a24c" d="M 31.46875 97.992188 L 15.730469 97.992188 L 15.730469 102.492188 L 31.46875 102.492188 C 32.707031 102.492188 33.714844 101.484375 33.714844 100.246094 C 33.726562 99 32.71875 97.992188 31.46875 97.992188 Z M 31.46875 97.992188 " fill-opacity="1" fill-rule="nonzero"/><path fill="#ffffff" d="M 14.773438 97.992188 L 12.886719 96.730469 L 8.667969 100.238281 L 12.886719 103.753906 L 14.773438 102.492188 L 16.851562 102.492188 L 16.851562 97.992188 Z M 14.773438 97.992188 " fill-opacity="1" fill-rule="nonzero"/><g clip-path="url(#0d597ee8e9)"><path fill="#340754" d="M 40.472656 106.984375 L 40.472656 71.003906 L 28.101562 71.003906 L 28.101562 68.757812 L 14.605469 68.757812 L 14.605469 71.003906 L 2.234375 71.003906 L 2.234375 80.5625 C 2.234375 81.476562 1.488281 82.230469 0.578125 82.242188 L 0 82.25 L 0.03125 82.828125 C 0.15625 85.273438 0.933594 87.613281 2.246094 89.617188 L 2.246094 118.222656 L 40.472656 118.222656 L 40.472656 113.667969 C 42.371094 113.394531 43.839844 111.769531 43.839844 109.785156 L 43.839844 106.972656 L 40.472656 106.972656 Z M 15.730469 69.878906 L 26.976562 69.878906 L 26.976562 72.125 L 15.730469 72.125 Z M 3.367188 72.125 L 14.617188 72.125 L 14.617188 73.25 L 28.109375 73.25 L 28.109375 72.125 L 39.359375 72.125 L 39.359375 106.984375 L 37.113281 106.984375 L 37.113281 75.503906 L 5.636719 75.503906 L 5.636719 80.007812 L 3.367188 80.007812 Z M 10.671875 112.609375 L 9.546875 112.609375 C 7.996094 112.609375 6.738281 111.347656 6.738281 109.796875 L 6.738281 93.082031 C 6.914062 93.019531 7.074219 92.933594 7.230469 92.808594 C 10.261719 90.382812 12.121094 86.742188 12.320312 82.839844 L 12.351562 82.261719 L 11.773438 82.25 C 10.859375 82.242188 10.117188 81.484375 10.117188 80.574219 L 10.117188 80.007812 L 6.738281 80.007812 L 6.738281 76.628906 L 35.96875 76.628906 L 35.96875 106.984375 L 13.484375 106.984375 L 13.484375 109.796875 C 13.484375 111.347656 12.222656 112.609375 10.671875 112.609375 Z M 3.304688 81.128906 L 9.046875 81.128906 C 9.265625 82.199219 10.105469 83.050781 11.164062 83.300781 C 10.851562 86.691406 9.179688 89.816406 6.527344 91.9375 C 6.316406 92.105469 6.035156 92.105469 5.824219 91.9375 C 3.179688 89.816406 1.5 86.691406 1.1875 83.300781 C 2.246094 83.050781 3.085938 82.1875 3.304688 81.128906 Z M 3.367188 117.097656 L 3.367188 91.097656 C 3.902344 91.714844 4.480469 92.292969 5.121094 92.808594 C 5.265625 92.933594 5.433594 93.019531 5.613281 93.082031 L 5.613281 109.796875 C 5.613281 111.96875 7.375 113.730469 9.546875 113.730469 L 39.347656 113.730469 L 39.347656 117.097656 Z M 42.71875 109.796875 C 42.71875 111.347656 41.457031 112.609375 39.90625 112.609375 L 13.421875 112.609375 C 14.15625 111.894531 14.605469 110.898438 14.605469 109.796875 L 14.605469 108.105469 L 42.71875 108.105469 Z M 42.71875 109.796875 " fill-opacity="1" fill-rule="nonzero"/></g><path fill="#340754" d="M 16.851562 81.128906 L 28.101562 81.128906 L 28.101562 82.25 L 16.851562 82.25 Z M 16.851562 81.128906 " fill-opacity="1" fill-rule="nonzero"/><path fill="#340754" d="M 30.347656 81.128906 L 33.714844 81.128906 L 33.714844 82.25 L 30.347656 82.25 Z M 30.347656 81.128906 " fill-opacity="1" fill-rule="nonzero"/><path fill="#340754" d="M 16.851562 84.496094 L 20.21875 84.496094 L 20.21875 85.621094 L 16.851562 85.621094 Z M 16.851562 84.496094 " fill-opacity="1" fill-rule="nonzero"/><path fill="#340754" d="M 16.851562 91.246094 L 30.347656 91.246094 L 30.347656 92.367188 L 16.851562 92.367188 Z M 16.851562 91.246094 " fill-opacity="1" fill-rule="nonzero"/><path fill="#340754" d="M 22.476562 84.496094 L 32.589844 84.496094 L 32.589844 85.621094 L 22.476562 85.621094 Z M 22.476562 84.496094 " fill-opacity="1" fill-rule="nonzero"/><path fill="#340754" d="M 16.851562 87.875 L 26.96875 87.875 L 26.96875 89 L 16.851562 89 Z M 16.851562 87.875 " fill-opacity="1" fill-rule="nonzero"/><path fill="#340754" d="M 15.730469 102.492188 L 15.730469 103.617188 L 16.851562 103.617188 L 16.851562 102.492188 L 31.46875 102.492188 C 32.707031 102.492188 33.714844 101.484375 33.714844 100.246094 C 33.714844 99.007812 32.707031 98 31.46875 98 L 16.851562 98 L 16.851562 96.878906 L 15.730469 96.878906 L 15.730469 98 L 14.773438 98 L 12.875 96.742188 L 8.667969 100.238281 L 12.886719 103.753906 L 14.785156 102.492188 Z M 31.46875 99.113281 C 32.085938 99.113281 32.589844 99.617188 32.589844 100.238281 C 32.589844 100.855469 32.085938 101.359375 31.46875 101.359375 L 16.851562 101.359375 L 16.851562 99.113281 Z M 12.957031 102.347656 L 10.429688 100.238281 L 12.957031 98.128906 L 14.4375 99.113281 L 15.730469 99.113281 L 15.730469 101.359375 L 14.4375 101.359375 Z M 12.957031 102.347656 " fill-opacity="1" fill-rule="nonzero"/></svg>