<svg xmlns="http://www.w3.org/2000/svg" xmlns:xlink="http://www.w3.org/1999/xlink" width="250" zoomAndPan="magnify" viewBox="0 0 187.5 187.499992" height="250" preserveAspectRatio="xMidYMid meet" version="1.0"><defs><clipPath id="d13203f896"><path d="M 0 68.742188 L 43 68.742188 L 43 112 L 0 112 Z M 0 68.742188 " clip-rule="nonzero"/></clipPath><clipPath id="dd93fc1e21"><path d="M 27 96 L 49.367188 96 L 49.367188 118.109375 L 27 118.109375 Z M 27 96 " clip-rule="nonzero"/></clipPath></defs><path fill="#d8ebc6" d="M 21.324219 76.082031 C 21.238281 75.277344 20.878906 74.546875 20.332031 74.015625 C 19.71875 73.382812 18.863281 73.007812 17.925781 73.007812 C 16.988281 73.007812 16.21875 73.777344 16.21875 74.714844 C 16.21875 75.65625 16.988281 76.421875 17.925781 76.421875 L 14.511719 76.421875 C 12.632812 76.421875 11.097656 74.886719 11.097656 73.007812 C 11.097656 72.070312 11.472656 71.214844 12.105469 70.601562 C 12.71875 69.96875 13.570312 69.59375 14.511719 69.59375 C 16.390625 69.59375 18.097656 70.363281 19.34375 71.589844 C 20.503906 72.769531 21.238281 74.339844 21.324219 76.082031 Z M 21.324219 76.082031 " fill-opacity="1" fill-rule="nonzero"/><path fill="#d8ebc6" d="M 31.582031 73.007812 C 31.582031 74.886719 30.046875 76.421875 28.167969 76.421875 L 24.753906 76.421875 C 25.691406 76.421875 26.460938 75.65625 26.460938 74.714844 C 26.460938 73.777344 25.691406 73.007812 24.753906 73.007812 C 23.816406 73.007812 22.960938 73.382812 22.347656 74.015625 C 21.800781 74.546875 21.441406 75.277344 21.355469 76.082031 C 21.441406 74.339844 22.175781 72.769531 23.335938 71.589844 C 24.582031 70.363281 26.289062 69.59375 28.167969 69.59375 C 29.109375 69.59375 29.960938 69.96875 30.574219 70.601562 C 31.207031 71.214844 31.582031 72.070312 31.582031 73.007812 Z M 31.582031 73.007812 " fill-opacity="1" fill-rule="nonzero"/><path fill="#65a225" d="M 0.855469 76.421875 L 16.21875 76.421875 L 16.21875 83.25 L 0.855469 83.25 Z M 0.855469 76.421875 " fill-opacity="1" fill-rule="nonzero"/><path fill="#65a225" d="M 26.460938 76.421875 L 41.828125 76.421875 L 41.828125 83.25 L 26.460938 83.25 Z M 26.460938 76.421875 " fill-opacity="1" fill-rule="nonzero"/><path fill="#c3e1a4" d="M 40.117188 83.25 L 40.117188 97.0625 C 39.574219 96.960938 38.992188 96.910156 38.410156 96.910156 C 32.761719 96.910156 28.167969 101.5 28.167969 107.152344 C 28.167969 108.347656 28.375 109.492188 28.765625 110.566406 L 24.753906 110.566406 L 24.753906 83.25 Z M 40.117188 83.25 " fill-opacity="1" fill-rule="nonzero"/><path fill="#c3e1a4" d="M 2.5625 83.25 L 17.925781 83.25 L 17.925781 110.566406 L 2.5625 110.566406 Z M 2.5625 83.25 " fill-opacity="1" fill-rule="nonzero"/><path fill="#d8ebc6" d="M 26.460938 76.421875 L 26.460938 83.25 L 24.753906 83.25 L 24.753906 110.566406 L 17.925781 110.566406 L 17.925781 83.25 L 16.21875 83.25 L 16.21875 76.421875 Z M 26.460938 76.421875 " fill-opacity="1" fill-rule="nonzero"/><path fill="#fbe77b" d="M 48.65625 107.152344 C 48.65625 112.804688 44.0625 117.394531 38.410156 117.394531 C 33.957031 117.394531 30.148438 114.542969 28.765625 110.566406 C 28.375 109.492188 28.167969 108.347656 28.167969 107.152344 C 28.167969 101.5 32.761719 96.910156 38.410156 96.910156 C 38.992188 96.910156 39.574219 96.960938 40.117188 97.0625 C 44.96875 97.867188 48.65625 102.082031 48.65625 107.152344 Z M 48.65625 107.152344 " fill-opacity="1" fill-rule="nonzero"/><g clip-path="url(#d13203f896)"><path fill="#000000" d="M 0.855469 84.105469 L 1.707031 84.105469 L 1.707031 100.324219 C 1.707031 100.796875 2.089844 101.175781 2.5625 101.175781 C 3.03125 101.175781 3.414062 100.796875 3.414062 100.324219 L 3.414062 84.105469 L 17.070312 84.105469 L 17.070312 109.714844 L 3.414062 109.714844 L 3.414062 107.152344 C 3.414062 106.679688 3.03125 106.300781 2.5625 106.300781 C 2.089844 106.300781 1.707031 106.679688 1.707031 107.152344 L 1.707031 110.566406 C 1.707031 111.039062 2.089844 111.421875 2.5625 111.421875 L 24.753906 111.421875 C 25.226562 111.421875 25.609375 111.039062 25.609375 110.566406 L 25.609375 84.105469 L 39.265625 84.105469 L 39.265625 93.597656 C 39.265625 94.070312 39.648438 94.453125 40.117188 94.453125 C 40.589844 94.453125 40.972656 94.070312 40.972656 93.597656 L 40.972656 84.105469 L 41.828125 84.105469 C 42.296875 84.105469 42.679688 83.722656 42.679688 83.25 L 42.679688 76.421875 C 42.679688 75.953125 42.296875 75.570312 41.828125 75.570312 L 31.5625 75.570312 C 32.101562 74.855469 32.4375 73.972656 32.4375 73.007812 C 32.4375 70.65625 30.523438 68.742188 28.167969 68.742188 C 25.175781 68.742188 22.609375 70.476562 21.339844 72.976562 C 20.070312 70.476562 17.503906 68.742188 14.511719 68.742188 C 12.15625 68.742188 10.242188 70.65625 10.242188 73.007812 C 10.242188 73.972656 10.578125 74.855469 11.117188 75.570312 L 0.855469 75.570312 C 0.382812 75.570312 0 75.953125 0 76.421875 L 0 83.25 C 0 83.722656 0.382812 84.105469 0.855469 84.105469 Z M 23.902344 109.714844 L 18.777344 109.714844 L 18.777344 84.105469 L 23.902344 84.105469 Z M 24.753906 82.398438 L 17.070312 82.398438 L 17.070312 77.277344 L 25.609375 77.277344 L 25.609375 82.398438 Z M 17.070312 74.714844 C 17.070312 74.246094 17.457031 73.863281 17.925781 73.863281 C 19.039062 73.863281 19.988281 74.574219 20.339844 75.570312 L 17.925781 75.570312 C 17.457031 75.570312 17.070312 75.1875 17.070312 74.714844 Z M 24.753906 75.570312 L 22.339844 75.570312 C 22.691406 74.574219 23.640625 73.863281 24.753906 73.863281 C 25.222656 73.863281 25.609375 74.246094 25.609375 74.714844 C 25.609375 75.1875 25.222656 75.570312 24.753906 75.570312 Z M 40.972656 82.398438 L 27.316406 82.398438 L 27.316406 77.277344 L 40.972656 77.277344 Z M 28.167969 70.449219 C 29.582031 70.449219 30.730469 71.597656 30.730469 73.007812 C 30.730469 74.421875 29.582031 75.570312 28.167969 75.570312 L 27.15625 75.570312 C 27.253906 75.300781 27.316406 75.015625 27.316406 74.714844 C 27.316406 73.304688 26.167969 72.15625 24.753906 72.15625 C 24.476562 72.15625 24.203125 72.1875 23.941406 72.238281 C 25.023438 71.144531 26.511719 70.449219 28.167969 70.449219 Z M 11.949219 73.007812 C 11.949219 71.597656 13.097656 70.449219 14.511719 70.449219 C 16.167969 70.449219 17.65625 71.144531 18.738281 72.238281 C 18.476562 72.1875 18.203125 72.15625 17.925781 72.15625 C 16.511719 72.15625 15.363281 73.304688 15.363281 74.714844 C 15.363281 75.015625 15.425781 75.300781 15.523438 75.570312 L 14.511719 75.570312 C 13.097656 75.570312 11.949219 74.421875 11.949219 73.007812 Z M 1.707031 77.277344 L 15.363281 77.277344 L 15.363281 82.398438 L 1.707031 82.398438 Z M 1.707031 77.277344 " fill-opacity="1" fill-rule="nonzero"/></g><g clip-path="url(#dd93fc1e21)"><path fill="#000000" d="M 38.410156 96.054688 C 32.292969 96.054688 27.316406 101.035156 27.316406 107.152344 C 27.316406 113.269531 32.292969 118.25 38.410156 118.25 C 44.53125 118.25 49.507812 113.269531 49.507812 107.152344 C 49.507812 101.035156 44.53125 96.054688 38.410156 96.054688 Z M 38.410156 116.542969 C 33.234375 116.542969 29.023438 112.328125 29.023438 107.152344 C 29.023438 101.976562 33.234375 97.761719 38.410156 97.761719 C 43.589844 97.761719 47.800781 101.976562 47.800781 107.152344 C 47.800781 112.328125 43.589844 116.542969 38.410156 116.542969 Z M 38.410156 116.542969 " fill-opacity="1" fill-rule="nonzero"/></g><path fill="#000000" d="M 41.828125 104.59375 C 42.296875 104.59375 42.679688 104.210938 42.679688 103.738281 C 42.679688 103.265625 42.296875 102.882812 41.828125 102.882812 L 39.265625 102.882812 L 39.265625 102.03125 C 39.265625 101.558594 38.882812 101.175781 38.410156 101.175781 C 37.941406 101.175781 37.558594 101.558594 37.558594 102.03125 L 37.558594 102.882812 L 36.703125 102.882812 C 35.292969 102.882812 34.144531 104.035156 34.144531 105.445312 C 34.144531 106.859375 35.292969 108.007812 36.703125 108.007812 L 37.558594 108.007812 L 37.558594 109.714844 L 34.996094 109.714844 C 34.527344 109.714844 34.144531 110.09375 34.144531 110.566406 C 34.144531 111.039062 34.527344 111.421875 34.996094 111.421875 L 37.558594 111.421875 L 37.558594 112.273438 C 37.558594 112.746094 37.941406 113.128906 38.410156 113.128906 C 38.882812 113.128906 39.265625 112.746094 39.265625 112.273438 L 39.265625 111.421875 L 40.117188 111.421875 C 41.53125 111.421875 42.679688 110.273438 42.679688 108.859375 C 42.679688 107.449219 41.53125 106.300781 40.117188 106.300781 L 39.265625 106.300781 L 39.265625 104.59375 Z M 40.117188 108.007812 C 40.589844 108.007812 40.972656 108.390625 40.972656 108.859375 C 40.972656 109.328125 40.589844 109.714844 40.117188 109.714844 L 39.265625 109.714844 L 39.265625 108.007812 Z M 37.558594 106.300781 L 36.703125 106.300781 C 36.234375 106.300781 35.851562 105.914062 35.851562 105.445312 C 35.851562 104.976562 36.234375 104.59375 36.703125 104.59375 L 37.558594 104.59375 Z M 37.558594 106.300781 " fill-opacity="1" fill-rule="nonzero"/><path fill="#000000" d="M 3.414062 103.738281 C 3.414062 103.972656 3.332031 104.175781 3.164062 104.34375 C 2.996094 104.507812 2.796875 104.59375 2.5625 104.59375 C 2.324219 104.59375 2.125 104.507812 1.957031 104.34375 C 1.789062 104.175781 1.707031 103.972656 1.707031 103.738281 C 1.707031 103.503906 1.789062 103.300781 1.957031 103.132812 C 2.125 102.96875 2.324219 102.882812 2.5625 102.882812 C 2.796875 102.882812 2.996094 102.96875 3.164062 103.132812 C 3.332031 103.300781 3.414062 103.503906 3.414062 103.738281 Z M 3.414062 103.738281 " fill-opacity="1" fill-rule="nonzero"/></svg>