<svg xmlns="http://www.w3.org/2000/svg" xmlns:xlink="http://www.w3.org/1999/xlink" width="250" zoomAndPan="magnify" viewBox="0 0 187.5 187.499992" height="250" preserveAspectRatio="xMidYMid meet" version="1.0"><defs><clipPath id="6f4a814801"><path d="M 147.191406 67.980469 L 186.835938 67.980469 L 186.835938 118.847656 L 147.191406 118.847656 Z M 147.191406 67.980469 " clip-rule="nonzero"/></clipPath></defs><path fill="#ffd740" d="M 159.675781 83.277344 L 159.675781 89.828125 L 162.683594 91.222656 L 162.683594 84.75 Z M 159.675781 83.277344 " fill-opacity="1" fill-rule="nonzero"/><path fill="#ffd740" d="M 162.683594 84.75 L 172.539062 79.058594 L 169.835938 77.507812 L 159.671875 83.277344 Z M 162.683594 84.75 " fill-opacity="1" fill-rule="nonzero"/><path fill="#a2d66d" d="M 167.09375 72.480469 C 166.09375 72.480469 165.097656 72.578125 164.113281 72.773438 C 163.132812 72.96875 162.175781 73.261719 161.25 73.644531 C 160.324219 74.027344 159.441406 74.5 158.609375 75.054688 C 157.773438 75.613281 157.003906 76.246094 156.292969 76.957031 C 155.582031 77.664062 154.949219 78.4375 154.394531 79.269531 C 153.835938 80.105469 153.363281 80.984375 152.980469 81.910156 C 152.597656 82.839844 152.308594 83.792969 152.113281 84.777344 C 151.914062 85.761719 151.816406 86.753906 151.816406 87.757812 C 151.816406 88.761719 151.914062 89.753906 152.113281 90.738281 C 152.308594 91.722656 152.597656 92.679688 152.980469 93.605469 C 153.363281 94.53125 153.835938 95.414062 154.394531 96.246094 C 154.949219 97.082031 155.582031 97.851562 156.292969 98.5625 C 157.003906 99.269531 157.773438 99.902344 158.609375 100.460938 C 159.441406 101.019531 160.324219 101.488281 161.25 101.875 C 162.175781 102.257812 163.132812 102.546875 164.113281 102.742188 C 165.097656 102.9375 166.09375 103.035156 167.09375 103.035156 C 168.097656 103.035156 169.09375 102.9375 170.074219 102.742188 C 171.058594 102.546875 172.015625 102.257812 172.941406 101.875 C 173.867188 101.488281 174.75 101.019531 175.582031 100.460938 C 176.417969 99.902344 177.1875 99.269531 177.898438 98.5625 C 178.609375 97.851562 179.242188 97.082031 179.796875 96.246094 C 180.355469 95.414062 180.828125 94.53125 181.210938 93.605469 C 181.59375 92.679688 181.882812 91.722656 182.078125 90.738281 C 182.273438 89.753906 182.375 88.761719 182.375 87.757812 C 182.371094 86.753906 182.273438 85.761719 182.078125 84.777344 C 181.878906 83.796875 181.589844 82.839844 181.207031 81.914062 C 180.820312 80.988281 180.351562 80.109375 179.792969 79.273438 C 179.234375 78.441406 178.601562 77.667969 177.894531 76.960938 C 177.183594 76.25 176.414062 75.617188 175.578125 75.0625 C 174.746094 74.503906 173.867188 74.03125 172.9375 73.648438 C 172.011719 73.265625 171.058594 72.972656 170.074219 72.777344 C 169.089844 72.582031 168.097656 72.480469 167.09375 72.480469 Z M 177.417969 93.453125 C 177.417969 93.632812 177.339844 93.765625 177.183594 93.855469 L 167.328125 99.519531 C 167.171875 99.609375 167.019531 99.609375 166.863281 99.519531 L 157.007812 93.855469 C 156.851562 93.765625 156.773438 93.632812 156.773438 93.453125 L 156.773438 81.867188 L 156.777344 81.863281 L 166.863281 76.070312 C 167.019531 75.980469 167.171875 75.980469 167.328125 76.070312 L 177.414062 81.863281 L 177.417969 81.867188 Z M 177.417969 93.453125 " fill-opacity="1" fill-rule="nonzero"/><g clip-path="url(#6f4a814801)"><path fill="#17724f" d="M 167.09375 67.992188 C 166.449219 67.992188 165.804688 68.027344 165.160156 68.089844 C 164.515625 68.15625 163.875 68.25 163.242188 68.375 C 162.605469 68.503906 161.980469 68.660156 161.359375 68.847656 C 160.742188 69.039062 160.132812 69.253906 159.535156 69.503906 C 158.9375 69.75 158.351562 70.027344 157.78125 70.332031 C 157.210938 70.640625 156.65625 70.972656 156.121094 71.332031 C 155.582031 71.691406 155.0625 72.074219 154.5625 72.488281 C 154.0625 72.898438 153.582031 73.332031 153.125 73.789062 C 152.667969 74.246094 152.234375 74.726562 151.824219 75.226562 C 151.414062 75.726562 151.027344 76.246094 150.667969 76.78125 C 150.308594 77.320312 149.976562 77.875 149.671875 78.445312 C 149.367188 79.015625 149.089844 79.601562 148.839844 80.199219 C 148.59375 80.796875 148.375 81.40625 148.1875 82.023438 C 148 82.644531 147.839844 83.269531 147.714844 83.902344 C 147.585938 84.539062 147.492188 85.179688 147.425781 85.820312 C 147.363281 86.464844 147.332031 87.113281 147.332031 87.757812 C 147.332031 92.035156 148.777344 96.25 151.746094 100.640625 C 155.640625 106.394531 165.957031 118.21875 166.394531 118.71875 C 166.480469 118.820312 166.585938 118.898438 166.710938 118.957031 C 166.832031 119.011719 166.960938 119.039062 167.09375 119.039062 C 167.230469 119.039062 167.359375 119.011719 167.480469 118.957031 C 167.605469 118.898438 167.710938 118.820312 167.796875 118.71875 C 168.234375 118.21875 178.550781 106.394531 182.445312 100.640625 C 185.414062 96.25 186.859375 92.035156 186.859375 87.757812 C 186.859375 87.113281 186.828125 86.464844 186.761719 85.820312 C 186.699219 85.179688 186.605469 84.539062 186.476562 83.902344 C 186.351562 83.269531 186.191406 82.644531 186.003906 82.023438 C 185.816406 81.40625 185.597656 80.796875 185.351562 80.199219 C 185.101562 79.601562 184.824219 79.015625 184.519531 78.445312 C 184.214844 77.875 183.882812 77.320312 183.523438 76.78125 C 183.164062 76.246094 182.777344 75.726562 182.367188 75.226562 C 181.957031 74.726562 181.523438 74.246094 181.066406 73.789062 C 180.609375 73.332031 180.128906 72.898438 179.628906 72.488281 C 179.128906 72.074219 178.609375 71.691406 178.070312 71.332031 C 177.535156 70.972656 176.980469 70.640625 176.410156 70.332031 C 175.835938 70.027344 175.253906 69.75 174.65625 69.503906 C 174.058594 69.253906 173.449219 69.039062 172.832031 68.847656 C 172.210938 68.660156 171.585938 68.503906 170.949219 68.375 C 170.316406 68.25 169.675781 68.15625 169.03125 68.089844 C 168.386719 68.027344 167.742188 67.992188 167.09375 67.992188 Z M 180.898438 99.597656 C 177.648438 104.402344 169.535156 113.863281 167.09375 116.683594 C 164.65625 113.863281 156.542969 104.402344 153.292969 99.597656 C 150.539062 95.523438 149.195312 91.652344 149.195312 87.757812 C 149.195312 87.171875 149.226562 86.585938 149.28125 86.003906 C 149.339844 85.421875 149.425781 84.84375 149.542969 84.269531 C 149.65625 83.691406 149.796875 83.125 149.96875 82.566406 C 150.140625 82.003906 150.335938 81.453125 150.5625 80.910156 C 150.785156 80.371094 151.035156 79.839844 151.3125 79.324219 C 151.589844 78.808594 151.890625 78.304688 152.214844 77.816406 C 152.542969 77.332031 152.890625 76.859375 153.261719 76.40625 C 153.632812 75.957031 154.027344 75.523438 154.441406 75.105469 C 154.855469 74.691406 155.289062 74.300781 155.742188 73.929688 C 156.195312 73.558594 156.667969 73.207031 157.152344 72.882812 C 157.640625 72.558594 158.144531 72.257812 158.660156 71.980469 C 159.175781 71.703125 159.707031 71.453125 160.246094 71.230469 C 160.789062 71.003906 161.339844 70.808594 161.902344 70.636719 C 162.460938 70.46875 163.03125 70.324219 163.605469 70.210938 C 164.179688 70.097656 164.757812 70.011719 165.339844 69.953125 C 165.925781 69.898438 166.507812 69.867188 167.09375 69.867188 C 167.683594 69.867188 168.265625 69.898438 168.847656 69.953125 C 169.433594 70.011719 170.011719 70.097656 170.585938 70.210938 C 171.160156 70.324219 171.730469 70.46875 172.289062 70.636719 C 172.851562 70.808594 173.402344 71.003906 173.945312 71.230469 C 174.484375 71.453125 175.015625 71.703125 175.53125 71.980469 C 176.046875 72.257812 176.550781 72.558594 177.039062 72.882812 C 177.523438 73.207031 177.996094 73.558594 178.449219 73.929688 C 178.902344 74.300781 179.335938 74.691406 179.75 75.105469 C 180.164062 75.523438 180.558594 75.957031 180.929688 76.40625 C 181.300781 76.859375 181.648438 77.332031 181.976562 77.816406 C 182.300781 78.304688 182.601562 78.808594 182.878906 79.324219 C 183.15625 79.839844 183.40625 80.371094 183.628906 80.910156 C 183.855469 81.453125 184.050781 82.003906 184.222656 82.566406 C 184.394531 83.125 184.535156 83.691406 184.648438 84.269531 C 184.765625 84.84375 184.851562 85.421875 184.90625 86.003906 C 184.964844 86.585938 184.996094 87.171875 184.996094 87.757812 C 184.996094 91.652344 183.652344 95.523438 180.898438 99.597656 Z M 177.921875 82.105469 C 177.933594 81.730469 177.773438 81.449219 177.449219 81.261719 L 167.5625 75.585938 C 167.25 75.40625 166.941406 75.40625 166.628906 75.585938 L 156.742188 81.261719 C 156.414062 81.453125 156.257812 81.734375 156.273438 82.113281 C 156.273438 82.128906 156.269531 82.144531 156.269531 82.160156 L 156.269531 93.441406 C 156.269531 93.800781 156.425781 94.074219 156.738281 94.253906 L 166.628906 99.933594 C 166.941406 100.109375 167.253906 100.109375 167.5625 99.933594 L 177.453125 94.253906 C 177.765625 94.074219 177.921875 93.800781 177.921875 93.441406 Z M 167.09375 85.863281 L 164.863281 84.773438 L 172.3125 80.472656 L 174.988281 82.007812 Z M 161.988281 83.367188 L 169.71875 78.980469 L 170.433594 79.394531 L 162.835938 83.78125 Z M 160.921875 84.929688 L 161.933594 85.425781 L 161.933594 89.578125 L 160.921875 89.109375 Z M 167.09375 77.476562 L 167.832031 77.898438 L 159.953125 82.371094 L 159.203125 82.007812 Z M 158.140625 92.898438 L 158.140625 83.570312 L 159.050781 84.015625 L 159.050781 89.707031 C 159.050781 90.105469 159.230469 90.390625 159.59375 90.558594 L 162.476562 91.894531 C 162.621094 91.960938 162.773438 91.988281 162.933594 91.976562 C 163.09375 91.96875 163.242188 91.917969 163.375 91.832031 C 163.511719 91.746094 163.617188 91.632812 163.691406 91.492188 C 163.769531 91.351562 163.808594 91.203125 163.808594 91.042969 L 163.808594 86.339844 L 166.160156 87.488281 L 166.160156 97.503906 Z M 168.03125 97.503906 L 168.03125 87.488281 L 176.050781 83.570312 L 176.050781 92.898438 Z M 168.03125 97.503906 " fill-opacity="1" fill-rule="nonzero"/></g></svg>