<svg xmlns="http://www.w3.org/2000/svg" xmlns:xlink="http://www.w3.org/1999/xlink" width="249" zoomAndPan="magnify" viewBox="0 0 186.75 374.999991" height="500" preserveAspectRatio="xMidYMid meet" version="1.0"><defs><clipPath id="90d651a6ea"><path d="M 0 0.25 L 185.75 0.25 L 185.75 374.75 L 0 374.75 Z M 0 0.25 " clip-rule="nonzero"/></clipPath></defs><g clip-path="url(#90d651a6ea)"><path fill="#090909" d="M 81.917969 374.042969 C 75.71875 372.609375 70.269531 370.308594 68.628906 368.441406 C 67.695312 367.378906 67.675781 367.300781 67.832031 365.269531 C 67.917969 364.128906 67.878906 362.59375 67.742188 361.851562 C 67.0625 358.214844 66.308594 340.027344 65.847656 315.886719 C 65.410156 292.730469 64.695312 278.554688 63.199219 263.148438 C 60.328125 233.519531 56.898438 203.535156 56.386719 203.542969 C 56.296875 203.542969 54.980469 212.1875 53.476562 222.753906 C 49.535156 250.378906 48.769531 255.398438 45.855469 272.496094 C 41.144531 300.121094 40.25 304.472656 34.480469 327.648438 C 32.710938 334.753906 30.074219 345.933594 28.613281 352.484375 C 26.179688 363.421875 25.613281 365.875 25.230469 367.203125 C 25.148438 367.507812 25.308594 367.734375 25.683594 367.832031 C 26.585938 368.066406 26.46875 369.503906 25.476562 370.453125 C 23.339844 372.492188 16.625 374.0625 11.058594 373.824219 C 7.765625 373.679688 6.496094 373.273438 6.242188 372.261719 C 5.484375 369.230469 12.40625 366.289062 20.28125 366.289062 C 22.132812 366.289062 23.652344 366.21875 23.652344 366.132812 C 23.652344 364.726562 29.703125 338.289062 32.976562 325.382812 C 37.234375 308.597656 38.757812 301.496094 41.621094 284.988281 C 42.355469 280.773438 43.597656 273.640625 44.390625 269.140625 C 45.179688 264.636719 46.296875 258 46.871094 254.378906 C 47.84375 248.257812 52.5625 216.542969 52.5625 216.109375 C 52.5625 215.773438 48.71875 216.363281 46.886719 216.984375 C 44.371094 217.835938 43.976562 218.191406 44.183594 219.4375 C 44.597656 221.996094 46.21875 223.84375 49.042969 224.988281 C 49.910156 225.332031 50.675781 225.785156 50.742188 225.980469 C 50.804688 226.179688 50.390625 226.535156 49.800781 226.78125 C 46.800781 228.039062 42.34375 224.339844 42.34375 220.589844 C 42.34375 219.378906 42.304688 219.320312 40.546875 218.292969 C 35.492188 215.324219 27.675781 208.261719 20.921875 200.554688 C 19.691406 199.144531 15.59375 194.109375 11.804688 189.355469 C 4.5625 180.257812 4.746094 180.5625 5.984375 179.433594 C 6.164062 179.269531 7.011719 177.890625 7.882812 176.367188 C 9.949219 172.726562 14.695312 165.023438 19.121094 158.105469 C 26.59375 146.425781 38.433594 126.5 46.160156 112.597656 L 49.199219 107.125 L 49.886719 107.8125 L 50.574219 108.492188 L 47.152344 114.601562 C 42.640625 122.664062 34.699219 136.371094 31.6875 141.304688 C 30.359375 143.472656 28.117188 147.152344 26.703125 149.480469 C 25.289062 151.816406 22.828125 155.757812 21.226562 158.25 C 18.277344 162.828125 13.15625 171.113281 9.507812 177.195312 L 7.523438 180.503906 L 8.394531 181.429688 C 8.875 181.9375 11.886719 185.507812 15.101562 189.367188 C 26.828125 203.445312 35.710938 212.171875 42.226562 215.992188 L 43.597656 216.796875 L 44.753906 216.128906 C 46.660156 215.03125 49.09375 214.332031 51.035156 214.3125 C 52.660156 214.292969 52.875 214.230469 53.003906 213.671875 C 53.507812 211.472656 54.949219 200 55.207031 196.097656 C 55.382812 193.53125 55.578125 191.371094 55.648438 191.300781 C 55.71875 191.230469 56.121094 191.488281 56.542969 191.878906 C 57.261719 192.542969 57.292969 192.695312 57.152344 194.820312 C 57.074219 196.046875 57.113281 197.167969 57.25 197.304688 C 57.527344 197.582031 58.667969 204.160156 59.542969 210.550781 C 60.308594 216.082031 61.195312 224.015625 63.496094 245.90625 C 66.929688 278.542969 67.386719 285.71875 68.046875 318.078125 C 68.207031 326.03125 68.472656 338.851562 68.636719 346.570312 C 68.796875 354.277344 68.851562 361.320312 68.746094 362.210938 L 68.566406 363.816406 L 70.75 363.707031 C 73.71875 363.558594 76.976562 364.421875 81.042969 366.410156 C 84.59375 368.15625 88.222656 370.582031 88.953125 371.695312 C 89.984375 373.273438 88.558594 374.78125 86.089844 374.742188 C 85.402344 374.742188 83.523438 374.417969 81.917969 374.042969 Z M 86.847656 372.390625 C 85.332031 370.691406 79.917969 367.605469 75.925781 366.152344 C 73.1875 365.152344 68.921875 364.757812 68.921875 365.503906 C 68.921875 366.308594 70.960938 367.992188 73.269531 369.089844 C 77.105469 370.917969 83.867188 372.914062 86.414062 372.988281 C 87.40625 373.011719 87.40625 373.011719 86.847656 372.390625 Z M 15.179688 371.832031 C 19.378906 371.390625 24.527344 369.933594 24.527344 369.1875 C 24.527344 368.449219 23.046875 368.1875 18.835938 368.195312 C 14.847656 368.195312 14.234375 368.277344 12.082031 369 C 9.539062 369.855469 7.945312 370.851562 8.40625 371.3125 C 8.648438 371.554688 10.738281 372.015625 11.972656 372.09375 C 12.210938 372.117188 13.65625 371.996094 15.179688 371.832031 Z M 55.941406 188.273438 C 55.539062 187.753906 54.175781 186.007812 52.917969 184.402344 C 51.667969 182.792969 50.082031 180.660156 49.398438 179.652344 C 48.71875 178.648438 48.03125 177.824219 47.882812 177.824219 C 47.421875 177.824219 47.554688 176.164062 48.324219 172.125 C 49.472656 166.152344 51.28125 154.515625 52.550781 144.957031 C 54.765625 128.265625 55.636719 118.972656 55.433594 114.265625 L 55.3125 111.542969 L 53.910156 109.984375 C 51.394531 107.203125 50.96875 106.699219 49.859375 105.179688 L 48.769531 103.683594 L 49.386719 102.253906 C 49.722656 101.472656 50.308594 100.503906 50.675781 100.101562 C 51.054688 99.699219 51.890625 98.457031 52.542969 97.335938 C 53.566406 95.578125 53.730469 95.050781 53.730469 93.574219 L 53.730469 91.855469 L 52.707031 92.050781 C 50.714844 92.425781 42.816406 92.257812 39.566406 91.769531 C 26.425781 89.8125 12.238281 80.324219 7.011719 70.007812 C 5.96875 67.941406 4.804688 64.683594 4.15625 62.027344 C 3.351562 58.714844 3.457031 47.585938 4.332031 43.421875 C 7.316406 29.195312 15.664062 17.621094 25.839844 13.59375 C 27.085938 13.109375 28.234375 12.304688 29.78125 10.84375 C 32.484375 8.308594 35.207031 6.480469 39.328125 4.433594 C 44.539062 1.84375 49.476562 0.308594 51.3125 0.703125 C 51.855469 0.820312 52.167969 1.027344 52.042969 1.195312 C 51.925781 1.359375 49.859375 2.136719 47.457031 2.933594 C 42.207031 4.660156 36.554688 7.414062 33.3125 9.8125 C 32.019531 10.78125 30.953125 11.628906 30.953125 11.707031 C 30.953125 11.785156 31.3125 11.707031 31.757812 11.539062 C 35.769531 9.984375 38.648438 9.09375 41.695312 8.476562 C 43.675781 8.074219 46.003906 7.433594 46.878906 7.050781 C 51.148438 5.15625 62.195312 2.050781 63.277344 2.433594 C 63.851562 2.636719 63.359375 3.382812 62.53125 3.5625 C 62.109375 3.652344 58.882812 4.671875 55.363281 5.824219 L 48.964844 7.914062 L 52.296875 8.257812 C 57.773438 8.816406 60.9375 9.800781 66.246094 12.613281 C 78.804688 19.261719 86.5 29.371094 89.390625 43.007812 C 90.101562 46.359375 90.25 53.65625 89.675781 56.859375 C 88.210938 65.035156 83.867188 73.394531 77.890625 79.554688 C 74.480469 83.070312 71.132812 85.527344 66.816406 87.691406 C 64.085938 89.058594 58.847656 90.941406 56.289062 91.472656 C 55.679688 91.601562 55.484375 91.808594 55.484375 92.347656 C 55.484375 92.738281 55.617188 93.140625 55.777344 93.234375 C 55.941406 93.332031 56.070312 93.671875 56.070312 93.980469 C 56.070312 94.300781 56.25 94.550781 56.472656 94.550781 C 56.878906 94.550781 62.9375 101.109375 63.582031 102.25 C 64.289062 103.515625 64.027344 104.285156 62.335938 105.957031 C 61.441406 106.832031 60.371094 108.144531 59.957031 108.871094 C 59.542969 109.589844 58.867188 110.542969 58.460938 110.984375 L 57.722656 111.78125 L 58.65625 114.953125 C 60.644531 121.726562 62.148438 129.109375 63.496094 138.671875 C 64.839844 148.230469 65.15625 152.671875 65.3125 163.949219 C 65.449219 173.851562 65.414062 174.992188 64.898438 177.574219 L 64.328125 180.378906 L 60.742188 184.800781 C 58.773438 187.234375 57.046875 189.226562 56.917969 189.226562 C 56.789062 189.226562 56.347656 188.796875 55.941406 188.273438 Z M 56.378906 89.171875 C 64.648438 87.445312 72.445312 83.183594 77.367188 77.707031 C 79.464844 75.363281 82.6875 70.488281 84.113281 67.511719 C 85.433594 64.730469 86.898438 60.464844 87.179688 58.5625 C 87.554688 56.023438 87.664062 48.207031 87.355469 46.191406 C 86.011719 37.457031 82.226562 29.65625 76.375 23.585938 C 70.457031 17.453125 62.285156 12.628906 55.214844 11.097656 C 49.050781 9.761719 40.980469 9.898438 35.433594 11.421875 L 34.019531 11.8125 L 35.335938 11.84375 C 36.054688 11.863281 36.847656 12 37.085938 12.148438 C 37.988281 12.71875 36.8125 13.132812 33.65625 13.355469 C 23.683594 14.042969 15.644531 20.292969 10.214844 31.582031 C 7.523438 37.191406 6.3125 41.859375 5.808594 48.625 C 5.320312 55.03125 5.8125 59.847656 7.410156 64.425781 C 10.433594 73.082031 17.5 80.183594 28.472656 85.589844 C 32.414062 87.535156 36.683594 88.820312 42.050781 89.683594 C 42.453125 89.746094 45.078125 89.8125 47.890625 89.839844 C 52.257812 89.863281 53.496094 89.773438 56.378906 89.171875 Z M 42.996094 80.203125 C 40.726562 79.828125 38.492188 78.964844 36.742188 77.796875 C 34.648438 76.402344 32.304688 73.9375 32.515625 73.375 C 32.722656 72.828125 33.230469 72.828125 35.480469 73.375 C 40.222656 74.515625 49.121094 73.289062 56.90625 70.410156 C 63.035156 68.148438 69.167969 64.679688 73.886719 60.808594 C 74.765625 60.082031 75.65625 59.492188 75.855469 59.492188 C 77.597656 59.492188 73.296875 67.609375 69.375 71.71875 C 65.484375 75.800781 59.570312 78.964844 53.75 80.066406 C 51.144531 80.566406 45.578125 80.628906 42.996094 80.203125 Z M 54.222656 78.054688 C 59.957031 76.835938 65.921875 73.554688 69.097656 69.867188 C 70.671875 68.039062 75.019531 62.011719 74.878906 61.859375 C 74.820312 61.792969 74.203125 62.265625 73.503906 62.910156 C 70.4375 65.734375 64.390625 69.28125 59.128906 71.34375 C 52.148438 74.074219 47.132812 75.230469 41.039062 75.515625 L 36.957031 75.707031 L 38.738281 76.65625 C 39.71875 77.175781 41.292969 77.789062 42.238281 78.015625 C 44.570312 78.585938 51.640625 78.605469 54.222656 78.0625 Z M 39.230469 52.210938 C 37.105469 51.238281 35.875 48.148438 36.347656 44.992188 C 36.496094 43.988281 36.847656 43.324219 37.726562 42.367188 C 38.738281 41.269531 39.082031 41.082031 40.042969 41.082031 C 42.265625 41.082031 44.765625 44.597656 44.738281 47.675781 C 44.726562 49.386719 44.242188 50.511719 43.023438 51.644531 C 41.875 52.714844 40.714844 52.882812 39.230469 52.210938 Z M 56.742188 47.539062 C 55.148438 46.535156 54.773438 45.132812 55.199219 41.769531 C 55.660156 38.105469 57.386719 35.847656 59.117188 36.632812 C 60.703125 37.359375 62.433594 41.996094 62.058594 44.511719 C 61.644531 47.289062 58.863281 48.871094 56.742188 47.539062 Z M 25.078125 40.128906 C 24.921875 38.398438 26.25 36.0625 28.875 33.480469 C 31.847656 30.558594 35.308594 28.742188 35.550781 29.980469 C 35.609375 30.257812 34.832031 30.886719 33.410156 31.726562 C 30.636719 33.359375 27.726562 36.359375 26.996094 38.34375 C 26.371094 40.039062 26.054688 40.5 25.515625 40.5 C 25.289062 40.5 25.097656 40.328125 25.078125 40.128906 Z M 63.367188 26.117188 C 60.5625 24.992188 57.566406 24.742188 54.949219 25.414062 C 52.90625 25.933594 52.40625 25.84375 52.855469 25.019531 C 53.742188 23.351562 60.410156 22.78125 63.730469 24.09375 C 64.648438 24.457031 65.453125 24.84375 65.519531 24.953125 C 65.804688 25.433594 66.023438 27.054688 65.804688 27.023438 C 65.667969 27.003906 64.574219 26.601562 63.367188 26.117188 Z M 2.917969 184.042969 C 0.539062 182.402344 0.03125 181.195312 0.589844 178.511719 C 0.972656 176.65625 2.347656 174.816406 2.921875 175.378906 C 3.175781 175.632812 3.144531 175.933594 2.800781 176.59375 C 1.992188 178.167969 1.9375 179.574219 2.617188 181.632812 C 2.960938 182.667969 3.519531 183.734375 3.851562 183.992188 C 4.84375 184.761719 4.027344 184.808594 2.917969 184.042969 Z M 106.019531 165.097656 C 104.613281 164.480469 103.964844 163.832031 103.964844 163.039062 C 103.964844 162.003906 104.386719 161.972656 105.910156 162.910156 C 106.707031 163.398438 108.210938 163.949219 109.363281 164.175781 C 110.746094 164.449219 111.410156 164.714844 111.410156 164.992188 C 111.410156 165.609375 107.355469 165.6875 106.019531 165.097656 Z M 109.65625 160.660156 C 109.175781 160.597656 108.320312 160.117188 107.761719 159.597656 C 107.199219 159.078125 105.953125 158.066406 104.996094 157.355469 C 100.289062 153.859375 86.679688 139.585938 78.261719 129.320312 C 74.457031 124.683594 64.261719 111.652344 62.875 109.65625 L 62.101562 108.546875 L 62.90625 107.753906 L 63.710938 106.96875 L 64.539062 107.996094 C 64.992188 108.550781 67.898438 112.234375 70.988281 116.171875 C 80.367188 128.109375 85.589844 134.257812 94.171875 143.457031 C 98.722656 148.335938 110.324219 159.207031 110.769531 159.015625 C 111.085938 158.882812 112.785156 158.328125 123.675781 154.832031 C 132.675781 151.9375 144.71875 147.171875 152.398438 143.476562 C 155.9375 141.773438 157.34375 140.914062 159.046875 139.417969 C 160.863281 137.828125 161.59375 137.402344 163.617188 136.738281 C 165.722656 136.050781 166.617188 135.9375 170.84375 135.824219 C 176.773438 135.65625 180.261719 136.164062 183.09375 137.582031 C 185.289062 138.683594 185.6875 139.179688 185.285156 140.324219 C 184.34375 143.011719 178.835938 143.988281 168.136719 143.394531 C 164.726562 143.199219 161.039062 142.914062 159.9375 142.757812 C 158.121094 142.492188 157.867188 142.523438 157.085938 143.074219 C 155.839844 143.964844 148.59375 147.394531 143.375 149.566406 C 135.292969 152.9375 126.46875 156.0625 116.8125 158.980469 C 110.523438 160.882812 110.789062 160.816406 109.65625 160.660156 Z M 180.914062 141.246094 C 183.921875 140.617188 183.988281 140.027344 181.167969 138.976562 C 177.605469 137.640625 170.429688 137.078125 166.292969 137.808594 C 163.304688 138.339844 160.125 139.515625 159.632812 140.265625 L 159.183594 140.953125 L 161.289062 141.167969 C 168.082031 141.867188 177.757812 141.90625 180.914062 141.246094 Z M 180.914062 141.246094 " fill-opacity="1" fill-rule="nonzero"/></g></svg>