<svg xmlns="http://www.w3.org/2000/svg" xmlns:xlink="http://www.w3.org/1999/xlink" width="700" zoomAndPan="magnify" viewBox="0 0 525 374.999991" height="500" preserveAspectRatio="xMidYMid meet" version="1.0"><defs><clipPath id="de5a9065c9"><path d="M 79.335938 4.335938 L 445.664062 4.335938 L 445.664062 370.664062 L 79.335938 370.664062 Z M 79.335938 4.335938 " clip-rule="nonzero"/></clipPath><clipPath id="4848586c91"><path d="M 262.5 4.335938 C 161.34375 4.335938 79.335938 86.34375 79.335938 187.5 C 79.335938 288.65625 161.34375 370.664062 262.5 370.664062 C 363.65625 370.664062 445.664062 288.65625 445.664062 187.5 C 445.664062 86.34375 363.65625 4.335938 262.5 4.335938 Z M 262.5 4.335938 " clip-rule="nonzero"/></clipPath></defs><rect x="-52.5" width="630" fill="#ffffff" y="-37.499999" height="449.999989" fill-opacity="1"/><rect x="-52.5" width="630" fill="#ffffff" y="-37.499999" height="449.999989" fill-opacity="1"/><g clip-path="url(#de5a9065c9)"><g clip-path="url(#4848586c91)"><path fill="#dff8d1" d="M 79.335938 4.335938 L 445.664062 4.335938 L 445.664062 370.664062 L 79.335938 370.664062 Z M 79.335938 4.335938 " fill-opacity="1" fill-rule="nonzero"/></g></g><path fill="#268108" d="M 333.011719 103.558594 C 328.847656 107.410156 324.625 111.3125 319.910156 115.664062 C 318.316406 114.644531 316.4375 113.515625 314.632812 112.277344 C 260.609375 75.203125 185.75 102.902344 170.027344 166.519531 C 156.894531 219.652344 191.058594 266.585938 236.375 278.277344 C 283.449219 290.417969 329.15625 267.957031 347.914062 223.777344 C 355.574219 205.734375 356.78125 186.984375 352.382812 168.039062 C 350.882812 161.585938 351.058594 156.308594 355.511719 151.195312 C 357.953125 148.394531 359.75 145.039062 362.359375 141.160156 C 363.703125 143.085938 364.902344 144.269531 365.484375 145.699219 C 378.398438 177.511719 377.925781 209.246094 361.746094 239.460938 C 338.9375 282.046875 302.164062 303.21875 254.128906 300.515625 C 182.445312 296.476562 137.585938 230.644531 150.0625 167.023438 C 160.101562 115.84375 208.238281 71.8125 271.148438 76.851562 C 291.691406 78.5 310.519531 85.632812 327.328125 97.75 C 328.761719 98.785156 330.164062 99.875 331.480469 101.050781 C 332.007812 101.519531 332.261719 102.292969 333.011719 103.558594 Z M 333.011719 103.558594 " fill-opacity="1" fill-rule="nonzero"/><path fill="#268108" d="M 259.226562 203.652344 C 265.03125 197.226562 269.992188 191.554688 275.144531 186.0625 C 304.355469 154.921875 333.554688 123.773438 362.90625 92.765625 C 367.40625 88.019531 372.558594 83.863281 377.636719 79.710938 C 379.644531 78.070312 382.269531 77.191406 384.613281 75.964844 C 387.414062 79.824219 385.542969 82.527344 384.039062 85.007812 C 378.410156 94.292969 372.886719 103.664062 366.816406 112.65625 C 337.84375 155.578125 308.785156 198.4375 279.519531 241.160156 C 275.710938 246.722656 270.851562 251.691406 265.90625 256.320312 C 261.054688 260.855469 258.539062 260.644531 253.148438 256.835938 C 250.886719 255.238281 248.628906 253.523438 246.75 251.511719 C 227.945312 231.40625 209.058594 211.371094 190.546875 190.992188 C 182.902344 182.578125 184.128906 177.480469 193.953125 171.84375 C 195.699219 170.839844 197.589844 170.085938 199.378906 169.140625 C 209.261719 163.933594 217.828125 164.652344 226.003906 173.214844 C 234.1875 181.785156 243.351562 189.417969 252.105469 197.4375 C 254.109375 199.273438 256.195312 201.015625 259.226562 203.652344 Z M 259.226562 203.652344 " fill-opacity="1" fill-rule="nonzero"/></svg>