<svg xmlns="http://www.w3.org/2000/svg" xmlns:xlink="http://www.w3.org/1999/xlink" width="720" zoomAndPan="magnify" viewBox="0 0 540 374.999991" height="500" preserveAspectRatio="xMidYMid meet" version="1.0"><defs><clipPath id="6104cfbdbd"><path d="M 424.261719 257.113281 L 440.023438 257.113281 L 440.023438 375 L 424.261719 375 Z M 424.261719 257.113281 " clip-rule="nonzero"/></clipPath><clipPath id="a138af966f"><path d="M 246.667969 257.113281 L 262.429688 257.113281 L 262.429688 374.214844 L 246.667969 374.214844 Z M 246.667969 257.113281 " clip-rule="nonzero"/></clipPath><clipPath id="7bdca87abb"><path d="M 163.347656 52.683594 L 491.097656 52.683594 L 491.097656 375 L 163.347656 375 Z M 163.347656 52.683594 " clip-rule="nonzero"/></clipPath></defs><path stroke-linecap="butt" transform="matrix(0.75, 0, 0, 0.75, 0.00000648, 373.46309)" fill="none" stroke-linejoin="miter" d="M -0.00000864 1.002339 L 720.000039 1.002339 " stroke="#231f20" stroke-width="2" stroke-opacity="1" stroke-miterlimit="4"/><g clip-path="url(#6104cfbdbd)"><path fill="#b68b47" d="M 424.261719 257.113281 L 440.023438 257.113281 L 440.023438 375.023438 L 424.261719 375.023438 Z M 424.261719 257.113281 " fill-opacity="1" fill-rule="nonzero"/></g><g clip-path="url(#a138af966f)"><path fill="#b68b47" d="M 246.667969 257.113281 L 262.429688 257.113281 L 262.429688 374.222656 L 246.667969 374.222656 Z M 246.667969 257.113281 " fill-opacity="1" fill-rule="nonzero"/></g><g clip-path="url(#7bdca87abb)"><path fill="#000000" d="M 190.519531 375.015625 L 163.503906 374.976562 L 163.40625 374.65625 C 163.339844 374.457031 163.378906 374.289062 163.507812 374.210938 C 163.621094 374.140625 182.140625 374.082031 204.667969 374.078125 C 227.195312 374.078125 245.65625 374.042969 245.695312 374.003906 C 245.730469 373.964844 245.695312 373.839844 245.59375 373.726562 C 245.464844 373.570312 245.421875 358.84375 245.421875 315.289062 L 245.421875 257.0625 L 222.03125 257.023438 C 201.417969 256.988281 198.601562 257.007812 198.316406 257.210938 C 197.902344 257.503906 197.664062 257.496094 197.550781 257.195312 C 197.433594 256.894531 197.433594 202.457031 197.550781 118.800781 C 197.625 66.5625 197.605469 54.726562 197.445312 54.429688 C 197.277344 54.113281 197.292969 53.992188 197.570312 53.503906 C 197.921875 52.890625 198.332031 52.707031 198.539062 53.082031 C 198.664062 53.300781 210.871094 53.320312 344.460938 53.316406 C 472.40625 53.316406 490.28125 53.285156 490.539062 53.089844 C 490.917969 52.804688 491.171875 52.8125 491.28125 53.113281 C 491.398438 53.414062 491.398438 109.890625 491.28125 185.253906 C 491.230469 218.859375 491.253906 242.707031 491.328125 242.707031 C 491.402344 242.707031 491.730469 242.578125 492.054688 242.425781 C 494.128906 241.433594 504.382812 237.320312 514.675781 233.359375 C 520.097656 231.269531 522.742188 230.179688 523 229.933594 C 523.070312 229.859375 523.1875 228.902344 523.257812 227.800781 C 523.324219 226.699219 523.402344 225.5 523.425781 225.132812 L 523.46875 224.464844 L 522.007812 224.207031 C 517.152344 223.34375 511.363281 220.140625 508.292969 216.625 C 506.179688 214.203125 505.09375 212.105469 504.335938 208.992188 C 503.921875 207.285156 503.976562 201.5625 504.425781 199.417969 C 505.757812 193.085938 509.335938 187.472656 513.621094 185 C 514.734375 184.355469 515.289062 184.128906 518.730469 182.914062 C 520.738281 182.210938 521.328125 181.933594 521.816406 181.480469 C 523.507812 179.90625 525.335938 178.820312 527.527344 178.097656 C 530.316406 177.167969 533.644531 177.070312 535.96875 177.847656 C 537.578125 178.382812 538.109375 178.835938 538.164062 179.710938 C 538.1875 180.136719 538.132812 180.398438 538.015625 180.441406 C 537.910156 180.476562 537.824219 180.417969 537.824219 180.304688 C 537.824219 179.957031 536.144531 179.007812 534.894531 178.652344 C 533.894531 178.367188 533.359375 178.308594 531.738281 178.328125 C 529.566406 178.347656 528.335938 178.601562 526.316406 179.441406 C 525.167969 179.917969 522.855469 181.347656 522.996094 181.488281 C 523.039062 181.53125 523.417969 181.488281 523.839844 181.398438 C 524.265625 181.304688 525.1875 181.234375 525.894531 181.234375 C 526.96875 181.234375 527.429688 181.144531 528.730469 180.703125 C 531.402344 179.792969 534.769531 179.734375 537.296875 180.558594 C 538.71875 181.023438 539.242188 181.375 539.625 182.128906 C 539.941406 182.742188 539.875 183.007812 539.492188 182.6875 C 538.996094 182.273438 535.503906 181.242188 534.042969 181.082031 C 532.738281 180.933594 530.277344 181.066406 530.046875 181.292969 C 530.011719 181.328125 530.378906 181.433594 530.859375 181.527344 C 533.117188 181.964844 536.503906 183.46875 538.816406 185.0625 C 543.84375 188.519531 546.925781 193.160156 548.214844 199.207031 C 548.585938 200.929688 548.660156 204.671875 548.363281 206.332031 C 547.605469 210.535156 545.367188 214.839844 542.304688 217.996094 C 539.820312 220.554688 537.015625 222.300781 533.535156 223.453125 C 531.152344 224.238281 529.3125 224.53125 526.640625 224.539062 L 524.464844 224.554688 L 524.386719 225.332031 C 524.339844 225.757812 524.265625 226.871094 524.21875 227.804688 C 524.136719 229.390625 524.144531 229.503906 524.398438 229.460938 C 524.585938 229.429688 524.6875 229.523438 524.71875 229.753906 C 524.746094 229.945312 525.261719 230.921875 525.863281 231.933594 C 526.464844 232.945312 527.832031 235.292969 528.910156 237.152344 C 529.980469 239.011719 531.929688 242.363281 533.238281 244.59375 C 536.417969 250.011719 539.738281 256.707031 540.242188 258.710938 C 540.339844 259.089844 540.476562 259.441406 540.550781 259.488281 C 540.753906 259.609375 540.707031 260.421875 540.492188 260.554688 C 540.386719 260.621094 539.976562 261.214844 539.574219 261.871094 C 537.074219 265.972656 533.691406 269.117188 527.710938 272.914062 C 521.671875 276.742188 512.601562 280.710938 505.703125 282.546875 C 504.683594 282.816406 504.460938 282.929688 504.390625 283.214844 C 504.28125 283.660156 503.875 283.917969 502.546875 284.398438 C 500.53125 285.125 498.042969 285.554688 495.839844 285.550781 C 493.707031 285.550781 492.875 285.402344 492.410156 284.941406 C 491.972656 284.503906 492.054688 283.976562 492.660156 283.304688 C 493.992188 281.828125 498.675781 281.09375 503.117188 281.664062 C 504.402344 281.828125 504.488281 281.820312 506.210938 281.34375 C 515.269531 278.835938 526.304688 273.46875 532.414062 268.59375 C 535.503906 266.128906 538.164062 263.046875 539.527344 260.355469 L 539.917969 259.582031 L 539.601562 259.304688 C 539.429688 259.148438 538.292969 256.992188 537.078125 254.515625 C 535.859375 252.035156 534.105469 248.683594 533.175781 247.074219 C 530.890625 243.121094 528.175781 238.351562 526.007812 234.480469 L 524.21875 231.277344 L 524.171875 238.460938 C 524.128906 244.792969 524.253906 249.46875 524.539062 252.183594 L 524.625 253.011719 L 523.34375 251.753906 L 523.199219 249.976562 C 523.121094 249 523.050781 244.324219 523.039062 239.585938 C 523.023438 231.957031 522.996094 230.980469 522.796875 231.046875 C 522.667969 231.085938 521.71875 231.488281 520.683594 231.941406 C 519.652344 232.394531 516.542969 233.640625 513.769531 234.71875 C 506.675781 237.476562 496.390625 241.574219 494.554688 242.378906 C 493.703125 242.75 493.058594 243.105469 493.128906 243.167969 C 493.261719 243.285156 497.765625 244.910156 500.917969 245.972656 C 503.597656 246.875 506.632812 247.765625 511.546875 249.085938 C 515.664062 250.191406 515.714844 250.199219 516.355469 249.976562 C 516.804688 249.820312 517.28125 249.777344 517.90625 249.839844 C 520.054688 250.0625 521.640625 250.867188 523.394531 252.628906 C 525.304688 254.550781 526.25 256.679688 526.054688 258.609375 C 525.832031 260.738281 523.839844 261.355469 521.644531 259.976562 C 520.746094 259.414062 518.363281 256.996094 517.46875 255.742188 C 516.609375 254.539062 515.738281 252.789062 515.601562 252.007812 C 515.5 251.390625 515.492188 251.386719 514.523438 251.128906 C 504.066406 248.335938 500.285156 247.136719 493.703125 244.535156 C 492.464844 244.042969 491.394531 243.675781 491.335938 243.714844 C 491.128906 243.839844 491.195312 255.609375 491.402344 255.9375 C 491.554688 256.179688 491.53125 256.332031 491.261719 256.800781 C 490.898438 257.433594 490.535156 257.59375 490.269531 257.230469 C 490.109375 257.011719 487.878906 256.996094 465.660156 257.03125 L 441.230469 257.070312 L 441.230469 261.316406 C 441.230469 263.652344 441.25 289.980469 441.269531 319.820312 L 441.308594 374.082031 L 486.667969 374.082031 C 531.609375 374.082031 532.03125 374.070312 531.484375 373.785156 C 530.359375 373.191406 530.042969 372.347656 530.605469 371.425781 C 531.140625 370.546875 532.128906 370.085938 534.414062 369.652344 L 534.839844 369.570312 L 534.746094 365.101562 C 534.695312 362.648438 534.589844 358.75 534.511719 356.441406 C 534.433594 354.132812 534.394531 352.21875 534.425781 352.183594 C 534.460938 352.152344 534.703125 352.3125 534.960938 352.546875 L 535.4375 352.96875 L 535.574219 357.707031 C 535.648438 360.308594 535.710938 364.046875 535.714844 366.011719 L 535.714844 369.582031 L 536.128906 369.59375 C 537.625 369.632812 539.191406 369.863281 539.546875 370.097656 C 540.121094 370.472656 540.398438 371.214844 540.214844 371.878906 C 539.992188 372.675781 539.550781 373.136719 538.527344 373.632812 L 537.59375 374.085938 L 553.339844 374.085938 C 568.765625 374.085938 569.089844 374.101562 569.089844 374.378906 C 569.089844 374.535156 569.046875 374.777344 568.996094 374.910156 C 568.90625 375.140625 555.414062 375.152344 393.210938 375.113281 C 296.578125 375.089844 205.359375 375.050781 190.503906 375.03125 Z M 261.816406 316.921875 C 261.816406 285.488281 261.851562 259.363281 261.894531 258.867188 C 261.933594 258.371094 261.996094 257.742188 262.027344 257.476562 L 262.089844 256.988281 L 256.867188 256.988281 L 256.347656 258.003906 C 256.0625 258.566406 255.441406 259.664062 254.964844 260.445312 C 254.488281 261.230469 253.761719 262.480469 253.351562 263.222656 C 252.9375 263.96875 252.5 264.710938 252.375 264.878906 C 252.167969 265.160156 252.160156 265.144531 252.25 264.65625 C 252.371094 263.984375 253.019531 262.746094 254.804688 259.777344 C 255.597656 258.460938 256.246094 257.292969 256.246094 257.179688 C 256.246094 257.019531 256.011719 256.984375 255.242188 257.015625 L 254.234375 257.0625 L 253.277344 258.714844 C 251.863281 261.160156 250.03125 264.050781 249.898438 264.050781 C 249.734375 264.050781 249.753906 263.789062 249.921875 263.683594 C 250 263.632812 250.351562 263.070312 250.703125 262.433594 C 251.054688 261.792969 251.898438 260.347656 252.578125 259.214844 C 253.261719 258.085938 253.777344 257.121094 253.726562 257.074219 C 253.679688 257.027344 253.144531 256.988281 252.539062 256.988281 L 251.441406 256.988281 L 251.121094 257.625 C 250.945312 257.976562 250.195312 259.324219 249.453125 260.621094 L 248.101562 262.984375 L 248.027344 268.589844 C 247.984375 271.671875 247.921875 274.292969 247.886719 274.410156 C 247.632812 275.195312 247.539062 273.335938 247.445312 265.660156 L 247.332031 256.96875 L 246.867188 257.015625 L 246.398438 257.0625 L 246.398438 315.15625 C 246.398438 360.679688 246.359375 373.335938 246.214844 373.664062 L 246.03125 374.074219 L 261.808594 374.074219 L 261.808594 316.921875 Z M 247.265625 373.539062 C 247.203125 373.378906 247.152344 371.078125 247.15625 368.421875 C 247.15625 364.066406 247.191406 363.554688 247.429688 363.1875 C 247.582031 362.957031 247.800781 362.804688 247.949219 362.832031 C 248.234375 362.886719 248.382812 363.394531 248.15625 363.535156 C 248.070312 363.59375 247.9375 365.65625 247.835938 368.585938 C 247.679688 373.226562 247.5625 374.253906 247.265625 373.539062 Z M 260.757812 364.832031 C 260.828125 363.429688 261.09375 362.8125 261.171875 363.855469 C 261.230469 364.613281 261.007812 366.152344 260.832031 366.210938 C 260.734375 366.242188 260.707031 365.75 260.757812 364.832031 Z M 247.429688 356.226562 C 247.359375 354.679688 247.300781 337.296875 247.300781 317.605469 C 247.300781 284.03125 247.316406 281.78125 247.558594 281.539062 C 247.800781 281.300781 247.824219 281.308594 247.980469 281.71875 C 248.179688 282.242188 248.121094 358.367188 247.921875 358.78125 C 247.851562 358.925781 247.742188 359.046875 247.675781 359.046875 C 247.613281 359.046875 247.5 357.777344 247.429688 356.226562 Z M 260.195312 356.980469 C 260.132812 356.75 260.078125 334.332031 260.078125 307.15625 C 260.078125 259.921875 260.09375 257.738281 260.347656 257.480469 C 260.582031 257.246094 260.632812 257.242188 260.761719 257.4375 C 260.941406 257.722656 260.882812 356.574219 260.699219 357.054688 C 260.527344 357.507812 260.335938 357.480469 260.195312 356.980469 Z M 259.101562 265.488281 C 259.101562 265.277344 259.171875 265.101562 259.253906 265.101562 C 259.335938 265.101562 259.402344 265.234375 259.402344 265.394531 C 259.402344 265.554688 259.335938 265.726562 259.253906 265.78125 C 259.167969 265.832031 259.101562 265.707031 259.101562 265.488281 Z M 255.648438 265.0625 C 255.628906 264.542969 259.398438 257.945312 259.515625 258.300781 C 259.542969 258.382812 258.972656 259.425781 258.253906 260.613281 C 257.53125 261.800781 256.648438 263.316406 256.296875 263.976562 C 255.941406 264.636719 255.652344 265.128906 255.648438 265.0625 Z M 424.175781 373.933594 C 424.175781 373.859375 424.109375 373.75 424.027344 373.699219 C 423.921875 373.636719 423.875 354.214844 423.878906 315.332031 L 423.878906 257.0625 L 262.785156 257.0625 L 262.800781 261.871094 C 262.800781 264.519531 262.824219 290.84375 262.835938 320.378906 L 262.863281 374.074219 L 343.519531 374.074219 C 393.820312 374.074219 424.175781 374.023438 424.175781 373.933594 Z M 440.269531 316.921875 C 440.269531 285.488281 440.304688 259.363281 440.347656 258.867188 C 440.386719 258.371094 440.449219 257.742188 440.484375 257.476562 C 440.542969 257.007812 440.519531 256.988281 440.042969 256.988281 C 439.421875 256.988281 439.367188 257.160156 439.363281 259.191406 C 439.363281 260.230469 439.417969 260.738281 439.539062 260.78125 C 439.675781 260.824219 439.675781 261.046875 439.539062 261.730469 C 439.410156 262.390625 439.351562 272.527344 439.316406 300.457031 C 439.292969 321.261719 439.222656 338.335938 439.167969 338.394531 C 439.105469 338.457031 439.007812 338.449219 438.945312 338.394531 C 438.886719 338.332031 438.832031 335.632812 438.832031 332.394531 C 438.832031 289.25 438.742188 263.601562 438.582031 263.695312 C 438.460938 263.773438 438.445312 263.695312 438.53125 263.441406 C 438.601562 263.242188 438.683594 262.132812 438.71875 260.976562 L 438.78125 258.871094 L 437.210938 261.125 C 436.351562 262.367188 435.378906 263.78125 435.058594 264.273438 C 434.734375 264.761719 434.390625 265.191406 434.285156 265.222656 C 434.066406 265.296875 435.921875 262.25 437.582031 259.8125 C 438.363281 258.667969 438.75 257.949219 438.78125 257.59375 C 438.832031 257.074219 438.824219 257.070312 438.214844 257.023438 C 437.648438 256.980469 437.574219 257.023438 437.445312 257.402344 C 437.363281 257.632812 436.566406 258.667969 435.675781 259.699219 C 434.785156 260.734375 433.699219 262.050781 433.261719 262.628906 C 432.539062 263.582031 430.570312 266.621094 430.433594 266.988281 C 430.40625 267.070312 430.335938 267.097656 430.277344 267.046875 C 430.070312 266.855469 430.859375 265.171875 431.847656 263.703125 C 432.796875 262.289062 433.582031 261.3125 436.015625 258.515625 C 436.53125 257.921875 436.953125 257.335938 436.953125 257.214844 C 436.953125 257.039062 436.730469 256.992188 435.894531 256.992188 C 434.863281 256.992188 434.828125 257.007812 434.578125 257.457031 C 434.226562 258.105469 433.210938 259.519531 431.605469 261.605469 C 430.851562 262.582031 429.769531 264.160156 429.203125 265.109375 C 428.636719 266.0625 428.148438 266.867188 428.125 266.902344 C 428.101562 266.9375 428.046875 266.925781 428.003906 266.882812 C 427.875 266.753906 428.382812 265.585938 429.089844 264.378906 C 429.449219 263.773438 430.398438 262.421875 431.207031 261.382812 C 433.582031 258.320312 434.398438 257.226562 434.398438 257.105469 C 434.398438 257.042969 433.253906 256.992188 431.851562 256.992188 L 429.300781 256.992188 L 428.632812 258.007812 C 428.265625 258.566406 427.785156 259.265625 427.566406 259.558594 C 427.1875 260.074219 427.171875 260.167969 427.214844 261.730469 L 427.257812 263.359375 L 427.820312 262.449219 C 428.128906 261.949219 428.929688 260.839844 429.597656 259.988281 C 430.261719 259.136719 430.902344 258.214844 431.015625 257.941406 C 431.230469 257.4375 431.542969 257.269531 431.542969 257.660156 C 431.542969 258.164062 431.144531 258.808594 429.792969 260.488281 C 429.007812 261.46875 428.097656 262.652344 427.773438 263.113281 L 427.183594 263.957031 L 427.164062 315.074219 C 427.148438 343.1875 427.105469 366.386719 427.050781 366.628906 C 426.933594 367.175781 426.617188 367.304688 426.523438 366.839844 C 426.445312 366.480469 426.285156 307.210938 426.277344 277.734375 L 426.277344 261.125 L 425.898438 261.558594 C 425.335938 262.195312 425.273438 261.914062 425.816406 261.179688 C 426.28125 260.546875 426.285156 260.515625 426.285156 258.757812 L 426.285156 256.976562 L 424.855469 257.070312 L 424.855469 315.160156 C 424.855469 360.683594 424.816406 373.34375 424.671875 373.667969 L 424.488281 374.082031 L 440.265625 374.082031 L 440.265625 316.925781 Z M 438.390625 358.5625 C 438.230469 352.457031 438.339844 343.324219 438.570312 343.09375 C 438.671875 342.992188 438.789062 342.9375 438.824219 342.976562 C 438.945312 343.097656 439.007812 353.46875 438.917969 358.132812 C 438.859375 361.226562 438.78125 362.570312 438.664062 362.609375 C 438.542969 362.648438 438.464844 361.515625 438.390625 358.5625 Z M 538 372.957031 C 538.851562 372.652344 539.339844 372.21875 539.339844 371.765625 C 539.339844 370.484375 535.546875 369.691406 533.207031 370.480469 C 530.449219 371.414062 530.574219 372.710938 533.476562 373.234375 C 534.300781 373.382812 537.320312 373.195312 538 372.957031 Z M 499.398438 284.335938 C 501.136719 283.988281 502.605469 283.539062 503.480469 283.089844 L 504.082031 282.78125 L 503.480469 282.660156 C 502.285156 282.421875 498.242188 282.339844 496.949219 282.527344 C 494.566406 282.878906 492.785156 283.636719 493.195312 284.132812 C 493.492188 284.488281 494.234375 284.617188 496.089844 284.628906 C 497.332031 284.644531 498.339844 284.550781 499.398438 284.335938 Z M 249.460938 259.660156 C 250.132812 258.359375 250.683594 257.226562 250.683594 257.144531 C 250.683594 257.046875 250.214844 256.988281 249.496094 256.988281 C 248.554688 256.988281 248.292969 257.035156 248.21875 257.222656 C 248.121094 257.476562 248.089844 262.191406 248.183594 262.085938 C 248.214844 262.050781 248.789062 260.960938 249.460938 259.660156 Z M 524.917969 259.367188 C 525.242188 258.761719 524.988281 257.351562 524.308594 255.980469 C 523.226562 253.796875 521.21875 251.972656 519.148438 251.285156 C 517.949219 250.890625 516.699219 250.707031 516.847656 250.953125 C 516.910156 251.050781 516.847656 251.167969 516.71875 251.214844 C 516.589844 251.265625 516.484375 251.402344 516.484375 251.519531 C 516.484375 251.886719 517.472656 253.707031 518.207031 254.707031 C 519.105469 255.929688 521.148438 258.054688 522.066406 258.726562 C 523.347656 259.671875 524.605469 259.953125 524.917969 259.367188 Z M 428.074219 257.707031 L 428.402344 257.148438 L 428.019531 257.050781 C 427.332031 256.878906 427.183594 257.050781 427.183594 257.992188 C 427.183594 258.839844 427.183594 258.851562 427.460938 258.558594 C 427.613281 258.398438 427.886719 258.011719 428.074219 257.707031 Z M 490.277344 155.453125 C 490.292969 100.230469 490.277344 54.898438 490.238281 54.710938 L 490.171875 54.375 L 344.378906 54.410156 L 198.589844 54.449219 L 198.5625 154.851562 C 198.550781 210.074219 198.5625 255.410156 198.605469 255.597656 L 198.671875 255.933594 L 344.460938 255.898438 L 490.25 255.859375 Z M 531.230469 222.953125 C 535.484375 222.070312 539.5 219.875 542.035156 217.058594 C 543.113281 215.851562 544.773438 213.34375 545.507812 211.8125 C 546.1875 210.382812 546.941406 208.1875 547.085938 207.210938 C 547.277344 205.902344 547.332031 201.882812 547.175781 200.847656 C 546.492188 196.398438 544.539062 192.351562 541.597656 189.292969 C 538.507812 186.078125 534.316406 183.589844 530.65625 182.796875 C 527.773438 182.175781 523.1875 182.15625 521.605469 182.761719 C 521.394531 182.84375 520.925781 182.933594 520.566406 182.960938 C 519.6875 183.035156 519.582031 183.1875 520.40625 183.1875 C 520.773438 183.1875 521.171875 183.253906 521.296875 183.332031 C 521.761719 183.628906 521.15625 183.839844 519.53125 183.953125 C 514.394531 184.304688 510.257812 187.523438 507.464844 193.332031 C 506.078125 196.214844 505.457031 198.617188 505.191406 202.097656 C 504.726562 208.308594 506.15625 212.535156 510.039062 216.429688 C 512.335938 218.730469 516.050781 221 519.484375 222.199219 C 521.042969 222.742188 523.320312 223.195312 523.921875 223.082031 C 524.21875 223.027344 524.460938 223.058594 524.519531 223.152344 C 524.589844 223.261719 525.460938 223.320312 527.058594 223.316406 C 529.042969 223.316406 529.8125 223.25 531.230469 222.953125 Z M 520.828125 212.34375 C 519.210938 212.160156 517.953125 211.804688 516.753906 211.203125 C 515.808594 210.726562 515.417969 210.359375 515.632812 210.144531 C 515.675781 210.097656 516.410156 210.300781 517.265625 210.589844 C 519.632812 211.398438 520.351562 211.507812 523.175781 211.503906 C 525.128906 211.503906 526.167969 211.417969 527.566406 211.167969 C 531.878906 210.394531 535.941406 208.871094 538.875 206.921875 C 539.597656 206.441406 540.046875 206.226562 540.140625 206.324219 C 540.5 206.683594 539.304688 207.703125 537.082031 208.929688 C 534.824219 210.175781 530.855469 211.488281 527.683594 212.039062 C 525.667969 212.390625 522.457031 212.53125 520.828125 212.34375 Z M 530.15625 201.585938 C 529.390625 200.773438 529.820312 197.714844 530.851562 196.621094 C 531.242188 196.207031 531.441406 196.113281 531.941406 196.113281 C 532.632812 196.113281 533.027344 196.480469 533.335938 197.421875 C 533.574219 198.152344 533.433594 199.667969 533.054688 200.414062 C 532.3125 201.867188 530.941406 202.421875 530.15625 201.585938 Z M 520.753906 200.507812 C 520.574219 200.480469 520.273438 200.289062 520.082031 200.082031 C 519.609375 199.578125 519.507812 198.101562 519.859375 196.8125 C 520.195312 195.582031 520.363281 195.390625 521.351562 195.109375 C 522.132812 194.886719 522.222656 194.890625 522.585938 195.128906 C 523.734375 195.882812 523.609375 198.339844 522.347656 199.777344 C 521.863281 200.324219 521.28125 200.59375 520.753906 200.507812 Z M 536.03125 192.359375 C 536.03125 192.21875 533.234375 190.785156 532.273438 190.429688 C 531.769531 190.246094 531.757812 190.230469 532.039062 190.019531 C 532.441406 189.714844 532.589844 189.734375 533.859375 190.265625 C 534.519531 190.539062 535.285156 191.007812 535.730469 191.40625 C 536.53125 192.128906 536.609375 192.273438 536.257812 192.410156 C 536.128906 192.457031 536.03125 192.433594 536.03125 192.359375 Z M 518.894531 191.53125 C 518.894531 191.246094 520.316406 190.523438 521.679688 190.113281 C 522.492188 189.867188 522.875 189.824219 523.402344 189.921875 L 524.078125 190.050781 L 523.550781 190.21875 C 522.535156 190.542969 520.914062 191.121094 520.125 191.433594 C 519.1875 191.8125 518.894531 191.832031 518.894531 191.53125 Z M 548.144531 373.085938 C 547.984375 372.929688 547.910156 372.574219 547.910156 371.984375 C 547.910156 370.46875 548.683594 368.695312 550.550781 365.933594 C 551.171875 365.011719 551.625 364.214844 551.5625 364.152344 C 551.144531 363.785156 547.339844 360.871094 543.472656 357.964844 C 531.03125 348.609375 525.039062 343.828125 522.449219 341.191406 L 521.570312 340.296875 L 521.746094 339.113281 C 522.402344 334.628906 524.371094 325.992188 526.691406 317.398438 C 528.773438 309.671875 529.484375 306.933594 530.53125 302.566406 C 531.058594 300.347656 531.703125 297.808594 531.964844 296.925781 C 532.386719 295.472656 532.410156 295.277344 532.222656 294.902344 C 531.339844 293.171875 528.589844 284.820312 527.621094 280.929688 C 527.042969 278.640625 526.265625 275.105469 526.257812 274.777344 C 526.257812 274.71875 527.351562 274.113281 527.382812 274.152344 C 527.402344 274.175781 527.496094 274.636719 527.59375 275.175781 C 527.691406 275.710938 528.1875 277.839844 528.695312 279.90625 C 529.644531 283.777344 532.273438 291.878906 533.382812 294.335938 L 533.925781 295.539062 L 533.925781 299.296875 C 533.9375 305.644531 534.359375 326.382812 534.59375 331.929688 C 534.71875 334.8125 534.929688 339.476562 535.058594 342.285156 C 535.1875 345.097656 535.273438 347.855469 535.25 348.417969 L 535.203125 349.433594 L 534.726562 349.019531 L 534.246094 348.597656 L 533.859375 340.03125 C 533.253906 326.789062 533.1875 324.609375 533.019531 312.300781 C 532.929688 305.976562 532.847656 299.988281 532.828125 298.996094 L 532.792969 297.195312 L 531.558594 302.453125 C 530.46875 307.082031 529.335938 311.496094 527.773438 317.226562 C 526.839844 320.640625 525.8125 324.621094 525.136719 327.445312 C 524.417969 330.449219 522.648438 339.132812 522.648438 339.648438 C 522.648438 340.160156 525.441406 342.542969 533.851562 349.199219 C 535 350.109375 536.277344 351.082031 536.6875 351.363281 C 537.585938 351.976562 547.527344 359.453125 550.632812 361.851562 C 552.292969 363.132812 552.945312 363.554688 553.277344 363.554688 C 553.945312 363.554688 554.21875 363.960938 554.21875 364.941406 C 554.21875 367.351562 551.625 372.183594 549.835938 373.109375 C 549.289062 373.394531 548.433594 373.382812 548.140625 373.085938 Z M 550.457031 371.410156 C 551.433594 370.316406 552.769531 367.667969 553.101562 366.171875 C 553.332031 365.136719 553.332031 365.023438 553.101562 364.679688 C 552.96875 364.472656 552.800781 364.304688 552.730469 364.304688 C 552.660156 364.304688 552.265625 364.796875 551.851562 365.394531 C 550.113281 367.925781 548.957031 370.367188 548.957031 371.5 C 548.957031 372.578125 549.4375 372.550781 550.453125 371.410156 Z M 525.746094 272.199219 C 525.523438 271.4375 524.308594 262.582031 524.308594 261.722656 C 524.308594 261.542969 524.519531 261.28125 524.828125 261.082031 L 525.351562 260.746094 L 525.421875 261.082031 C 525.460938 261.269531 525.566406 262.132812 525.660156 263 C 525.75 263.867188 526.054688 266.132812 526.34375 268.03125 C 526.625 269.933594 526.859375 271.59375 526.859375 271.722656 C 526.859375 271.855469 526.625 272.074219 526.339844 272.207031 C 525.859375 272.441406 525.820312 272.4375 525.746094 272.195312 Z M 525.746094 272.199219 " fill-opacity="1" fill-rule="nonzero"/></g></svg>