<svg xmlns="http://www.w3.org/2000/svg" xmlns:xlink="http://www.w3.org/1999/xlink" width="700" zoomAndPan="magnify" viewBox="0 0 525 374.999991" height="500" preserveAspectRatio="xMidYMid meet" version="1.0"><defs><clipPath id="58c942e869"><path d="M 78.292969 3.292969 L 446.707031 3.292969 L 446.707031 371.707031 L 78.292969 371.707031 Z M 78.292969 3.292969 " clip-rule="nonzero"/></clipPath><clipPath id="3b68366837"><path d="M 262.5 3.292969 C 160.765625 3.292969 78.292969 85.765625 78.292969 187.5 C 78.292969 289.234375 160.765625 371.707031 262.5 371.707031 C 364.234375 371.707031 446.707031 289.234375 446.707031 187.5 C 446.707031 85.765625 364.234375 3.292969 262.5 3.292969 Z M 262.5 3.292969 " clip-rule="nonzero"/></clipPath><clipPath id="4627b7c6f9"><path d="M 132 66 L 396.738281 66 L 396.738281 313.046875 L 132 313.046875 Z M 132 66 " clip-rule="nonzero"/></clipPath></defs><rect x="-52.5" width="630" fill="#ffffff" y="-37.499999" height="449.999989" fill-opacity="1"/><rect x="-52.5" width="630" fill="#ffffff" y="-37.499999" height="449.999989" fill-opacity="1"/><g clip-path="url(#58c942e869)"><g clip-path="url(#3b68366837)"><path fill="#dff8d1" d="M 78.292969 3.292969 L 446.707031 3.292969 L 446.707031 371.707031 L 78.292969 371.707031 Z M 78.292969 3.292969 " fill-opacity="1" fill-rule="nonzero"/></g></g><g clip-path="url(#4627b7c6f9)"><path fill="#268108" d="M 393.414062 189.878906 L 379.277344 189.855469 L 379.628906 189.796875 C 379.601562 118.90625 319.433594 61.796875 247.480469 66.835938 C 186.734375 71.078125 137.527344 120.289062 133.28125 181.03125 C 128.25 253.003906 185.378906 313.183594 256.304688 313.183594 C 295.367188 313.183594 331.613281 294.800781 354.722656 264.199219 C 357.832031 260.078125 356.632812 254.148438 352.25 251.421875 C 348.320312 248.972656 343.234375 250.011719 340.433594 253.699219 C 320.640625 279.785156 289.671875 295.449219 256.304688 295.449219 C 195.582031 295.449219 146.667969 243.933594 150.96875 182.3125 C 154.601562 130.296875 196.734375 88.160156 248.746094 84.523438 C 310.363281 80.214844 361.882812 129.109375 361.902344 189.820312 L 361.574219 189.820312 L 348.125 189.796875 C 346.019531 189.796875 344.765625 192.152344 345.941406 193.894531 L 368.535156 227.382812 C 369.570312 228.925781 371.839844 228.925781 372.886719 227.386719 L 395.589844 193.980469 C 396.773438 192.238281 395.527344 189.878906 393.421875 189.875 Z M 393.414062 189.878906 " fill-opacity="1" fill-rule="nonzero"/></g><path fill="#268108" d="M 296.765625 177.097656 L 215.84375 177.097656 C 210.605469 177.097656 206.328125 181.382812 206.328125 186.613281 L 206.328125 248.4375 C 206.328125 253.6875 210.582031 257.945312 215.832031 257.945312 L 296.757812 257.945312 C 301.992188 257.945312 306.273438 253.660156 306.273438 248.421875 L 306.273438 186.597656 C 306.273438 181.347656 302.015625 177.089844 296.761719 177.089844 Z M 264.058594 235.691406 C 264.167969 236.46875 263.566406 237.171875 262.773438 237.171875 L 249.824219 237.171875 C 249.039062 237.171875 248.433594 236.46875 248.546875 235.691406 L 251.359375 216.007812 C 248.488281 214.308594 246.539062 211.214844 246.539062 207.640625 C 246.539062 202.25 250.910156 197.875 256.304688 197.875 C 261.695312 197.875 266.066406 202.25 266.066406 207.640625 C 266.066406 211.214844 264.121094 214.308594 261.25 216.007812 Z M 264.058594 235.691406 " fill-opacity="1" fill-rule="nonzero"/><path fill="#268108" d="M 221.335938 173.417969 L 238.769531 173.417969 L 238.769531 149.714844 L 238.753906 149.203125 C 238.753906 149.132812 238.535156 141.851562 242.941406 137.175781 C 245.765625 134.183594 250.257812 132.664062 256.296875 132.664062 C 262.339844 132.664062 266.75 134.152344 269.578125 137.097656 C 274.082031 141.785156 273.839844 149.203125 273.847656 149.203125 L 273.847656 173.417969 L 291.265625 173.417969 L 291.265625 149.914062 C 291.363281 147.390625 291.363281 134.777344 282.339844 125.222656 C 276.089844 118.59375 267.328125 115.234375 256.304688 115.234375 C 245.277344 115.234375 236.511719 118.589844 230.261719 125.222656 C 221.242188 134.785156 221.238281 147.394531 221.339844 149.914062 L 221.339844 173.417969 Z M 221.335938 173.417969 " fill-opacity="1" fill-rule="nonzero"/></svg>