<svg xmlns="http://www.w3.org/2000/svg" xmlns:xlink="http://www.w3.org/1999/xlink" width="700" zoomAndPan="magnify" viewBox="0 0 525 374.999991" height="500" preserveAspectRatio="xMidYMid meet" version="1.0"><defs><clipPath id="24d5237d02"><path d="M 77.550781 2.550781 L 447.449219 2.550781 L 447.449219 372.449219 L 77.550781 372.449219 Z M 77.550781 2.550781 " clip-rule="nonzero"/></clipPath><clipPath id="e3faace8f8"><path d="M 262.5 2.550781 C 160.355469 2.550781 77.550781 85.355469 77.550781 187.5 C 77.550781 289.644531 160.355469 372.449219 262.5 372.449219 C 364.644531 372.449219 447.449219 289.644531 447.449219 187.5 C 447.449219 85.355469 364.644531 2.550781 262.5 2.550781 Z M 262.5 2.550781 " clip-rule="nonzero"/></clipPath><clipPath id="2690c18644"><path d="M 147.445312 103.222656 L 377.695312 103.222656 L 377.695312 271.972656 L 147.445312 271.972656 Z M 147.445312 103.222656 " clip-rule="nonzero"/></clipPath></defs><rect x="-52.5" width="630" fill="#ffffff" y="-37.499999" height="449.999989" fill-opacity="1"/><rect x="-52.5" width="630" fill="#ffffff" y="-37.499999" height="449.999989" fill-opacity="1"/><g clip-path="url(#24d5237d02)"><g clip-path="url(#e3faace8f8)"><path fill="#dff8d1" d="M 77.550781 2.550781 L 447.449219 2.550781 L 447.449219 372.449219 L 77.550781 372.449219 Z M 77.550781 2.550781 " fill-opacity="1" fill-rule="nonzero"/></g></g><g clip-path="url(#2690c18644)"><path fill="#268108" d="M 354.433594 103.222656 L 170.558594 103.222656 C 169.804688 103.222656 169.054688 103.261719 168.304688 103.332031 C 167.554688 103.40625 166.8125 103.519531 166.074219 103.664062 C 165.335938 103.8125 164.605469 103.996094 163.886719 104.210938 C 163.164062 104.429688 162.457031 104.683594 161.761719 104.972656 C 161.066406 105.261719 160.386719 105.582031 159.722656 105.9375 C 159.058594 106.292969 158.414062 106.679688 157.789062 107.097656 C 157.164062 107.515625 156.558594 107.960938 155.976562 108.441406 C 155.394531 108.917969 154.839844 109.421875 154.304688 109.953125 C 153.773438 110.488281 153.269531 111.042969 152.792969 111.625 C 152.3125 112.207031 151.867188 112.8125 151.449219 113.4375 C 151.03125 114.0625 150.644531 114.707031 150.289062 115.371094 C 149.933594 116.035156 149.613281 116.714844 149.324219 117.410156 C 149.035156 118.105469 148.78125 118.816406 148.5625 119.535156 C 148.34375 120.253906 148.164062 120.984375 148.015625 121.722656 C 147.867188 122.460938 147.757812 123.207031 147.683594 123.953125 C 147.609375 124.703125 147.574219 125.453125 147.574219 126.207031 L 147.574219 248.789062 C 147.574219 249.542969 147.609375 250.292969 147.683594 251.042969 C 147.757812 251.792969 147.867188 252.535156 148.015625 253.273438 C 148.164062 254.011719 148.34375 254.742188 148.5625 255.460938 C 148.78125 256.183594 149.035156 256.890625 149.324219 257.585938 C 149.613281 258.28125 149.933594 258.960938 150.289062 259.625 C 150.644531 260.289062 151.03125 260.933594 151.449219 261.558594 C 151.867188 262.183594 152.3125 262.789062 152.792969 263.371094 C 153.269531 263.953125 153.773438 264.507812 154.304688 265.042969 C 154.839844 265.574219 155.394531 266.078125 155.976562 266.558594 C 156.558594 267.035156 157.164062 267.480469 157.789062 267.898438 C 158.414062 268.320312 159.058594 268.707031 159.722656 269.058594 C 160.386719 269.414062 161.066406 269.734375 161.761719 270.023438 C 162.457031 270.3125 163.164062 270.566406 163.886719 270.785156 C 164.605469 271.003906 165.335938 271.183594 166.074219 271.332031 C 166.8125 271.480469 167.554688 271.589844 168.304688 271.664062 C 169.054688 271.738281 169.804688 271.773438 170.558594 271.773438 L 354.433594 271.773438 C 355.183594 271.773438 355.9375 271.738281 356.683594 271.664062 C 357.433594 271.589844 358.175781 271.480469 358.914062 271.332031 C 359.652344 271.183594 360.382812 271.003906 361.105469 270.785156 C 361.824219 270.566406 362.53125 270.3125 363.226562 270.023438 C 363.921875 269.734375 364.601562 269.414062 365.265625 269.058594 C 365.929688 268.703125 366.574219 268.320312 367.203125 267.898438 C 367.828125 267.480469 368.429688 267.035156 369.011719 266.558594 C 369.59375 266.078125 370.152344 265.574219 370.683594 265.042969 C 371.214844 264.507812 371.722656 263.953125 372.199219 263.371094 C 372.675781 262.789062 373.125 262.183594 373.542969 261.558594 C 373.960938 260.933594 374.347656 260.289062 374.703125 259.625 C 375.058594 258.960938 375.378906 258.28125 375.667969 257.585938 C 375.953125 256.890625 376.207031 256.183594 376.425781 255.460938 C 376.644531 254.742188 376.828125 254.011719 376.972656 253.273438 C 377.121094 252.535156 377.230469 251.792969 377.304688 251.042969 C 377.378906 250.292969 377.417969 249.542969 377.417969 248.789062 L 377.417969 126.207031 C 377.417969 125.453125 377.378906 124.703125 377.304688 123.953125 C 377.230469 123.207031 377.121094 122.460938 376.972656 121.722656 C 376.828125 120.984375 376.644531 120.253906 376.425781 119.535156 C 376.207031 118.816406 375.953125 118.105469 375.667969 117.410156 C 375.378906 116.714844 375.058594 116.035156 374.703125 115.371094 C 374.347656 114.707031 373.960938 114.0625 373.542969 113.4375 C 373.125 112.8125 372.675781 112.207031 372.199219 111.625 C 371.722656 111.042969 371.214844 110.488281 370.683594 109.953125 C 370.152344 109.421875 369.59375 108.917969 369.011719 108.441406 C 368.429688 107.960938 367.828125 107.515625 367.203125 107.097656 C 366.574219 106.679688 365.929688 106.292969 365.265625 105.9375 C 364.601562 105.582031 363.921875 105.261719 363.226562 104.972656 C 362.53125 104.683594 361.824219 104.429688 361.105469 104.210938 C 360.382812 103.996094 359.652344 103.8125 358.914062 103.664062 C 358.175781 103.519531 357.433594 103.40625 356.683594 103.332031 C 355.9375 103.261719 355.183594 103.222656 354.433594 103.222656 Z M 162.898438 127.546875 L 226.488281 182.035156 L 162.898438 245.617188 Z M 267.476562 188.457031 C 267.132812 188.753906 266.765625 189.015625 266.375 189.25 C 265.984375 189.480469 265.578125 189.675781 265.152344 189.832031 C 264.726562 189.992188 264.292969 190.109375 263.84375 190.191406 C 263.398438 190.273438 262.949219 190.3125 262.496094 190.3125 C 262.042969 190.3125 261.589844 190.273438 261.144531 190.191406 C 260.699219 190.109375 260.261719 189.992188 259.835938 189.832031 C 259.414062 189.675781 259.003906 189.480469 258.613281 189.25 C 258.226562 189.015625 257.859375 188.753906 257.515625 188.457031 L 175.921875 118.546875 L 349.070312 118.546875 Z M 238.148438 192.035156 L 247.53125 200.078125 C 248.578125 200.9375 249.691406 201.699219 250.871094 202.367188 C 252.046875 203.035156 253.273438 203.59375 254.546875 204.050781 C 255.824219 204.507812 257.125 204.851562 258.460938 205.082031 C 259.792969 205.3125 261.136719 205.429688 262.492188 205.429688 C 263.84375 205.429688 265.1875 205.3125 266.523438 205.082031 C 267.855469 204.851562 269.160156 204.507812 270.433594 204.050781 C 271.710938 203.59375 272.933594 203.035156 274.113281 202.367188 C 275.292969 201.699219 276.402344 200.9375 277.449219 200.078125 L 286.84375 192.027344 L 351.261719 256.449219 L 173.730469 256.449219 Z M 298.511719 182.074219 L 362.09375 127.546875 L 362.09375 245.617188 Z M 298.511719 182.074219 " fill-opacity="1" fill-rule="nonzero"/></g></svg>